<?xml version="1.0" encoding="utf-8"?>
<!-- Generator: Adobe Illustrator 24.1.0, SVG Export Plug-In . SVG Version: 6.00 Build 0)  -->
<svg version="1.1" id="Capa_1" xmlns="http://www.w3.org/2000/svg" xmlns:xlink="http://www.w3.org/1999/xlink" x="0px" y="0px"
	 viewBox="0 0 433.7 428.5" style="enable-background:new 0 0 433.7 428.5;" xml:space="preserve">
<style type="text/css">
	.st0{fill:#F1B71C;}
</style>
<g>
	<path class="st0" d="M330.8,312l-37.4-37.4c48.2-49.6,87.7-101.8,111.7-147.8c35.4-67.9,25.7-99.4,11.3-113.8
		c-14.4-14.4-45.8-24.1-113.8,11.3c-46.1,24-98.2,63.5-147.8,111.7l-37.4-37.4c3.1-5.9,4.7-12.5,4.7-19.4c0-11.2-4.4-21.7-12.3-29.6
		L60.3,0L1.1,59.2L50.9,109c8.2,8.2,18.9,12.2,29.6,12.2c6.7,0,13.3-1.6,19.3-4.7l37.4,37.4C88.9,203.5,49.5,255.6,25.5,301.7
		C-10,369.6-0.3,401.1,14.1,415.5c7.1,7.1,18.3,13,35.9,13c18.2,0,43.3-6.4,77.8-24.4c46.1-24,98.2-63.5,147.8-111.7l37.4,37.4
		c-3.1,5.9-4.7,12.5-4.7,19.4c0,11.2,4.4,21.7,12.3,29.6l49.8,49.8l59.2-59.2l-49.8-49.8C366.6,306.3,346.6,303.8,330.8,312
		L330.8,312z M314.4,46.6c27.1-14.1,50.4-21.5,66.4-21.5c8,0,14.2,1.9,18,5.7c11.4,11.4,5.4,43.8-15.8,84.4
		c-22.9,43.9-60.8,93.9-107.2,141.7l-18.2-18.2c20.2-25.9,23.6-56.5,6.8-73.3s-47.5-13.5-73.3,6.8l-18.2-18.2
		C220.5,107.4,270.5,69.5,314.4,46.6z M191.2,207.8l30.6,30.6c-13.8,9.7-30.2,14.4-37.6,7C176.8,238.1,181.5,221.6,191.2,207.8z
		 M208.9,190.1c9.1-6.4,19.4-10.6,27.4-10.6c4.1,0,7.7,1.1,10.2,3.6c7.4,7.4,2.7,23.8-7,37.6L208.9,190.1z M68.6,91.2l-32-32
		l23.7-23.7l32,32c6.5,6.5,6.5,17.1,0,23.7C85.8,97.7,75.2,97.7,68.6,91.2z M47.7,313.3c22.9-43.9,60.8-93.9,107.2-141.7l18.2,18.2
		c-16.5,21.1-21.8,45.4-14,62.8L26.5,385.3C24.5,369.5,31.9,343.7,47.7,313.3L47.7,313.3z M116.3,381.9
		c-30.4,15.9-56.2,23.2-72,21.2l132.6-132.6c5.3,2.4,11.3,3.6,17.6,3.6c14.4,0,30.6-6.1,45.3-17.6l18.2,18.2
		C210.2,321.1,160.2,359,116.3,381.9L116.3,381.9z M370.4,393l-32-32c-6.5-6.5-6.5-17.1,0-23.7c3.3-3.3,7.5-4.9,11.8-4.9
		c4.3,0,8.6,1.6,11.8,4.9l32,32L370.4,393z"/>
</g>
</svg>
