<?xml version="1.0" encoding="utf-8"?>
<!-- Generator: Adobe Illustrator 24.1.0, SVG Export Plug-In . SVG Version: 6.00 Build 0)  -->
<svg version="1.1" id="Layer_1" xmlns="http://www.w3.org/2000/svg" xmlns:xlink="http://www.w3.org/1999/xlink" x="0px" y="0px"
	 viewBox="0 0 438.8 404.5" style="enable-background:new 0 0 438.8 404.5;" xml:space="preserve">
<style type="text/css">
	.st0{fill:#89C7CC;}
</style>
<g>
	<path class="st0" d="M178.2,89.1c-11.3,0-20.6-9.2-20.6-20.6S166.9,48,178.2,48c11.3,0,20.6,9.2,20.6,20.6S189.6,89.1,178.2,89.1z"
		/>
	<path class="st0" d="M438.3,359.2l-33.4-222.8c-2.9-19.5-19.3-33.6-39-33.6H238.6c11.2-21.2,11-46.1-0.7-67.4
		C226.1,14,204.6,0.7,180.4,0c-1.4,0-2.9,0-4.4,0c-24.1,0.7-45.6,14-57.5,35.4c-11.7,21.2-11.9,46.2-0.7,67.4h-45
		c-19.7,0-36.1,14.1-39,33.6L0.4,359.2c-1.7,11.4,1.6,22.9,9.1,31.6c7.5,8.7,18.4,13.7,29.9,13.7h359.9c11.5,0,22.4-5,29.9-13.7
		C436.7,382.1,440,370.6,438.3,359.2L438.3,359.2z M142.6,48.7c7.2-13.1,19.7-20.8,34.2-21.3c0.5,0,0.9,0,1.4,0s0.9,0,1.4,0
		c14.6,0.4,27,8.2,34.3,21.3c7.5,13.7,7.3,29.8-0.6,43.2L178.2,151l-35.1-59C135.3,78.5,135.1,62.4,142.6,48.7L142.6,48.7z
		 M408.4,372.9c-1.3,1.6-4.3,4.2-9.1,4.2H150.9c0.6-6.4,3.6-16.1,14.9-22.3c6.6-3.6,9.1-12,5.4-18.6c-3.6-6.6-12-9.1-18.6-5.4
		c-14.5,8-24.1,20.5-27.7,36.2c-0.8,3.7-1.2,7.1-1.4,10.1H39.4c-4.8,0-7.8-2.6-9.1-4.2c-1.3-1.6-3.5-4.9-2.8-9.6L61,140.5
		c0.9-5.9,5.9-10.2,11.9-10.2h61.2l26.6,44.8c3.7,6.3,10.3,10,17.6,10c7.3,0,13.9-3.8,17.6-10l26.6-44.8h143.5c6,0,11,4.3,11.9,10.2
		l33.4,222.8C411.9,368,409.8,371.4,408.4,372.9L408.4,372.9z"/>
	<path class="st0" d="M237.4,172.1c-7.2-2.4-14.9,1.5-17.3,8.7c-2.4,7.2,1.5,14.9,8.7,17.3c0.1,0,14.2,5.1,18.8,18.8
		c1.9,5.7,7.3,9.4,13,9.4c1.4,0,2.9-0.2,4.3-0.7c7.2-2.4,11.1-10.2,8.7-17.3C264.6,181.4,238.5,172.5,237.4,172.1L237.4,172.1z"/>
	<path class="st0" d="M249.1,258.5c-7.1-2.5-15,1.2-17.5,8.4c-7.7,21.9-34.3,31.3-34.8,31.5c-7.2,2.4-11,10.2-8.6,17.3
		c1.9,5.7,7.3,9.4,13,9.4c1.4,0,2.9-0.2,4.3-0.7c1.6-0.5,39.7-13.6,52-48.4C259.9,268.8,256.2,261,249.1,258.5L249.1,258.5z"/>
</g>
</svg>
