<?xml version="1.0" encoding="utf-8"?>
<!-- Generator: Adobe Illustrator 24.1.0, SVG Export Plug-In . SVG Version: 6.00 Build 0)  -->
<svg version="1.1" id="Layer_1" xmlns="http://www.w3.org/2000/svg" xmlns:xlink="http://www.w3.org/1999/xlink" x="0px" y="0px"
	 viewBox="0 0 512 404.5" style="enable-background:new 0 0 512 404.5;" xml:space="preserve">
<style type="text/css">
	.st0{fill:#04738D;}
</style>
<g>
	<path class="st0" d="M498.3,317L383.8,202.5c21.5-48.8,12.3-107.9-27.6-147.8c-52-52-136.1-52-188.1,0
		c-51.8,51.9-51.8,136.2,0,188.1c41.2,41.2,101.6,49.1,149.8,26.8l113.9,113.9c18.4,18.4,48.1,18.4,66.5,0
		C516.6,365.1,516.6,335.3,498.3,317L498.3,317z M189.3,221.5c-40.2-40.2-40.2-105.5,0-145.7c40.2-40.3,105.4-40.3,145.6,0
		c40.2,40.2,40.2,105.5,0,145.7C294.7,261.8,229.6,261.8,189.3,221.5L189.3,221.5z M477,362.2c-6.6,6.6-17.4,6.6-24,0L344.2,253.4
		c8.9-7,16.9-15.1,23.8-24.2l109,109.1C483.7,344.8,483.7,355.6,477,362.2z"/>
	<path class="st0" d="M15,195.4h64c8.3,0,15-6.7,15-15c0-8.3-6.7-15-15-15H15c-8.3,0-15,6.7-15,15C0,188.7,6.7,195.4,15,195.4z"/>
	<path class="st0" d="M15,259.4h88c8.3,0,15-6.7,15-15c0-8.3-6.7-15-15-15H15c-8.3,0-15,6.7-15,15C0,252.7,6.7,259.4,15,259.4z"/>
	<path class="st0" d="M15,323.4h151.9c8.3,0,15-6.7,15-15c0-8.3-6.7-15-15-15H15c-8.3,0-15,6.7-15,15C0,316.7,6.7,323.4,15,323.4z"
		/>
	<path class="st0" d="M342.8,357.4H15c-8.3,0-15,6.7-15,15s6.7,15,15,15h327.8c8.3,0,15-6.7,15-15S351.1,357.4,342.8,357.4z"/>
</g>
</svg>
