<?xml version="1.0" encoding="utf-8"?>
<!-- Generator: Adobe Illustrator 24.1.0, SVG Export Plug-In . SVG Version: 6.00 Build 0)  -->
<svg version="1.1" id="Layer_1" xmlns="http://www.w3.org/2000/svg" xmlns:xlink="http://www.w3.org/1999/xlink" x="0px" y="0px"
	 viewBox="0 0 1200 541.6" style="enable-background:new 0 0 1200 541.6;" xml:space="preserve">
<style type="text/css">
	.st0{fill:#8AC8CD;}
	.st1{fill:#0A748E;}
	.st2{fill:#C6E4E5;}
	.st3{opacity:0.5;}
	.st4{fill:#F47421;}
	.st5{fill:#F68938;}
	.st6{fill:#F15B22;}
	.st7{fill:#A33822;}
	.st8{fill:none;stroke:#F15B22;stroke-width:0.7506;stroke-linecap:round;stroke-miterlimit:10;}
	.st9{fill:#87281A;}
	.st10{fill:#FCC7A1;}
	.st11{fill:#D61F2B;}
	.st12{fill:#133B4F;}
	.st13{fill:none;stroke:#EDA16E;stroke-width:0.3002;stroke-linecap:round;stroke-miterlimit:10;}
	.st14{fill:#1C1C1B;}
	.st15{fill:none;stroke:#F15B22;stroke-width:0.5004;stroke-linecap:round;stroke-miterlimit:10;}
	.st16{fill:#FFFFFF;}
	.st17{fill:#6B65AD;}
	.st18{fill:#F0B71C;}
	.st19{fill:#EDA16E;}
	.st20{fill:none;stroke:#FFFFFF;stroke-width:0.3002;stroke-linecap:round;stroke-miterlimit:10;}
	.st21{opacity:0.3;fill:#010101;}
</style>
<g>
	<path class="st0" d="M1199.8,100.5c-10.2-9.7-21.8-19.5-34.9-29.4c-48.7-36.7-189.3-91.1-308.5-63.7
		c-119.2,27.3-168,122.8-221.1,120.7c-53.1-2.1-52.2-39.2-106.8-38.4c-54.6,0.8-54.6,30.3-83.2,34.5c-28.6,4.2-55.9-12.9-108-6.5
		c-52.2,6.4-51.5,42.6-116.7,47.8c-65.2,5.2-84.4-35-140.3-30.2C24.4,140.2,0.1,174,0.1,174v368.2h1199.7V100.5z"/>
	<path class="st1" d="M1164.9,71.2c-48.7-36.7-189.3-91.1-308.5-63.7c-119.2,27.3-168,122.8-221.1,120.7
		c-53.1-2.1-52.2-39.2-106.8-38.4c-54.6,0.8-54.6,30.3-83.2,34.5c-28.6,4.2-55.9-12.9-108-6.5c-52.2,6.4-51.5,42.6-116.7,47.8
		c-65.2,5.2-84.4-35-140.3-30.2C24.4,140.2,0.1,174,0.1,174v89.1c121.1-47,178.2-28.3,218.8-19.7c65.7,13.8,91.6-40.4,135.9-70.7
		c60.1-41.1,102.6,6,184.4-10.1c81.8-16.1,100.3,11.4,175.9-18.1C790.7,115,831.7,7.7,1007,42.5c123.2,24.5,192.8,93.7,192.8,93.7
		v-35.7C1189.6,90.8,1178,81,1164.9,71.2z"/>
	<g>
		<path class="st2" d="M0.1,481.3c0,0,12.4-0.9,28.5,1.6s22-17.7,38.2-18c16.1-0.3,23.5,11.8,31,10.6s26.7-23.9,40.7-22.4
			c14,1.6,21.5,12,24.8,11.6c3.3-0.5,2.9-6.2,7.6-8.8c4.7-2.7,10.2-6.6,15-5.1c4.8,1.5,14.8,8.5,19.3,6.1c4.5-2.4,3.5-12,8.5-12.7
			c5-0.7,7.2-5.4,13.6-1.5c6.4,3.8,13.2,6.8,20.3,4.1c7.1-2.7,5.5-12.3,12.3-13.9c6.9-1.5,10.8,4.4,15.5,2.8
			c4.7-1.6,14.3-16.4,24.9-17c10.6-0.6,19.4,4.8,26,3.5c6.5-1.3,32.8-19.1,44-20.7c11.2-1.6,19.1-7.5,21.1-14
			c2-6.5,6.9-17,14.4-19.3c7.6-2.3,5.4-25.4,15.6-28.9c10.2-3.5,10.1,1.9,14.4,1.9s13.6-10.2,18.4-9.4c4.8,0.8,7.7,3.5,12.3,3.8
			c4.7,0.3,17-12.2,22.7-12.5c5.7-0.4,20.8,3.3,25.5,0c4.7-3.3,10.2-19.7,17.6-22.8c7.3-3.1,14.7-1.5,18.2-3.2
			c3.5-1.8,7.1,2.4,12,0.7c4.9-1.7,10.8-15.6,18.2-18.9c7.3-3.3,19.6-4.3,24.7-8.6c5.1-4.3,11.9-14.6,19.3-16.5
			c7.5-2,25-16,31.7-22.6c6.6-6.6,21.9-18.7,29.2-21.4c7.3-2.7,30.1-20.8,33.2-26.7c3.1-5.8,15.8-18.7,26.1-19.9
			c10.2-1.2,31.7-12.5,37.6-16.5c5.9-4.1,24.4-16.2,31.6-17.8c7.1-1.6,33.9-11.9,39.6-15c5.7-3.1,30.6-15.8,38-8.6
			c7.4,7.2-12.6,36.9-15.9,44.4c-3.3,7.5-14.3,41.4-18.2,48.1c-3.9,6.7-24.2,18.2-27.5,25.8c-3.3,7.6-0.4,15.2-5.5,21.7
			c-5.1,6.5-34.1,31.4-41.9,41.1c-7.8,9.8-10.1,15.8-14.9,17.5c-4.8,1.7-22,4.3-25.8,8.5c-3.7,4.2-14.7,5.8-16.9,12.3
			c-2.2,6.5,1.9,14.6-2.9,18.5c-4.8,3.9-12.9,11.6-16.9,19.1c-4,7.5-20.6,6.5-26.1,10.6c-5.4,4-12.4,14-17.7,16.8
			c-5.3,2.8-7.1,10.6-6.1,17.7c1,7.1-6.8,14.3-12.8,17.5c-6.1,3.3-21.1,7.6-21.3,17.2c-0.2,9.6,0.9,14.9-6.8,19.9
			c-7.8,5-15.2,5.4-15.5,13.2c-0.3,7.8,1.6,23.9-16.1,37.3s-20.2,30.1-20.2,30.1H0.1V481.3z"/>
		<path class="st0" d="M890.8,105.5c6.4,5.6-5.4,23.8-13.8,37.7c-8.4,13.9-17.7,51.6-33.5,62.5c-15.8,10.9-30,44.3-50.3,59.2
			c-20.3,14.9-35.8,30.5-54.6,40.3c-18.8,9.8-59,40.6-64.4,49.8c-5.4,9.2-30,31.7-44.5,35.2c-14.4,3.5-42.8,12.6-48.2,24.7
			c-5.4,12.1-1.8,22.1-10.7,30.8c-8.8,8.7-41.1,28.9-47.6,60.9c-6.5,32-11.8,35.7-11.8,35.7H0.1v-30.1c0,0,81.2,16.7,115.7,4.1
			c35.4-12.9,62.9-18.1,99.7-21.9c23.5-2.4,21.5-34.7,35.7-37.4c10.5-2,12.3,4,22,3.9c9.8-0.2,17.4-21,29.8-26.4
			c12.4-5.4,29-0.2,44.9-5.1c15.8-5,60.4-28.4,69.5-31.4c9.2-2.9,13.4-7,15.7-15.5c2.3-8.5,7.6-10.6,16.9-12.9
			c9.3-2.3,8.4-18.5,16.5-21.7c8.1-3.3,20.1,4.8,28.4,0.9c8.3-3.9,21.6-20.6,30.3-21.6c8.7-1,15.2,1,22.7-5.2
			c7.5-6.2,31.3-23.9,42.6-33.5c11.3-9.6,21.5-24.4,37.9-32.5c16.4-8.1,28-24.3,39-31.8c11-7.5,44.4-29.4,48.4-34.8
			s18.6-19.1,26.2-20c7.6-0.9,37.5-18,45.1-24.1c7.6-6.1,23.8-14.9,35-17.8c11.2-2.9,36-15.3,41.6-17.5
			C869.4,107.7,884.5,100,890.8,105.5z"/>
		<g>
			<g class="st3">
				
					<image style="overflow:visible;" width="1953" height="1674" xlink:href="85EC6043BF8C3284.png"  transform="matrix(0.24 0 0 0.24 472.8 81.1882)">
				</image>
			</g>
			<g>
				<g>
					<path class="st4" d="M889.5,110.8c1.5-2.8-1.2-6-4.2-5c-38,12.1-133.6,52-224.4,128.2c-96.8,81.2-141.8,160.6-155.8,188.7
						c-2.1,4.2,1.8,9,6.4,7.6c30.1-8.9,116.1-39.5,212.9-120.7C815.1,233.3,871,146.1,889.5,110.8z"/>
					<path class="st5" d="M885.3,105.7c-38,12.1-133.6,52-224.4,128.2c-96.8,81.2-141.8,160.6-155.8,188.7c-1,2-0.6,4.2,0.6,5.7
						c23.9-42.3,62.2-100,121.2-157.2c57.7-55.9,168.9-131.8,261.4-165C887.4,105.6,886.4,105.4,885.3,105.7z"/>
					<path class="st6" d="M632,358.7c-26.7,13.6-53.7-18.5-35.6-42.5c15.4-20.5,39-42.6,73.6-71.6c30-25.1,54.3-41.6,75-53.2
						c27.2-15.2,55.4,18.4,35.7,42.6c-14.9,18.4-35.4,39.5-65.4,64.7C680.7,327.7,654.9,347.1,632,358.7z"/>
					<path class="st7" d="M600.1,349.3c-5.9-7-9.7-19.3-0.9-30.9c14.1-18.7,35.2-39.3,73-71c27-22.6,51.3-39.9,74.5-52.8
						c13.2-7.4,25-1.5,31,5.7c6.1,7.2,9.8,19.8,0.2,31.6c-16.7,20.6-38,41.6-64.9,64.2c-37.8,31.7-61.7,49-82.6,59.6
						C617.4,362.2,606,356.3,600.1,349.3z"/>
					<path class="st6" d="M546.6,397.4c1.4-2.1-0.8-4.8-3.2-3.8c-2,0.9-4.3,2.2-6.6,4.2c-2.4,2-3.9,3.9-5,5.6
						c-1.3,2.1,0.8,4.6,3.1,3.7c1.8-0.7,4-2,6.4-3.9C543.7,401.2,545.4,399.2,546.6,397.4z"/>
					<g>
						<g>
							<path class="st7" d="M573.3,357.2c0.6-0.5,0.7-1.4,0.2-2s-1.4-0.7-2-0.2c-0.6,0.5-0.7,1.4-0.2,2
								C571.8,357.6,572.7,357.7,573.3,357.2z"/>
							<path class="st7" d="M589.5,376.5c0.6-0.5,0.7-1.4,0.2-2c-0.5-0.6-1.4-0.7-2-0.2c-0.6,0.5-0.7,1.4-0.2,2
								S588.9,377,589.5,376.5z"/>
							<path class="st7" d="M554.1,373.4c0.6-0.5,0.7-1.4,0.2-2s-1.4-0.7-2-0.2c-0.6,0.5-0.7,1.4-0.2,2
								C552.6,373.8,553.5,373.9,554.1,373.4z"/>
							<path class="st7" d="M570.2,392.6c0.6-0.5,0.7-1.4,0.2-2c-0.5-0.6-1.4-0.7-2-0.2c-0.6,0.5-0.7,1.4-0.2,2
								C568.7,393.1,569.6,393.1,570.2,392.6z"/>
						</g>
						<g>
							<g>
								<line class="st8" x1="588.6" y1="375.4" x2="553.1" y2="372.3"/>
								<line class="st8" x1="572.4" y1="356.1" x2="569.3" y2="391.5"/>
							</g>
						</g>
					</g>
					<path class="st9" d="M745.2,204.3c-22.4,7.6-118.8,93.3-149.9,121.3c-3.2,9.3,0.1,18.2,4.8,23.7c5.9,7,17.3,12.9,30.3,6.3
						c20.9-10.6,44.8-27.9,82.6-59.6c27-22.6,48.2-43.6,64.9-64.2c0.9-1.1,1.6-2.1,2.2-3.2C783.5,218.6,771.9,195.2,745.2,204.3z"/>
					<g>
						<g>
							<g>
								<path class="st7" d="M809.4,159.1c0.6-0.5,0.7-1.4,0.2-2c-0.5-0.6-1.4-0.7-2-0.2c-0.6,0.5-0.7,1.4-0.2,2
									C807.9,159.5,808.8,159.6,809.4,159.1z"/>
								<path class="st7" d="M825.6,178.4c0.6-0.5,0.7-1.4,0.2-2c-0.5-0.6-1.4-0.7-2-0.2c-0.6,0.5-0.7,1.4-0.2,2
									S825,178.9,825.6,178.4z"/>
								<path class="st7" d="M790.1,175.3c0.6-0.5,0.7-1.4,0.2-2c-0.5-0.6-1.4-0.7-2-0.2c-0.6,0.5-0.7,1.4-0.2,2
									C788.6,175.7,789.5,175.8,790.1,175.3z"/>
								<path class="st7" d="M806.3,194.6c0.6-0.5,0.7-1.4,0.2-2c-0.5-0.6-1.4-0.7-2-0.2c-0.6,0.5-0.7,1.4-0.2,2
									C804.8,195,805.7,195.1,806.3,194.6z"/>
							</g>
						</g>
						<g>
							<line class="st8" x1="824.7" y1="177.3" x2="789.2" y2="174.2"/>
							<line class="st8" x1="808.5" y1="158" x2="805.4" y2="193.5"/>
						</g>
					</g>
				</g>
				<g>
					<g>
						<path class="st10" d="M623,305.2c0,0,8.1-18.4,21.7-29.4c13.6-11,33.5-14.3,33.5-14.3l2.2,6.2c0,0-17.1,7.3-27.1,17.3
							c-10,9.9-15,23.8-15,23.8l4.4,6.1c0,0,14.1-5,25.5-12.8c11.3-7.9,22.7-20.8,22.7-20.8l5.7,3.3c0,0-10.8,21.5-23.2,29.9
							c-12.4,8.4-33,17.7-33,17.7L623,305.2z"/>
						<path class="st11" d="M623,305.2l17.3,26.8c0,0,7.5-3.4,16.2-7.9l-5.5-12.7c-4.9,2.2-8.4,3.4-8.4,3.4l-4.4-6.1
							c0,0,1.7-4.8,5.2-10.7l-12-7.6C626.1,298.4,623,305.2,623,305.2z"/>
						<path class="st12" d="M678.2,261.5c0,0,0.1-8.8,1.5-9.7c1.5-0.9,6,9.4,5.9,12.3c-0.1,2.9-5.2,3.6-5.2,3.6L678.2,261.5z"/>
						<path class="st12" d="M696.6,284.5c0,0,8.7,1.4,9.8,0.2c1.2-1.3-8.2-7.5-11.1-7.9c-2.9-0.4-4.5,4.5-4.5,4.5L696.6,284.5z"/>
						<path class="st13" d="M652.4,274.6c0,0-1.6,1-0.9,2.6"/>
						<path class="st13" d="M678.6,305.2c0,0-0.9,1.3-2.2,1.3"/>
					</g>
					<g>
						<path class="st10" d="M683.6,317.9c0,0-1.6-5.1,0-5.7c1.6-0.6,3.4,0.8,3.4,0.8L683.6,317.9z"/>
						<path class="st10" d="M640.7,265.7c0,0,3.6,1,5.1,0.3c1.5-0.7,0.3-2.8,0.3-2.8L640.7,265.7z"/>
						<g>
							<polygon class="st14" points="669,290.5 590.4,194.5 588.9,195.7 667.5,291.7 746,387.7 747.5,386.4 							"/>
							<g>
								<path class="st4" d="M578.8,155.9c-2.2-3.6-7.1-4.9-10.7-2.8c-2.3,1.3-5,3.1-8.1,5.6c-3,2.5-5.3,4.7-7,6.7
									c-2.9,3.3-2.7,8.3,0.6,11.3c8.8,8.2,18,15.4,26.1,21.3c8.3,6,19.2-2.9,14.9-12.2C590.3,176.7,585,166.2,578.8,155.9z"/>
								<line class="st15" x1="588.4" y1="193.5" x2="563" y2="162.6"/>
								<line class="st15" x1="590" y1="186.7" x2="571.2" y2="158.6"/>
								<line class="st15" x1="581.4" y1="193.8" x2="557.6" y2="169.8"/>
							</g>
							<g>
								<path class="st4" d="M783,405.5c3.1,2.9,3.4,7.9,0.6,11.1c-1.7,2-4,4.3-7.1,6.8c-3,2.5-5.7,4.3-7.9,5.5
									c-3.8,2.2-8.7,1-10.9-2.8c-6.3-10.3-11.5-20.7-15.7-29.8c-4.3-9.3,6.6-18.2,14.9-12.2C765,390.1,774.2,397.3,783,405.5z"/>
								<line class="st15" x1="748.1" y1="388.6" x2="773.4" y2="419.6"/>
								<line class="st15" x1="755.1" y1="388.4" x2="778.9" y2="412.4"/>
								<line class="st15" x1="746.4" y1="395.5" x2="765.3" y2="423.5"/>
							</g>
							<polygon class="st16" points="632.2,248.7 667.5,291.7 702.7,334.7 704.2,333.5 669,290.5 633.7,247.4 							"/>
						</g>
						<path class="st10" d="M608.9,308.2c0,0-3.2-15.5,3.1-27.3c5.8-11,26-20.1,26-20.1s6-7.2,10-1.4c3.9,5.8-7.1,6.4-7.1,6.4
							s-14.4,9.2-19.9,18.4c-5.4,9.3-0.5,22.4-0.5,22.4L608.9,308.2z"/>
						<path class="st17" d="M608.9,308.2l11.5-1.4c0,0-3.6-9.6-1.3-18.2c-4.5-0.5-7.8-0.3-9.9,0
							C606.9,298.4,608.9,308.2,608.9,308.2z"/>
						<path class="st16" d="M619.1,288.6c-4.5-0.5-7.8-0.3-9.9,0c-0.2,0.8-0.3,1.7-0.5,2.5l9.9,0.1
							C618.8,290.3,618.9,289.4,619.1,288.6z"/>
						<path class="st10" d="M636.5,341c0,0,14.8,5.8,27.4,1.7c11.8-3.9,24.3-22.1,24.3-22.1s8.1-4.7,3.1-9.6c-5-4.9-7.5,5.9-7.5,5.9
							s-11.5,12.6-21.6,16.4s-22.2-3.5-22.2-3.5L636.5,341z"/>
						<path class="st17" d="M636.5,341l3.4-11.1c0,0,8.8,5.3,17.7,4.4c-0.3,4.5-1.1,7.8-1.7,9.8C645.7,344.7,636.5,341,636.5,341z"
							/>
						<path class="st16" d="M657.6,334.4c-0.3,4.5-1.1,7.8-1.7,9.8c-0.9,0-1.7,0.1-2.5,0l1.6-9.8
							C655.8,334.4,656.7,334.4,657.6,334.4z"/>
					</g>
					<g>
						<path class="st18" d="M598.1,315c3.7-3.7,9.3-8.6,15.7-12.5c1.9-1.2,4.3-1.3,6.3-0.4c7.6,3.3,25.2,13.2,25,35.4
							c0,1.9-0.9,3.7-2.3,5c-3.1,2.9-9.3,8.1-16.6,11.4c-3.7,1.7-8.1,1.2-11.3-1.2c-5.5-4.1-13.9-12-19.4-25.3
							C593.8,323.1,594.8,318.2,598.1,315z"/>
						<path class="st12" d="M613.9,340.1c-1-0.3-3.3,0.9-6.4-2.6c-3.1-3.5-3.2-11.2,2.5-17.2c5.7-6,16.7-8,20.1-3.6
							c3.4,4.4,0.1,7.8,1.9,11.7c1.8,4-3.2,11.2-8.1,13.4C617.6,344.6,616.8,341,613.9,340.1z"/>
					</g>
				</g>
				<g>
					<g>
						<path class="st10" d="M766.7,192.5c-4.9,2.3-15.9,7.7-26.1,14.9c-13.7,9.6-25.6,23.7-25.6,23.7l10.3,8.5
							c9.1-16.2,41-40.2,46.7-44.4C770.4,194.1,768.6,193.2,766.7,192.5z"/>
						<path class="st10" d="M781.1,205.6c-0.8-1.5-1.7-3-2.6-4.3c-4.8,4.6-34.3,32.2-52,38.4l6.5,11.6c0,0,15.9-9.3,27.8-21.1
							C771,220.2,779,208.7,781.1,205.6z"/>
						<path class="st17" d="M715,231.2l10.3,8.5c1.5-2.7,3.7-5.7,6.3-8.8c-4.2-4.7-7.3-6.8-9.2-7.6C717.9,227.8,715,231.2,715,231.2
							z"/>
						<path class="st17" d="M735.4,235.5c-3.1,1.8-6.1,3.3-8.8,4.2l6.5,11.6c0,0,3.5-2,8.4-5.4C740.5,243.5,738.7,240,735.4,235.5z"
							/>
						<path class="st19" d="M757.3,197.2c2.4,0.5,5.2,1.4,8.1,2.9c3-2.3,5.4-4.1,6.6-5c-1.6-1.1-3.4-2-5.3-2.7
							C764.5,193.5,761.2,195.1,757.3,197.2z"/>
						<path class="st19" d="M777,211.5c2-2.7,3.4-4.8,4.2-5.9c-0.8-1.5-1.7-3-2.6-4.3c-0.9,0.9-2.8,2.7-5.3,5
							C774.5,207.7,775.8,209.5,777,211.5z"/>
						<path class="st13" d="M745.9,210.8c0,0-0.4-1.7,1.1-2.1"/>
						<path class="st13" d="M760.9,224.6c0,0,1.5,0,1.8-2"/>
					</g>
					<g>
						<path class="st10" d="M712.7,183.2c0,0,3.3,0.1,4.5-1.5c1.2-1.7-0.8-2.4-0.8-2.4L712.7,183.2z"/>
						<path class="st10" d="M775.1,239.7c0,0-1.1-3.1,0.3-4.6s2.8,0.2,2.8,0.2L775.1,239.7z"/>
						<g>
							<polygon class="st14" points="770.6,227.5 679.1,143.9 677.8,145.3 769.3,229 860.9,312.6 862.2,311.2 							"/>
							<polygon class="st16" points="728.3,191.4 769.3,229 810.4,266.5 811.7,265 770.6,227.5 729.6,190 							"/>
							<g>
								<path class="st4" d="M662,107.4c-2.7-3.2-7.7-3.8-11-1.2c-2,1.6-4.5,3.8-7.2,6.7c-2.6,2.9-4.6,5.5-6,7.6
									c-2.4,3.7-1.4,8.6,2.2,11.1c9.9,6.8,20,12.6,28.9,17.3c9.1,4.8,18.6-5.6,13-14.2C676.4,126.2,669.7,116.7,662,107.4z"/>
								<line class="st15" x1="676.9" y1="143.2" x2="647.4" y2="116.2"/>
								<line class="st15" x1="677.6" y1="136.2" x2="654.9" y2="111.1"/>
								<line class="st15" x1="670" y1="144.5" x2="643" y2="124.2"/>
							</g>
							<g>
								<path class="st4" d="M900.1,324.9c3.5,2.4,4.5,7.3,2.2,10.9c-1.4,2.2-3.4,4.8-6.1,7.8c-2.6,2.9-5,5-7,6.6
									c-3.5,2.7-8.4,2.2-11.2-1.2c-7.7-9.3-14.4-18.8-19.8-27.2c-5.6-8.6,3.9-19,13-14.2C880,312.2,890.1,318.1,900.1,324.9z"/>
								<line class="st15" x1="863.1" y1="313.3" x2="892.6" y2="340.3"/>
								<line class="st15" x1="870" y1="312" x2="897" y2="332.3"/>
								<line class="st15" x1="862.4" y1="320.2" x2="885.1" y2="345.3"/>
							</g>
						</g>
						<path class="st10" d="M729.5,264.9c0,0,11.7,0.7,27.4-4.8c15.6-5.5,26-19.4,26.7-23c0.7-3.6-4.4-5.4-6-4
							c-1.6,1.4-2.5,6.7-2.5,6.7s-20.5,15.6-43.3,14.8L729.5,264.9z"/>
						<path class="st17" d="M731.8,254.5c4.9,0.2,9.7-0.4,14.2-1.4l1.6,9.6c-10.8,2.5-18.1,2.1-18.1,2.1L731.8,254.5z"/>
						<path class="st10" d="M697.8,233.3c0,0-3.2-11.3-1.2-27.8c2-16.5,13.4-29.5,16.8-31c3.4-1.5,6.2,3.2,5.2,5c-1,1.8-6,3.8-6,3.8
							s-10.9,23.4-5.2,45.5L697.8,233.3z"/>
						<path class="st17" d="M707.4,228.9c-1.2-4.8-1.7-9.6-1.6-14.2l-9.8,0.5c-0.2,11.1,1.8,18.2,1.8,18.2L707.4,228.9z"/>
						<g>
							<path class="st12" d="M705.2,183.4l6.2,2.9c0.3-0.8,0.5-1.4,0.7-1.8l-5.8-2.7C706,182.3,705.6,182.8,705.2,183.4z"/>
							<path class="st16" d="M710.6,185.4c0.6-0.7,0.5-1.8-0.2-2.4c-0.7-0.6-1.8-0.5-2.4,0.2c-0.6,0.7-0.5,1.8,0.2,2.4
								C708.9,186.1,710,186.1,710.6,185.4z"/>
						</g>
					</g>
					<g>
						<path class="st18" d="M702,259.1c-10.9-13.7-7.2-26.4-1.3-30.9c8.2-6.1,17.6-0.3,27.9,12.1c10.4,12.3,6.4,23,0.7,27.8
							C723.7,272.9,710.3,269.5,702,259.1z"/>
						<g>
							<path class="st12" d="M704.4,242c-8.7,7.3,0.3,12.4-3.3,20.9c-3.6,8.5,1.1,20.3,11.6,17.5c10.6-2.8,8.4-13.3,7.1-18.3
								c-1.3-4.9,5-13.8-0.9-19.9C714.7,237.9,708.2,238.8,704.4,242z"/>
							<path class="st20" d="M705.9,259.5c0,0,4,2,10,1.2"/>
						</g>
					</g>
				</g>
			</g>
		</g>
	</g>
	<path class="st21" d="M877.8,542.2c0,0-11.3-125,98.3-154.5c109.5-29.5,57.3-184.5,223.7-156.3v310.8H877.8z"/>
</g>
</svg>
