<?xml version="1.0" encoding="utf-8"?>
<!-- Generator: Adobe Illustrator 24.1.0, SVG Export Plug-In . SVG Version: 6.00 Build 0)  -->
<svg version="1.1" id="Layer_1" xmlns="http://www.w3.org/2000/svg" xmlns:xlink="http://www.w3.org/1999/xlink" x="0px" y="0px"
	 viewBox="0 0 1200 800" style="enable-background:new 0 0 1200 800;" xml:space="preserve">
<style type="text/css">
	.st0{fill-rule:evenodd;clip-rule:evenodd;fill:#F69C9E;}
	.st1{fill-rule:evenodd;clip-rule:evenodd;fill:#EEEEBA;}
	.st2{fill-rule:evenodd;clip-rule:evenodd;fill:#1C1C1C;}
	.st3{fill-rule:evenodd;clip-rule:evenodd;fill:#0A748E;}
	.st4{fill-rule:evenodd;clip-rule:evenodd;fill:#010101;}
</style>
<g>
	<g transform="matrix(1.07011,0,0,1.10621,-17.7376,-21.6103)">
		<path class="st0" d="M496.5,339.1c0.1-4,2.7-7.7,8.7-9.6c7.4-2.3,15.5,3.2,17.7,9.4c1.7,4.8,0.4,10-6.7,12.5l-2.9,0.5l-0.6,0.1
			c-0.2,0-0.5,0.1-0.7,0.1l-1.1,0.2c-0.2,0-0.3,0-0.5,0l-0.3,0c-3.2,0-6.1-1.1-8.3-2.8c-2.1-1.3-3.8-3-4.7-4.9
			C496.3,342.9,496,341,496.5,339.1z M511.4,341.4c0.1,0.1,0.2,0.2,0.2,0.3c0.6,0,1.3,0.1,1.8,0.3c-0.2-0.1-0.5-0.2-0.7-0.3
			C512.3,341.5,511.8,341.3,511.4,341.4z"/>
	</g>
	<g transform="matrix(1.07011,0,0,1.10621,-17.7376,-21.6103)">
		<path class="st0" d="M652,332l0.2-0.1c4.7-2.9,11.5-3.8,15.7-2.7c2.4,0.6,5.2,1.9,7.1,3.9c1.6,1.7,2.6,3.7,2.6,6.1
			c0,2.2-0.7,4.2-2,5.9c-1.2,1.6-2.9,3-4.5,4c-2.3,1.7-5.2,2.9-8.2,3.5c-2.5,0.8-5.3,1.3-7.8,1.3c-4.5,0-8.6-1.4-11.1-5
			c-1.4-2-1.8-4-1.5-6c0.4-2.4,1.8-4.9,3.5-6.8C647.7,334.4,649.7,333,652,332z M663.2,338.6c0.1-0.1,0.1-0.1,0.1-0.3
			C663.2,338.2,663.2,338.4,663.2,338.6z"/>
	</g>
	<path class="st1" d="M544.5,261.2c3.1-3.5,11.3-4,16.6-2.5s10.1,3.5,10,6.4c-0.1,2.8-1,3.6-5.9,3.6c-5,0-12.6-1.5-15.7-1.6
		S541.5,264.6,544.5,261.2z"/>
	<path class="st1" d="M475.4,400.9c0.1,5.7,8.8,36.9,17.3,41.5c2.7-2.2-0.2-13.2-1.2-20.8c-0.9-7.5-3.3-29.7-3.3-29.7L475.4,400.9z"
		/>
	<path class="st1" d="M667.1,261.4c-4.2,2.6-7.6,7.5,2.7,7.3c10.2-0.2,17.1-0.1,18.8-2.6s0.3-4.1-4.3-6.1
		C679.7,258,671.7,258.5,667.1,261.4z"/>
	<path class="st1" d="M735.1,379.6c0.9,3.6,1,10.1,6.2,9.9c5.1-0.2,4.8,2.2,2.8,4.8s-15.2,30.4-22.7,35.6c0.9-8.5,12-49,12-49
		L735.1,379.6z"/>
	<path class="st2" d="M577.1,429.3c18.6,5.4,42.9,2.4,60.6-4.6c1.4-0.5,2-2.1,1.5-3.5c-0.5-1.4-2.1-2-3.5-1.5
		c-16.7,6.7-39.6,9.5-57.1,4.5c-1.4-0.4-2.9,0.4-3.3,1.8C574.8,427.4,575.7,428.9,577.1,429.3z"/>
	<path class="st1" d="M451.4,206.4c-0.7,7.9-2.8,17.6,0,26.4c2.8,8.8,10.9,35.5,10.9,41.1c0.1,5.6-3.1,20.1,0,20.1
		c3.1-0.1,11.5,0.4,13,3.4c1.5,3,4.8,13.9,3.9-12.9c0.8-20.5,5.4-58.2,9.8-65.4c4.4-7.2,18.7-24.3,26.7-30.4
		c8-6.1,26.8-24.8,31-28.5s10-14,13.6-14.8s4.7,3.9,9,7.9c4.2,4,10.1,9,12.9,11.6c2.7,2.6,12.4,6.9,10.3,7.7
		c-2.1,0.8-12,0.9-10.3,3.6c1.8,2.6,15.2,12.3,21.4,13.7s27.4,4,32.3,0.7c5-3.3,21-15.5,22.7-18c1.7-2.5,14-21.3,16.1-21.2
		c2.1,0.1,7.1,8.4,11.4,12.5c4.3,4.1,19.2,16.4,24.2,19.4c5,3.1,19.8,19.5,21.2,23.2s6.6,20.6,7.1,28.2c0.5,7.6,2.9,62.6,2.5,63.9
		c-0.4,1.3,0.2-3.6,5.5-8.2c5.3-4.6,13.4-13.2,16.1-14.7c2.7-1.5,1.3-14,2.2-19.9c0.9-5.9,7.3-31.1,4.7-50.3
		c-2.6-19.1-12.2-48.4-19.5-58.3c-7.4-9.9-20.1-21.2-15.1-26.2c5-5,0.5-13-11.8-18.5c-9.2-2.8-18.9-1.6-16.3-5.3s5-13.3,1.6-11.4
		s-15.9,16.8-17.3,13.1c-1.4-3.7-11.3-22.6-18.4-30.3c-7.1-7.8-23.2-21.2-32.1-20.8c-8.8,0.4-8.3,5.4-7.3,8.3
		c0.9,2.8-2.6,3.5-6.6,0.2c-4-3.3-26.4-9.7-38.5-8.5s-39.9,9.9-35.9,12.3c4,2.4,9.7,4-4.2,8.3C534,72.5,520.5,80.8,513.2,86
		c-7.3,5.2-33.3,29.3-30.4,32.1c2.8,2.8,11.9-2.9,10.4,0.3c-1.5,3.2-15.1,19.8-19.1,23.1c-4,3.2-26,19.8-24.1,22.3s3.1,7.2,9.5,6
		c6.4-1.2,2.4,2.2,0,5.1c-2.4,2.9-8.7,16.6-8.3,17.8c0.5,1.2,4,6.4,3.1,7.6S451.4,206.4,451.4,206.4z"/>
	<path class="st3" d="M301.8,727.1c0,0,22.1-51.6,30.7-67.3s33.3-39.9,72.9-55.5c23-9.9,54.2-25.5,52.3-26.6c0,0-9.5-11.2-1.3-14.8
		c8.2-3.5,20.8-7.1,27.8-12.4c7-5.3,31.4-24.8,40.3-26.5c2.6,2,2.4,16.6,2.4,16.6s-3.8,1.2-3.8,6.4c0,5.2,0,18.2,13,25.5
		c13,7.3,32.6,17.9,45.1,33.7c12.5,15.8,25.7,41.1,28.2,45.3c2.4,4.2,13.2-3,17-14c3.9-11,17.6-39.1,31-50.4
		c13.4-11.3,24.3-20,27.6-24c3.3-4,6.7-9.4,5.9-14.2c-0.8-4.7-1.6-24.1,1.1-24.9c2.7-0.8,11.9,1.5,17.1,4.4s16.1,12,23.1,17.2
		c7.1,5.2,20.5,15.6,24.8,16.8s20.1,8,20.8,9.2c0.7,1.2,5,1.2-1.4,5c-6.5,3.8-11.5,5.6,2.4,10.6c13.8,5,31.1,9.2,40.8,14.2
		c9.7,5,36.3,17.5,51.2,52.7c14.9,35.3,21.7,61.9,22.9,69c1.2,7.1-148.6,10.6-193.2,13.8s-173.8,13.7-259.5,12.6
		c-85.8-1.1-124.3-10.2-140.6-18.3C300.5,729.1,301.8,727.1,301.8,727.1z"/>
	<g transform="matrix(0.988994,0,0,1.06351,-5.27543,-38.4627)">
		<path class="st4" d="M489.9,267.4c-4.4,48.5,1.1,94.6,6.6,142.6c1.3,11.3,3.3,26.8,7.7,40.6c3.1,9.5,7.3,18.1,13.1,24.2
			c19.1,19.8,49,24.7,74.8,28.1c1.5,0.2,2.9-0.8,3.1-2.1c0.2-1.4-0.8-2.7-2.3-2.9c-24.7-3.2-53.3-7.6-71.6-26.4
			c-5.4-5.6-9.2-13.5-12-22.2c-4.3-13.5-6.3-28.6-7.5-39.7c-5.5-47.7-10.9-93.5-6.6-141.7c0.1-1.4-1-2.6-2.5-2.7
			C491.3,265,490,266.1,489.9,267.4z"/>
		<path class="st4" d="M591.8,503.3c41.2-1.2,87.7-0.1,122.4-27.3c17.4-13.7,22.8-37.9,28.4-58c14.6-52.7,18-105.7,12.9-159.9
			c-0.1-1.4-1.4-2.4-2.9-2.3c-1.5,0.1-2.6,1.3-2.5,2.7c5,53.6,1.7,106-12.8,158.2c-5.3,19.2-10.1,42.4-26.6,55.5
			c-33.7,26.5-79.1,24.9-119.1,26.1c-1.5,0-2.7,1.2-2.6,2.6C589,502.3,590.3,503.4,591.8,503.3z"/>
		<path class="st4" d="M525.9,483c5.3,23.7,9.8,47.3,11,71.7c0.1,1.4,1.3,2.5,2.8,2.4c1.5-0.1,2.7-1.2,2.6-2.6
			c-1.2-24.7-5.7-48.5-11.1-72.5c-0.3-1.4-1.7-2.2-3.2-1.9C526.5,480.3,525.6,481.7,525.9,483z"/>
		<path class="st4" d="M714.5,470.7c-12.5,26.6-12.1,53.6-13.8,82.2c-0.1,1.4,1.1,2.6,2.6,2.7c1.5,0.1,2.8-1,2.9-2.4
			c1.7-28,1.2-54.4,13.4-80.5c0.6-1.3,0-2.8-1.4-3.3C716.7,468.8,715.1,469.4,714.5,470.7z"/>
		<path class="st4" d="M622.5,647.7c0.2-0.1,0.4-0.2,0.5-0.3c0.7-0.5,1.4-1.1,2.1-1.8c3.1-3,6.2-7.3,7.2-8.6
			c11.5-14.3,18.7-31.4,30.6-45.3c9.9-11.5,23.6-17.7,33.8-28.6c1.6-1.7,3.5-3.8,4.7-6.2c0.9-1.8,1.4-3.8,0.4-5.6
			c-0.7-1.2-0.2-2.8,1.1-3.4c1.3-0.7,3-0.2,3.7,1c1.6,2.7,1.6,5.6,0.6,8.3c-1.2,3.5-4.1,6.8-6.3,9.2c-10.2,10.8-23.8,17-33.7,28.5
			c-11.9,13.8-19.1,31-30.5,45.2c-1.3,1.6-5.7,7.6-9.4,10.7c-1.3,1-2.5,1.7-3.6,2c-1.2,0.4-2.3,0.3-3.3,0c-0.8-0.3-2.1-1.4-3.1-3.2
			c-1.3-2.4-2.7-6.2-3.3-7.2c-4.8-8.4-9.6-17-14.8-25.1c-8.2-12.9-22.6-23.5-35.6-31.4c-8.3-5-18.3-8.7-24.9-16
			c-3.4-3.7-6.4-8.4-7.5-13.1c-1.2-5.2-0.3-10.4,4.6-14.6c1.1-1,2.8-0.9,3.8,0.1c1,1,1,2.6-0.1,3.6c-3.2,2.8-3.8,6.4-3,9.8
			c0.9,3.9,3.5,7.8,6.3,10.9c6.3,6.9,15.9,10.2,23.8,15c13.6,8.3,28.6,19.5,37.2,33.1c5.2,8.2,10.1,16.9,14.9,25.3
			c0.5,0.8,1.4,3.3,2.5,5.6C621.6,646.3,622.1,647.1,622.5,647.7z"/>
		<path class="st4" d="M538.1,525.3c-7.4,2.8-15.3,5-22.1,9.3c-11.9,7.7-21.1,17.2-34.3,23.2c-2.9,1.3-11.8,3.1-16.6,6.2
			c-2.9,1.9-4.5,4.4-4.1,7.2c1,7.5,6,13.9,12.7,19.1c9.6,7.4,22.7,12.1,31.5,14.2c11.6,2.7,23.7,2.8,35.7,3.1
			c11.5,0.4,22.9,1,33.7,5c10.5,3.8,19,10.9,26.6,19.1c7.9,8.5,14.9,18,22.1,26.5c0.9,1.1,2.6,1.3,3.8,0.4c1.2-0.9,1.4-2.4,0.5-3.5
			c-14.7-17.3-28.7-39.1-51-47.2c-11.4-4.2-23.4-4.9-35.5-5.3c-11.6-0.4-23.3-0.4-34.5-3c-8.2-1.9-20.4-6.3-29.4-13.2
			c-5.6-4.3-9.9-9.6-10.8-15.9c-0.1-0.5,0.2-1,0.6-1.4c0.8-0.8,1.9-1.5,3.2-2.1c4.8-2.3,11.6-3.7,14-4.8
			c13.5-6.1,22.9-15.7,35.1-23.6c6.4-4.1,13.9-6.1,21-8.8c1.4-0.5,2.1-2,1.5-3.3C541.1,525.4,539.5,524.8,538.1,525.3z"/>
		<path class="st4" d="M789.8,574.4c-16.2-4.9-29.9-11.2-43.2-22.4c-14-11.8-24.3-18.8-42.7-21.1c-1.5-0.2-2.5-1.5-2.3-2.8
			c0.2-1.4,1.6-2.3,3-2.2c19.6,2.4,30.7,9.8,45.6,22.3c13.8,11.6,28.1,17.7,45.3,22.5c1.1,0.3,1.8,1,1.9,2.2c0,0.2,0.1,0.9-0.5,1.7
			c-0.3,0.3-1.8,1.9-2.1,2.2c-1.3,1.1-2.7,2.2-4.1,3.2c-3.8,2.6-8,4.7-12.2,6.6c-12.7,5.8-25.2,10.7-38.9,13.9
			c-34.2,7.9-66,10.5-93.4,34.2c-6.7,5.8-14.4,12-18.4,20.2c-0.6,1.3-2.2,1.8-3.6,1.3c-1.4-0.6-2-2.1-1.4-3.3
			c4.2-8.8,12.4-15.6,19.7-21.9c28.1-24.3,60.6-27.3,95.8-35.4c13.3-3.1,25.4-7.9,37.8-13.5c3.9-1.8,7.8-3.8,11.4-6.2
			C788.3,575.6,789.1,575,789.8,574.4z"/>
		<path class="st4" d="M464.3,578.7c-28.8,18-63,25-91.6,43.6c-33.4,21.7-53.2,63.6-65.5,100.1c-0.5,1.3,0.3,2.7,1.8,3.2
			c1.4,0.4,2.9-0.3,3.4-1.6c12-35.5,31-76.4,63.5-97.5c28.6-18.6,62.8-25.6,91.5-43.5c1.2-0.8,1.6-2.3,0.7-3.5
			C467.2,578.2,465.5,577.9,464.3,578.7z"/>
		<path class="st4" d="M783.2,587.2c19.3,8.6,41.1,10.5,59.5,21.2c35.5,20.7,57.3,70,63.1,109.3c0.2,1.4,1.6,2.3,3.1,2.2
			c1.5-0.2,2.5-1.5,2.3-2.8c-6-40.6-28.8-91.4-65.6-112.8c-18.6-10.8-40.5-12.8-60.1-21.5c-1.3-0.6-3-0.1-3.6,1.2
			C781.2,585.1,781.8,586.6,783.2,587.2z"/>
		<path class="st4" d="M396.2,613.5c-18.5,40.8-28,79.1-34.5,123.4c-0.2,1.4,0.8,2.6,2.3,2.8c1.5,0.2,2.8-0.8,3-2.2
			c6.3-43.8,15.8-81.7,34.1-122.1c0.6-1.3-0.1-2.8-1.4-3.3C398.4,611.6,396.8,612.2,396.2,613.5z"/>
		<path class="st4" d="M410.2,604.3c-18.4,41.6-33.2,87.6-33.7,133.6c0,1.4,1.2,2.5,2.7,2.5c1.5,0,2.7-1.1,2.7-2.5
			c0.5-45.3,15.2-90.7,33.3-131.7c0.6-1.3-0.1-2.8-1.5-3.3C412.4,602.4,410.8,603.1,410.2,604.3z"/>
		<path class="st4" d="M472.7,589.4c-9.1,48.7-19.9,97.9-16.7,147.8c0.1,1.4,1.4,2.4,2.9,2.4c1.5-0.1,2.6-1.3,2.5-2.7
			c-3.2-49.5,7.6-98.3,16.7-146.6c0.3-1.4-0.7-2.7-2.2-2.9C474.3,587.1,472.9,588,472.7,589.4z"/>
		<path class="st4" d="M483.7,593.9c-12.6,45.9-18.2,96.9-14.6,144.5c0.1,1.4,1.4,2.4,2.9,2.3c1.5-0.1,2.6-1.3,2.5-2.7
			c-3.6-47.1,1.9-97.5,14.4-142.9c0.4-1.3-0.5-2.7-2-3.1C485.5,591.8,484,592.6,483.7,593.9z"/>
		<path class="st4" d="M548.7,609.1c-13.2,41.7-11.3,90.1-9.7,133.3c0,1.4,1.3,2.5,2.8,2.4c1.5,0,2.7-1.2,2.6-2.6
			c-1.6-42.7-3.6-90.5,9.4-131.7c0.4-1.3-0.4-2.7-1.8-3.1C550.6,607,549.1,607.7,548.7,609.1z"/>
		<path class="st4" d="M557.3,606.7c-4.3,44.2-10.5,89.6-6.1,134c0.1,1.4,1.5,2.4,2.9,2.3c1.5-0.1,2.6-1.4,2.5-2.7
			c-4.4-44.1,1.8-89.2,6.1-133c0.1-1.4-1-2.6-2.5-2.7C558.7,604.2,557.4,605.3,557.3,606.7z"/>
		<path class="st4" d="M625.3,650.2c-2.8,24.1-4.7,51.1-2.6,75.3c0.1,1.4,1.4,2.4,2.9,2.3c1.5-0.1,2.6-1.3,2.5-2.7
			c-2-23.9-0.1-50.5,2.6-74.4c0.2-1.4-0.9-2.6-2.4-2.8C626.8,647.8,625.5,648.8,625.3,650.2z"/>
		<path class="st4" d="M638.5,635.6c-5.4,30.5-4.9,61.7-5,92.5c0,1.4,1.2,2.5,2.7,2.5c1.5,0,2.7-1.1,2.7-2.5
			c0.1-30.6-0.4-61.5,4.9-91.7c0.2-1.4-0.8-2.7-2.2-2.9C640.1,633.3,638.7,634.2,638.5,635.6z"/>
		<path class="st4" d="M704.8,606.2c1.8,40.1,7.6,80.1,8.5,120.3c0,1.4,1.3,2.5,2.8,2.5c1.5,0,2.7-1.2,2.7-2.6
			c-0.8-40.2-6.7-80.3-8.5-120.4c-0.1-1.4-1.3-2.5-2.8-2.4C705.9,603.7,704.7,604.8,704.8,606.2z"/>
		<path class="st4" d="M716,605.1c2.6,40,3.5,81,8.6,120.8c0.2,1.4,1.5,2.4,3,2.2c1.5-0.2,2.6-1.4,2.4-2.8
			c-5.1-39.7-6-80.6-8.6-120.5c-0.1-1.4-1.4-2.4-2.9-2.4C717.1,602.5,715.9,603.7,716,605.1z"/>
		<path class="st4" d="M781.4,584.8c3.1,14.6,10.6,28,14.1,42.6c6.7,27.3,9.9,55.6,13.3,83.6c0.2,1.4,1.5,2.4,3,2.2
			c1.5-0.2,2.6-1.4,2.4-2.8c-3.3-28.1-6.6-56.6-13.4-84.1c-3.5-14.5-11-27.9-14.1-42.4c-0.3-1.4-1.7-2.3-3.2-2
			C782.1,582.1,781.1,583.4,781.4,584.8z"/>
		<path class="st4" d="M797.7,591.2c8.5,40.1,18.8,81.2,20.5,122.4c0.1,1.4,1.3,2.5,2.8,2.4c1.5-0.1,2.7-1.2,2.6-2.6
			c-1.7-41.4-12-82.8-20.6-123.1c-0.3-1.4-1.7-2.3-3.2-2C798.4,588.5,797.4,589.8,797.7,591.2z"/>
		<path class="st4" d="M345.9,657.4c51.2,13.1,103.6,9.6,155.7,8.7c41.4-0.7,82.3,6.4,123.8,3c38-3.1,73.7-15.6,111.2-20.3
			c26.1-3.3,53.7-7.1,80-7.1c19.9,0,38.6,3.8,58.2-0.6c1.5-0.3,2.4-1.7,2-3c-0.4-1.4-1.8-2.2-3.3-1.9c-19.2,4.3-37.4,0.5-56.9,0.5
			c-26.6,0-54.4,3.8-80.8,7.1c-37.5,4.7-73.1,17.2-111,20.3c-41.4,3.4-82.1-3.7-123.4-3c-51.6,0.9-103.5,4.5-154.2-8.5
			c-1.4-0.4-2.9,0.4-3.3,1.8C343.6,655.7,344.4,657.1,345.9,657.4z"/>
		<path class="st4" d="M315.6,710.5c44.5,7.8,89.8,14.6,135,16.3c93.8,3.4,187.2-7.2,280.8-8.8c39-0.7,78.1,1.9,117.1-1.7
			c18.4-1.7,38.9-2.3,55.7-11.2c1.3-0.7,1.8-2.2,1-3.4c-0.7-1.2-2.4-1.6-3.7-0.9c-16.2,8.5-35.9,8.9-53.6,10.6
			c-38.8,3.6-77.8,1-116.7,1.7c-93.5,1.7-186.8,12.3-280.5,8.8c-45-1.7-90-8.5-134.3-16.2c-1.5-0.3-2.9,0.6-3.2,2
			C313.2,708.9,314.1,710.3,315.6,710.5z"/>
		<path class="st4" d="M413.2,608.6c30,1,59.4,6.2,89.5,6.2c23.9,0,49.3-5.8,73.1-2c1.5,0.2,2.9-0.7,3.1-2.1
			c0.3-1.4-0.7-2.7-2.2-2.9c-24.1-3.8-49.9,1.9-74,1.9c-30.1,0-59.4-5.2-89.3-6.2c-1.5-0.1-2.8,1-2.8,2.4
			C410.5,607.3,411.7,608.5,413.2,608.6z"/>
		<path class="st4" d="M664.6,622.5c21.1-9,47.8-6.9,70.3-9.7c25.7-3.2,50.5-12.4,76.1-15.5c1.5-0.2,2.5-1.4,2.3-2.8
			c-0.2-1.4-1.6-2.4-3-2.2c-25.6,3-50.4,12.3-76.1,15.5c-23,2.9-50.3,0.9-71.9,10.1c-1.4,0.6-2,2.1-1.3,3.3
			C661.6,622.5,663.2,623.1,664.6,622.5z"/>
		<path class="st4" d="M606.4,331.1c-2.2,3.7-4.2,7.5-6.1,11.3c-1.7,3.4-3.4,6.9-5,10.4c-4.1,9.3-9.5,24.2-8,35.8
			c1.1,8.5,5.6,15.2,16.1,17.4c3.1,0.7,6.4,1.1,9.6,0.9c4.6-0.3,9.3-0.2,13.8-1.3c1.5-0.3,2.3-1.7,2-3.1c-0.4-1.3-1.8-2.2-3.3-1.8
			c-4.2,1-8.6,0.9-12.9,1.2c-2.7,0.2-5.5-0.3-8.1-0.8c-7.8-1.6-11.1-6.8-11.9-13.1c-1.3-10.7,3.8-24.6,7.6-33.2
			c1.5-3.4,3.2-6.8,4.9-10.2c1.9-3.7,3.7-7.4,5.9-10.9c0.7-1.2,0.3-2.8-1-3.4C608.8,329.5,607.1,329.9,606.4,331.1z"/>
		<path class="st4" d="M594.3,451.6c12.4,7.8,26.5,6.5,40,2.5c1.4-0.4,2.2-1.8,1.8-3.2c-0.5-1.3-2-2.1-3.4-1.6
			c-11.9,3.5-24.3,5-35.3-1.9c-1.2-0.8-2.9-0.5-3.8,0.7C592.8,449.3,593.1,450.9,594.3,451.6z"/>
		<path class="st4" d="M493.9,389c-0.6,2.3-1.7,4.6-3.2,6.3c-2,2.2-4.7,3.4-8.1,2.8c-2.5-0.4-4.5-1.9-6.1-4c-1.9-2.4-3.3-5.7-4.4-8
			c-5.2-11.1-9.3-26.6-7.4-38.9c0.5-3.1,1.9-8.9,4.7-12.5c2.4-3.2,5.6-4.9,9.7-3.7c1.8,0.5,3.5,1.8,5,3.7c2.8,3.5,4.9,8.9,5.8,11.7
			c4.8,14.8,8.7,31.9,9.9,47.5c0.3,4.1,0.1,10.8-2.4,15.3c-2,3.7-5.3,6-10.5,5.5c-4.5-0.5-8.7-2.9-12.3-6.4
			c-4.9-4.8-8.8-11.4-10.9-16.4c-9-21-17.9-41.4-9.1-64.2c1.4-3.5,3.1-6.9,5.4-9.9c1.5-1.9,3-3.8,5-5.2c3.7-2.5,7.1-3.5,10.2-3.4
			c4.7,0.1,8.7,2.5,12,6.1c3.3,3.6,5.8,8.3,7.3,12.5c0.5,1.3-0.3,2.8-1.7,3.2c-1.4,0.5-3-0.3-3.4-1.6c-1.3-3.6-3.5-7.8-6.3-10.9
			c-2.2-2.4-4.9-4.3-8-4.3c-2.1,0-4.4,0.7-6.8,2.4c-1.5,1.1-2.7,2.6-3.8,4.1c-2,2.6-3.5,5.6-4.7,8.7c-8.3,21.6,0.5,40.8,9,60.6
			c1.9,4.5,5.3,10.5,9.8,14.8c2.7,2.6,5.7,4.5,9,4.9c3.3,0.3,4.9-1.9,5.9-4.6c1.2-3.6,1.3-8,1-10.8
			C494.2,392.5,494.1,390.7,493.9,389z M487.2,356.1c-0.8-2.8-1.6-5.6-2.5-8.3c-0.7-2.1-2.1-5.9-4-8.9c-1-1.5-2-2.8-3.2-3.2
			c-1.6-0.5-2.7,0.5-3.7,1.8c-2.2,3-3.3,7.8-3.7,10.4c-1.8,11.5,2.1,25.8,7,36.2c0.8,1.7,1.7,4,3,6c0.9,1.4,2,2.7,3.5,3
			c1.7,0.3,2.8-0.7,3.7-2c1.2-1.9,1.8-4.4,2-6.4c0.6-7,0.4-14.2-2.7-20.7c-0.5-1.1-1.3-2.5-2.3-3.6c-0.3-0.3-0.5-0.6-0.8-0.9
			c-0.1,0.2-0.2,0.4-0.2,0.5c-0.2,0.7-0.4,1.4-0.5,1.9c-0.4,3.2,0.5,6.2,2,9c0.6,1.3,0.1,2.8-1.3,3.4c-1.3,0.6-3,0.1-3.6-1.2
			c-1.9-3.7-3.1-7.7-2.5-11.9c0.2-1.3,0.8-3.7,1.9-5.2c0.8-1,1.8-1.7,3-1.9c0.8-0.2,1.8-0.1,2.8,0.3
			C485.7,354.9,486.5,355.4,487.2,356.1z"/>
		<path class="st4" d="M486,315.7c-0.4-6.4,0.3-12.9-0.4-19.3c-0.1-1.4-1.5-2.4-3-2.3c-1.5,0.1-2.6,1.4-2.4,2.8
			c0.7,6.3,0,12.7,0.3,19.1c0.1,1.4,1.4,2.5,2.9,2.4C484.9,318.3,486.1,317.1,486,315.7z"/>
		<path class="st4" d="M477.4,277.1c0.2,1.7,0.3,3.4,0.5,5.1c0.1,1.4,1.4,2.5,2.9,2.4c1.5-0.1,2.6-1.3,2.5-2.7
			c-0.1-1.7-0.3-3.5-0.5-5.2c-0.1-1.4-1.5-2.4-2.9-2.3C478.3,274.5,477.2,275.7,477.4,277.1z"/>
		<path class="st4" d="M467.1,260.1c0.1,0.4,0.3,0.7,0.4,1.1c0.5,1.3,2.1,2,3.5,1.5c1.4-0.5,2.1-1.9,1.6-3.2c-0.1-0.3-0.3-0.7-0.4-1
			c-0.5-1.3-2-2-3.5-1.6C467.4,257.3,466.6,258.7,467.1,260.1z"/>
		<path class="st4" d="M474.3,246.1c-0.1,1.3-0.2,2.5-0.2,3.8c0,1.4,1.2,2.5,2.7,2.5c1.5,0,2.7-1.1,2.7-2.5c0-1.1,0.1-2.2,0.2-3.3
			c0.2-1.4-0.9-2.6-2.4-2.8C475.8,243.7,474.4,244.7,474.3,246.1z"/>
		<path class="st4" d="M482.4,241.5c-0.3,1.6-0.6,3.2-0.8,4.8c-0.2,1.4,0.9,2.6,2.3,2.8c1.5,0.2,2.8-0.8,3-2.2
			c0.2-1.5,0.4-3.1,0.7-4.6c0.3-1.4-0.7-2.7-2.2-2.9C484.1,239.2,482.7,240.1,482.4,241.5z"/>
		<path class="st4" d="M481.8,257.4c-0.1,1.2-0.1,1.1-0.1,2.3c0,1.4,1.2,2.5,2.6,2.6c1.5,0,2.7-1.1,2.8-2.5c0-1.1,0-1,0.1-2.2
			c0.1-1.4-1.1-2.6-2.6-2.6C483.2,255,481.9,256,481.8,257.4z"/>
		<path class="st4" d="M761.9,376.2c1.7-2.2,2.7-5.4,3.8-7.6c4.9-10,7.6-21.1,8.4-32.3c0.2-2.3,0.6-7.1-0.5-10.7
			c-0.4-1.4-0.9-2.7-2.4-2.7c-0.4,0-0.8,0.2-1.1,0.5c-0.7,0.5-1.4,1.2-2,1.9c-2.4,2.8-4.3,6.7-5.2,8.4c-8.1,14.7-9.6,33.6-10.6,50
			c-0.2,2.8-0.7,8.9,0.7,13c0.6,1.7,1.4,3.1,3.4,2.9c2.8-0.3,5.2-2.3,7.3-4.8c3.7-4.4,6.5-10.3,8.2-14.2
			c8.3-18.6,13.5-37.9,16.2-58.1c0.9-6.6,3.4-15.9,0.8-22.3c-1-2.6-3.3-3.4-5.7-3.5c-3,0-6.3,1.1-8.6,2.4
			c-11.4,6.4-15,17.9-17.8,29.8c-0.3,1.4-1.8,2.2-3.2,1.9s-2.4-1.7-2.1-3c3.2-13.2,7.6-25.9,20.3-33c3.1-1.7,7.5-3.2,11.4-3.2
			c4.6,0,8.7,1.8,10.7,6.7c2.9,7.1,0.5,17.3-0.5,24.7c-2.8,20.6-8.2,40.4-16.6,59.4c-1.9,4.2-4.9,10.6-9,15.4
			c-3.1,3.6-6.7,6.2-10.8,6.7c-5,0.6-7.9-2.1-9.3-6.4c-1.6-4.7-1.1-11.6-0.9-14.8c1-17.2,2.7-36.8,11.2-52.1c1.3-2.3,4-7.7,7.3-10.8
			c1.9-1.8,4.1-2.8,6.2-2.7c3.9,0.1,6.3,2.7,7.4,6.4c1.2,4.1,0.9,9.7,0.7,12.4c-0.8,11.7-3.7,23.5-8.9,34c-1.5,3.1-3.2,7.5-5.7,10
			c-0.7,0.7-1.5,1-2.2,1.1c-1,0.2-2.1,0-3.1-0.6c-1.4-0.8-2.7-2.6-3.2-3.7c-2.2-4.8-1.6-10.8-0.4-15.8c1-4.1,2.6-8.1,4.4-12
			c0.6-1.3,2.2-1.9,3.5-1.4c1.4,0.5,2,2,1.5,3.3c-1.6,3.6-3.1,7.3-4.1,11.2c-1,3.9-1.7,8.8,0.1,12.6
			C761.4,375.7,761.6,376,761.9,376.2z"/>
		<g>
			<path class="st4" d="M608.4,304.6c0.6,0.4,1.1,1,1.2,1.8c1.4,11.4-3.7,23.6-7.5,34.1c-1.9,5.3-5.4,11.6-10.7,14.3
				c-9.9,5.1-24.9,4.2-35.6,4.1c-4.7-0.1-10.4,0.7-15.7,0.3c-4-0.3-7.8-1.2-10.9-3.2c-3.9-2.6-5.5-7.8-6.5-12.1
				c-1.8-7.7-2.1-16.6-5.2-23.8c-0.3-0.8-0.6-1.2-1-1.5c-0.4-0.3-0.9-0.3-1.5-0.4c-0.9-0.2-1.9-0.4-3.1-0.7
				c-0.7-0.2-2.6-0.8-3.7-1.6c-1.1-0.8-1.6-1.7-1.7-2.7c-0.6-6,0.7-10.1,3.2-12.9c3.6-4.1,9.9-5.8,17.6-6.6
				c13.2-1.4,26.2-1.3,39.4-1.8c6.1-0.2,12.1,0.2,18.1,0.8c4.1,0.5,8.5,0.8,12.4,2c4.4,1.3,8.3,3.7,10.7,8.2
				C608.5,303.4,608.6,304,608.4,304.6z M604.3,306.1c-0.4-0.2-0.7-0.5-0.9-0.9c-1.7-3.1-4.5-4.8-7.6-5.7c-3.6-1.1-7.6-1.4-11.3-1.8
				c-5.7-0.6-11.5-1-17.3-0.8c-13.1,0.4-26,0.3-39,1.7c-6.1,0.7-11.2,1.5-14.1,4.8c-1.7,1.9-2.4,4.7-2.1,8.5
				c0.5,0.2,1.6,0.6,1.9,0.7c1.3,0.4,2.4,0.5,3.3,0.8c2.2,0.5,4,1.4,5.4,4.8c3.2,7.5,3.6,16.7,5.4,24.6c0.4,1.7,0.8,3.7,1.6,5.4
				c0.6,1.4,1.4,2.8,2.7,3.6c3,1.9,6.8,2.4,10.7,2.4c4.5,0,9.1-0.5,12.9-0.4c9.8,0.1,23.7,1.2,32.9-3.5c4.2-2.1,6.6-7.3,8.1-11.5
				c3.5-9.8,8.6-21.2,7.2-31.9C604.2,306.7,604.2,306.4,604.3,306.1z"/>
			<path class="st4" d="M570.6,330.4c-0.1,0.8-0.3,1.6-0.7,2.4c-0.8,2-2.4,3.4-4.2,3.9c-1.4,0.3-2.9,0.2-4.4-0.8
				c-2.1-1.4-3.3-3.6-3.7-6.2c-0.5-3.2,0.3-7,1.5-9.4c0.6-1.3,1.8-2.9,3.1-3.8c1.3-0.9,2.8-1.4,4.4-1.2c1.1,0.1,2.1,0.7,2.8,1.8
				c0.7,1.1,1.2,2.8,1.4,3.6C571.5,323.8,571.6,327.3,570.6,330.4z"/>
			<path class="st4" d="M529.3,317.3c-1.1,11.4,2.5,23.1,9,32.3c0.8,1.2,2.5,1.5,3.8,0.7c1.3-0.8,1.6-2.3,0.8-3.5
				c-5.9-8.3-9.1-18.8-8.2-29.1c0.1-1.4-1-2.6-2.5-2.7C530.8,314.9,529.4,315.9,529.3,317.3z"/>
			<path class="st4" d="M538.7,326.3c0.9,5.2,2.5,11.2,6,15.3c0.9,1.1,2.6,1.3,3.8,0.4c1.2-0.9,1.4-2.5,0.4-3.5
				c-3-3.5-4.1-8.5-4.9-12.9c-0.2-1.4-1.6-2.3-3.1-2.1C539.4,323.6,538.4,324.9,538.7,326.3z"/>
		</g>
		<g transform="matrix(-1,0,0,1,537.444,0)">
			<path class="st4" d="M-102.7,304.6c0.1-0.6,0.1-1.2-0.2-1.7c-2.5-4.5-6.3-6.9-10.7-8.2c-3.9-1.2-8.3-1.5-12.4-2
				c-6-0.7-12-1-18.1-0.8c-13.2,0.4-26.3,0.3-39.4,1.8c-7.8,0.8-14.1,2.5-17.6,6.6c-2.5,2.9-3.8,6.9-3.2,12.9
				c0.1,0.9,0.7,1.9,1.7,2.7c1.1,0.8,2.9,1.3,3.7,1.6c1.1,0.4,2.1,0.6,3.1,0.7c0.5,0.1,1,0.2,1.5,0.4c0.4,0.3,0.7,0.7,1,1.5
				c3.1,7.2,3.4,16.1,5.2,23.8c1,4.3,2.5,9.5,6.5,12.1c3.1,2,6.9,2.9,10.9,3.2c5.3,0.4,11-0.4,15.7-0.3c10.6,0.1,25.6,1,35.6-4.1
				c5.3-2.7,8.8-9,10.7-14.3c3.8-10.5,8.9-22.7,7.5-34.1C-101.6,305.6-102.1,305-102.7,304.6z M-199.1,311.9
				c-0.3-3.9,0.4-6.6,2.1-8.5c2.8-3.2,8-4.1,14.1-4.8c13-1.4,25.9-1.3,39-1.7c5.8-0.2,11.5,0.2,17.3,0.8c3.7,0.4,7.7,0.7,11.3,1.8
				c3.1,1,5.9,2.6,7.6,5.7c0.2,0.4,0.5,0.7,0.9,0.9c-0.1,0.3-0.1,0.5,0,0.8c1.3,10.7-3.7,22.1-7.2,31.9c-1.5,4.2-4,9.4-8.1,11.5
				c-9.2,4.7-23.1,3.6-32.9,3.5c-3.9,0-8.4,0.5-12.9,0.4c-3.9,0-7.7-0.4-10.7-2.4c-1.3-0.8-2.1-2.2-2.7-3.6
				c-0.8-1.8-1.2-3.7-1.6-5.4c-1.8-7.9-2.2-17.1-5.4-24.6c-1.5-3.4-3.2-4.3-5.4-4.8c-0.9-0.2-2-0.3-3.3-0.8
				C-197.6,312.5-198.6,312.1-199.1,311.9z"/>
			<path class="st4" d="M-140.6,330.4c1.1-3.1,0.9-6.6,0.1-9.8c-0.2-0.8-0.6-2.5-1.4-3.6c-0.7-1.1-1.7-1.7-2.8-1.8
				c-1.6-0.2-3.1,0.2-4.4,1.2c-1.4,1-2.5,2.6-3.1,3.8c-1.3,2.5-2,6.2-1.5,9.4c0.4,2.5,1.6,4.7,3.7,6.2c1.5,1,3,1.2,4.4,0.8
				c1.8-0.4,3.4-1.8,4.2-3.9C-140.9,332.1-140.7,331.3-140.6,330.4z"/>
			<path class="st4" d="M-176.5,317.7c-1,10.3,2.2,20.8,8.2,29.1c0.8,1.2,0.5,2.7-0.8,3.5c-1.2,0.8-2.9,0.4-3.8-0.7
				c-6.6-9.3-10.1-20.9-9-32.3c0.1-1.4,1.4-2.4,2.9-2.3C-177.4,315.1-176.3,316.3-176.5,317.7z"/>
			<path class="st4" d="M-167.1,325.5c0.8,4.4,1.9,9.5,4.9,12.9c0.9,1.1,0.7,2.7-0.4,3.5c-1.2,0.9-2.9,0.7-3.8-0.4
				c-3.5-4.1-5.1-10.1-6-15.3c-0.2-1.4,0.8-2.7,2.2-2.9C-168.8,323.2-167.4,324.1-167.1,325.5z"/>
		</g>
		<path class="st4" d="M584.3,283.7c0.2,0.3,0.3,0.6,0.4,1c0.4,2.2-0.1,3.7-1,4.7c-0.9,1.1-2.3,1.8-4,2c-2.9,0.4-7.3-1-9.2-1.2
			c-1.3-0.1-2.7-0.1-4-0.2c-1.6,0-3.2-0.1-4.8-0.1c-2.6,0-5.5,0-7.8-1.5c-1.7-1-2.4-2.2-2.6-3.3c-0.3-1.6,0.4-3.3,2.1-4.8
			c2.8-2.5,8.4-4.5,10-4.6c2.9-0.2,5.7,0.1,8.5,0.6c4.3,0.8,7.5,3.4,11.1,5.6C583.7,282.3,584.2,283,584.3,283.7z M579.3,285.7
			c-2.7-1.8-5.2-3.8-8.5-4.4c-2.4-0.5-4.7-0.7-7.1-0.5c-0.9,0.1-3.6,1.1-5.6,2.4c-0.5,0.3-1,0.8-1.3,1.1c1.4,0.9,3.3,0.6,4.9,0.6
			c1.6,0,3.2,0.1,4.9,0.1c1.5,0,2.9,0.1,4.4,0.2c1.4,0.1,4.5,1.1,7,1.2c0.4,0,0.7,0,1,0c0.1,0,0.2,0,0.3-0.1
			C579.4,286.1,579.4,285.9,579.3,285.7z"/>
		<path class="st4" d="M671.3,286.2c5.6-7.7,15.1-12.1,24.5-10c1.6,0.4,4.4,1.1,6.4,2.5c1.9,1.2,3.1,2.9,3.1,5c0,2-1,3.7-2.6,5
			c-1.8,1.4-4.3,2.3-5.9,2.8c-3,0.9-5.9,0.9-8.7,0.7c-2.4-0.2-4.8-0.5-7.4-0.4c-1.6,0.1-2.9,0.4-4.3,0.4c-1.9,0.1-3.7-0.2-5.7-1.6
			c-1.2-0.8-1.5-2.4-0.7-3.5C670.4,286.7,670.8,286.4,671.3,286.2z M677.4,287c1-0.1,2-0.3,3.1-0.3c2.8-0.1,5.4,0.2,8,0.4
			c2.2,0.1,4.4,0.2,6.7-0.5c0.9-0.3,2.3-0.7,3.5-1.4c0.6-0.4,1.3-0.7,1.2-1.4c0-0.3-0.2-0.5-0.4-0.6c-0.3-0.3-0.7-0.5-1.1-0.7
			c-1.3-0.7-2.9-1.1-3.9-1.3C688.1,279.7,681.8,282.3,677.4,287z"/>
		<path class="st4" d="M574.9,174.2c-0.2,0-0.3,0.1-0.5,0.2c-0.4,0.2-0.7,0.5-1.1,0.8c-1.1,1-2.1,2.1-2.8,3
			c-5.2,6.2-10.4,12.4-16.6,17.7c-4.4,3.9-9.3,7.2-14,10.8c-18.2,14-43,30.6-44.6,61.6c-0.1,1.4-1.3,2.5-2.8,2.4
			c-1.5-0.1-2.7-1.2-2.6-2.6c1.6-32.8,27.4-50.6,46.6-65.3c4.6-3.5,9.3-6.8,13.7-10.6c5.9-5.1,11-11.1,16-17.1
			c1-1.2,2.6-3.1,4.3-4.3c1.6-1.2,3.4-1.8,5.2-1.6c1.2,0.1,2.8,1,4.2,2.7c2,2.3,4.2,6.2,5,7.2c4.4,5.1,9.4,9.3,15,13
			c1.7,1.1,4.1,2.1,6.2,3.3c1.7,1,3.3,2,4.4,3.2c0.8,0.9,0.7,1.6,0.7,2.1c-0.1,0.9-0.6,1.7-1.8,2.1c-0.3,0.1-0.6,0.2-1.1,0.2
			c-0.3,0-1.2-0.2-1.6-0.3c-1.1-0.2-2.2-0.4-3.3-0.5c-0.9-0.1-3.6-0.3-5.6,0.1l-0.1,0c0.3,0.2,0.5,0.4,0.8,0.6
			c1.6,1.1,3.6,2.2,3.9,2.4c8.1,4.6,15.6,7.4,24.9,8.5c27.5,3.2,45.6-17.4,57.7-39c0.7-1.2,2.3-1.7,3.7-1.1c1.3,0.6,1.8,2.2,1.2,3.4
			c-13.1,23.4-33.3,45.1-63.2,41.7c-10.1-1.2-18.3-4.2-27-9.2c-0.7-0.4-5.2-3-6.9-4.7c-1.1-1.1-1.3-2.2-1.3-3
			c0.2-1.9,1.5-3.3,3.5-4.1c0.9-0.4,2-0.6,3.1-0.7c-0.5-0.3-0.9-0.5-1.4-0.8c-6-4-11.3-8.5-16.1-13.9c-0.7-0.8-2.5-3.9-4.3-6.2
			C576,175.4,575.2,174.6,574.9,174.2z"/>
		<path class="st4" d="M687.2,173.8c-0.5,6.4,2.8,12.1,7.8,17c6.8,6.6,16.7,11.7,22.9,15.6c17.6,11,32,27.9,32.4,56.3
			c0,1.4,1.3,2.5,2.8,2.5c1.5,0,2.7-1.2,2.7-2.6c-0.5-30.5-15.9-48.6-34.8-60.5c-6-3.7-15.5-8.6-22-14.9c-3.9-3.8-6.7-8.1-6.3-13.1
			c0.1-1.4-1-2.6-2.5-2.7C688.6,171.3,687.3,172.4,687.2,173.8z"/>
		<path class="st4" d="M759.2,263c0,4.1,0.2,8.1,0.3,12.2c0,1.4,1.2,2.5,2.7,2.5c1.5,0,2.7-1.2,2.7-2.5c0-4.1-0.2-8.1-0.3-12.2
			c0-1.4-1.2-2.5-2.7-2.5C760.4,260.5,759.1,261.6,759.2,263z"/>
		<path class="st4" d="M760,286.3c-0.1,1.7,0,3.3,0.2,5c0.1,1.4,1.4,2.4,2.9,2.4c1.5-0.1,2.6-1.3,2.5-2.7c-0.1-1.5-0.2-3-0.1-4.5
			c0.1-1.4-1.1-2.6-2.6-2.6C761.3,283.9,760,284.9,760,286.3z"/>
		<path class="st4" d="M767,283.5c0,0.7-0.1,1.3-0.1,2c0,1.4,1.2,2.5,2.7,2.5c1.5,0,2.7-1.1,2.7-2.5c0-0.6,0-1.2,0.1-1.8
			c0.1-1.4-1.1-2.6-2.6-2.6C768.4,281,767.1,282.1,767,283.5z"/>
		<path class="st4" d="M760.7,299.2c-0.2,1.6-0.3,3.3-0.5,4.9c-0.2,1.4,0.9,2.6,2.4,2.8c1.5,0.2,2.8-0.8,3-2.2
			c0.2-1.7,0.4-3.4,0.6-5.1c0.1-1.4-1-2.6-2.5-2.7C762.1,296.8,760.8,297.8,760.7,299.2z"/>
		<path class="st4" d="M770.1,256.9c-0.4,2.9-0.4,5.9-0.5,8.8c-0.1,1.4,1.1,2.6,2.6,2.6c1.5,0.1,2.8-1,2.8-2.4
			c0.1-2.7,0.1-5.6,0.5-8.3c0.2-1.4-0.8-2.7-2.3-2.8C771.7,254.5,770.3,255.5,770.1,256.9z"/>
		<path class="st4" d="M776.4,239.5c-0.4,1.3-0.6,2.8-0.8,4.2c-0.2,1.4,0.9,2.6,2.4,2.8c1.5,0.2,2.8-0.8,3-2.2
			c0.2-1.1,0.3-2.3,0.6-3.4c0.4-1.3-0.4-2.7-1.8-3.1C778.3,237.4,776.8,238.2,776.4,239.5z"/>
		<path class="st4" d="M763.6,230.9c0.1,2.6,0.3,5.1,0.4,7.6c0.1,1.4,1.3,2.5,2.8,2.4c1.5-0.1,2.7-1.2,2.6-2.6
			c-0.1-2.5-0.4-5-0.4-7.5c0-1.4-1.3-2.5-2.8-2.5C764.8,228.3,763.6,229.5,763.6,230.9z"/>
		<path class="st4" d="M753.9,233.1c0.2,1,0.4,2,0.7,3c0.4,1.3,1.8,2.2,3.3,1.8s2.3-1.7,2-3.1c-0.2-0.8-0.5-1.6-0.6-2.5
			c-0.2-1.4-1.6-2.3-3.1-2.1C754.7,230.4,753.7,231.7,753.9,233.1z"/>
		<path class="st4" d="M759.5,205.8c0.9,1,1.7,2,2.4,3.1c0.8,1.2,2.5,1.5,3.8,0.7c1.3-0.8,1.6-2.3,0.8-3.5c-0.9-1.2-1.8-2.4-2.8-3.6
			c-1-1.1-2.7-1.2-3.8-0.3C758.7,203.2,758.5,204.8,759.5,205.8z"/>
		<path class="st4" d="M759.5,251.7c0.1,0.7,0.3,1.4,0.4,2c0.3,1.4,1.7,2.3,3.1,2c1.5-0.2,2.5-1.6,2.2-2.9c-0.1-0.7-0.3-1.3-0.4-2
			c-0.2-1.4-1.6-2.3-3.1-2.1C760.3,249,759.2,250.3,759.5,251.7z"/>
		<path class="st4" d="M615.9,677.3c-1.9,1.6-4.4,2.5-7.4,2.3c-6.4-0.5-9.3-6.2-8.7-12.2c0.3-3.3,1.7-6.5,3.8-8.7
			c1.6-1.7,3.7-2.8,6.1-3c6.1-0.5,10.4,4.3,11.3,9.9C621.8,670.3,620.1,675.1,615.9,677.3z"/>
		<path class="st4" d="M611.8,711.9c0.8,1.1,1.4,2.4,1.8,3.9c0.8,3,0.5,6.6-0.8,9.5c-1.7,3.8-5,6.2-9.4,5.6c-5.7-0.8-8.5-6.4-8-12
			c0.5-5.7,4.2-10.8,9.6-10.7C607.9,708.1,610.3,709.7,611.8,711.9z M607,714.7c-0.1,0.1-0.1,0.1-0.2,0.2l-0.1,0.1
			c0.1,0,0.3,0,0.4,0c0.2,0,0.3,0,0.5,0.1l0,0l0,0c-0.1-0.2-0.3-0.3-0.4-0.5L607,714.7z"/>
		<path class="st4" d="M583.3,176.6c-4.3-6.2-10.4-12.1-12-19.7c-0.4-2-0.5-4.4-0.3-6.4c0.4-4.5,2-7.5,4.4-9.2
			c3.8-2.6,9.3-2.2,14.8,0c1.4,0.5,3-0.1,3.6-1.3c0.6-1.3-0.1-2.8-1.4-3.3c-7.5-3-15.1-3-20.2,0.6c-3.5,2.4-6,6.5-6.6,12.8
			c-0.2,2.5-0.1,5.3,0.4,7.8c1.8,8.2,8.1,14.8,12.8,21.5c0.8,1.2,2.5,1.5,3.8,0.7C583.8,179.4,584.2,177.8,583.3,176.6z"/>
		<path class="st4" d="M599,130.2c11.4,4.5,23,5.5,33.8-1.2c1.2-0.8,1.6-2.3,0.7-3.5c-0.8-1.2-2.5-1.5-3.8-0.7
			c-9.1,5.7-19,4.6-28.7,0.8c-1.4-0.5-3,0-3.6,1.3C597,128.2,597.6,129.7,599,130.2z"/>
		<path class="st4" d="M633.4,143.7c1.7-0.4,3.4-1.1,5-1.8c1.4-0.6,1.9-2.1,1.3-3.4c-0.6-1.3-2.3-1.8-3.6-1.2
			c-1.3,0.5-2.6,1.2-3.9,1.5c-1.5,0.3-2.4,1.7-2,3C630.5,143.2,631.9,144,633.4,143.7z"/>
		<path class="st4" d="M476,312.5c2.5-18-3.3-33.2-8.6-50c-3.7-11.8-6.6-25.6-0.2-36.9c0.7-1.2,0.2-2.8-1.1-3.4
			c-1.3-0.7-3-0.2-3.7,1c-7.1,12.5-4.3,27.7-0.2,40.7c5,16.1,10.8,30.7,8.4,48c-0.2,1.4,0.9,2.6,2.3,2.8
			C474.4,314.9,475.8,313.9,476,312.5z"/>
		<path class="st4" d="M705.9,129.3c-5.9-18.6-19.2-35.4-35.9-45.5c-3.3-2-10.6-5.2-16.4-5.8c-3.7-0.4-6.8,0.3-8.7,2.2
			c-1.8,1.8-2.7,4.9-1.1,10.1c0.6,2,1.5,3.5,2.5,5.2c0.8,1.2,2.4,1.6,3.7,0.9c1.3-0.7,1.7-2.3,0.9-3.5c-0.9-1.3-1.5-2.5-2-4.1
			c-0.5-1.6-0.7-2.8-0.6-3.9c0-0.6,0.2-1,0.5-1.4c0.9-0.9,2.4-0.8,4.1-0.6c5,0.5,11.2,3.3,14.1,5.1c15.7,9.5,28.1,25.3,33.6,42.7
			c0.4,1.3,1.9,2.1,3.4,1.7C705.5,132,706.3,130.6,705.9,129.3z"/>
		<path class="st4" d="M565.8,95.7c-1.4-0.6-2.5-1.1-3.2-1.7c-0.9-0.7-1.3-1.5-1.4-2.2c-0.1-0.8,0-1.6,0.7-2.4
			c2.1-2.5,5.3-4.4,8.9-5.7c4.8-1.8,10.3-2.7,14.2-3.6c25.3-5.5,47.7-2.2,67.1,15.1c1.1,1,1.1,2.6,0.1,3.6c-1,1-2.8,1-3.8,0.1
			c-17.9-16.1-38.7-19-62.1-13.9c-3.7,0.8-8.9,1.6-13.4,3.4c-1.9,0.7-3.6,1.5-5,2.6c0.5,0.3,1.2,0.5,1.7,0.7
			c2.3,0.8,4.7,1.5,5.2,1.5c0.8,0.1,2.4-0.1,3.2-0.1c0.9,0,1.5,0.3,1.8,0.5c0.9,0.6,1.3,1.3,1.3,2.2c0,0.5-0.1,1.3-1.1,2.1
			c-0.7,0.6-1.9,1.1-3.6,1.4c-2.3,0.4-5.6,0.5-6.8,0.7c-6.6,1.4-13.2,3.2-19.5,5.7c-16.2,6.4-30.4,15.6-42.9,27.8
			c-1.6,1.6-6.6,6.4-9.3,10.5c-0.6,0.9-1.1,2.1-1.3,2.7c0.1,0,0.2,0,0.3,0c0.8,0,1.7-0.1,2.9-0.3c1-0.2,2.2-0.7,3.1-1
			c2.5-0.9,4.9-2.1,7.2-3.3c1.3-0.7,3-0.2,3.7,1c0.7,1.2,0.2,2.8-1.1,3.4c-2.6,1.3-5.1,2.6-7.8,3.5c-1.2,0.4-2.7,1.1-4.1,1.3
			c-4.4,0.8-7,0.1-8.2-0.9c-1.6-1.3-2.1-3.5-0.9-6.3c2-4.8,9.4-12.1,11.5-14.2c13-12.7,27.8-22.3,44.7-29
			C553.7,98.8,559.7,97.1,565.8,95.7z"/>
		<path class="st4" d="M500.4,148.5c-4.4,7.7-10.9,12.7-17.5,17.5c-7.1,5.1-14.5,9.9-20.5,16.9c-1.6,1.9-3.2,4.6-3.7,7
			c-0.5,2.1-0.2,4,0.8,5.5c1.1,1.6,3.1,2.9,6.8,2.9c6.4,0.1,12.1-2.3,17.8-4.9c1.3-0.6,1.9-2.1,1.2-3.4c-0.7-1.2-2.3-1.8-3.6-1.1
			c-4.9,2.3-9.8,4.5-15.3,4.4c-1.2,0-2-0.1-2.3-0.6c-0.4-0.5-0.2-1.2,0-2c0.4-1.6,1.5-3.4,2.6-4.7c5.7-6.6,12.8-11.2,19.5-16
			c7.2-5.2,14.2-10.7,19-19.1c0.7-1.2,0.2-2.8-1.1-3.4S501.1,147.3,500.4,148.5z"/>
		<path class="st4" d="M472.8,193.6c-5.3,6.3-11.7,13.9-12.8,22.3c-0.3,2.2,0.2,4.3,0.9,6.4c1.2,3.9,3.3,6.1,5.6,7.2
			c2.4,1.2,5.2,1.3,8.1,0.6c4.8-1.2,10-4.7,13.4-7.6c3.5-3,6.6-6.1,9.5-9.7c0.9-1.1,0.6-2.7-0.6-3.5c-1.2-0.8-2.9-0.6-3.8,0.6
			c-2.6,3.4-5.5,6.2-8.7,9c-2.9,2.4-7.1,5.5-11.2,6.4c-1.5,0.4-3,0.5-4.2-0.2c-1.3-0.6-2.3-2-3-4.2c-0.4-1.4-0.9-2.8-0.7-4.4
			c1-7.5,7-14.2,11.7-19.8c0.9-1.1,0.7-2.7-0.5-3.5C475.4,192.3,473.7,192.5,472.8,193.6z"/>
		<path class="st4" d="M514.6,199.5c6.4-4.5,12.2-8.7,16.1-15.6c0.7-1.2,0.2-2.8-1.2-3.4c-1.3-0.6-3-0.2-3.7,1.1
			c-3.4,6.2-8.8,9.9-14.5,13.9c-1.2,0.8-1.4,2.4-0.5,3.5C511.7,200.1,513.4,200.4,514.6,199.5z"/>
		<path class="st4" d="M721.5,119.6c-0.3,0.1-0.6,0.3-0.8,0.4c-5.3,3.4-10.5,7.6-14.4,12.6c-0.9,1.1-2.6,1.3-3.8,0.5
			c-1.2-0.8-1.4-2.4-0.6-3.5c4.3-5.4,9.9-10,15.7-13.7c3.7-2.4,6.4-1.7,7.9-0.5c0.8,0.7,1.4,1.7,1.5,2.9c0.2,1.8-0.5,4.5-2.6,7.3
			c-1.1,1.5-2.4,2.9-3.6,4.3c-1,1.1-2.7,1.2-3.8,0.3c-1.1-0.9-1.3-2.5-0.4-3.5c1.2-1.3,2.3-2.6,3.4-4c0.7-1,1.2-1.9,1.5-2.7
			C721.5,119.8,721.5,119.7,721.5,119.6z"/>
		<path class="st4" d="M718.6,132.8c8.7-1.6,19.6,1.5,26.7,6.6c2.5,1.8,4.3,4.3,3.8,6.5c-0.3,1.2-1.5,2.1-3.5,2.7
			c-3.4,0.9-6.9-0.2-10.2-1.2c-1.4-0.4-3,0.3-3.4,1.6c-0.5,1.3,0.3,2.7,1.7,3.2c4.3,1.3,9,2.4,13.4,1.2c4.6-1.2,6.7-3.8,7.3-6.5
			c0.8-3.8-1.5-8.4-5.8-11.5c-8.3-5.9-21-9.4-31.1-7.6c-1.5,0.3-2.4,1.6-2.1,3C715.7,132.2,717.1,133.1,718.6,132.8z"/>
		<path class="st4" d="M741.7,154.5c10,5.9,16.6,15.9,22.3,25.6c10.3,17.7,16.7,37.4,17,57.9c0.2,18.8-5.6,37.3-5,56.1
			c0,1.4,1.3,2.5,2.8,2.4c1.5,0,2.7-1.2,2.6-2.6c-0.7-18.7,5.1-37.2,5-56c-0.2-21.3-6.9-41.9-17.6-60.3
			c-6.1-10.5-13.5-21.2-24.2-27.5c-1.3-0.7-2.9-0.4-3.7,0.8C740,152.2,740.4,153.8,741.7,154.5z"/>
		<path class="st4" d="M484,413.4c1.1,7.4,1.9,14.9,5,21.8c3.3,7.6,9.6,14.2,15.1,20.3c1,1.1,2.7,1.2,3.8,0.3
			c1.1-0.9,1.3-2.5,0.4-3.6c-5.1-5.8-11.1-11.8-14.2-19c-2.9-6.5-3.6-13.6-4.6-20.6c-0.2-1.4-1.6-2.4-3-2.2
			C484.9,410.7,483.8,412,484,413.4z"/>
		<path class="st4" d="M754.8,402.4c-2.6,9.1-6.4,18.5-12.1,26.2c-3.4,4.6-7.9,8.3-11.4,12.8c-0.9,1.1-0.6,2.7,0.6,3.5
			c1.2,0.8,2.9,0.6,3.8-0.5c3.6-4.5,8.1-8.3,11.5-13c6-8.1,10.1-18.1,12.9-27.7c0.4-1.3-0.5-2.7-1.9-3.1
			C756.7,400.3,755.2,401.1,754.8,402.4z"/>
		<path class="st4" d="M527.9,482.8c0,0,47,69.6,91.2,62.4c44.2-7.2,82.4-46.1,97.6-70.6C731.9,450,676.9,529.2,527.9,482.8z"/>
		<path class="st4" d="M608.6,307.6c8.4-5.2,21.7-4.3,30.5-0.2c1.3,0.6,3,0.1,3.6-1.1c0.7-1.2,0.1-2.8-1.2-3.4
			c-10.4-4.8-26.1-5.5-35.9,0.5c-1.3,0.8-1.6,2.3-0.8,3.5C605.7,308.1,607.4,308.4,608.6,307.6z"/>
		<path class="st4" d="M608.5,318.4c9.4-5.9,21.2-4,30.6,0.7c1.3,0.7,3,0.2,3.7-1c0.7-1.2,0.2-2.8-1.1-3.4
			c-11.2-5.5-25.1-7.5-36.2-0.5c-1.2,0.8-1.6,2.4-0.7,3.5C605.5,318.8,607.2,319.1,608.5,318.4z"/>
		<path class="st4" d="M638.7,403.2c3.1-1.9,6.5-3.1,9.1-5.6c7.6-7.3,6.9-18.4,4.8-27.6c-0.3-1.4-1.8-2.2-3.2-1.9
			c-1.5,0.3-2.4,1.6-2.1,3c1.8,7.7,2.9,17-3.4,23c-2.3,2.3-5.5,3.3-8.2,4.9c-1.3,0.8-1.6,2.3-0.8,3.5
			C635.8,403.6,637.5,403.9,638.7,403.2z"/>
	</g>
</g>
</svg>
