<?xml version="1.0" encoding="utf-8"?>
<!-- Generator: Adobe Illustrator 24.1.0, SVG Export Plug-In . SVG Version: 6.00 Build 0)  -->
<svg version="1.1" id="Layer_1" xmlns="http://www.w3.org/2000/svg" xmlns:xlink="http://www.w3.org/1999/xlink" x="0px" y="0px"
	 viewBox="0 0 1200 800" style="enable-background:new 0 0 1200 800;" xml:space="preserve">
<style type="text/css">
	.st0{fill-rule:evenodd;clip-rule:evenodd;fill:#1B1B1B;}
	.st1{fill-rule:evenodd;clip-rule:evenodd;fill:#D61F2B;}
	.st2{fill-rule:evenodd;clip-rule:evenodd;fill:#1C1C1C;}
	.st3{fill-rule:evenodd;clip-rule:evenodd;fill:#F69C9E;}
	.st4{fill-rule:evenodd;clip-rule:evenodd;fill:#F0B71C;}
	.st5{fill-rule:evenodd;clip-rule:evenodd;fill:#FFFFFF;}
	.st6{fill-rule:evenodd;clip-rule:evenodd;fill:#010101;}
</style>
<g>
	<g transform="matrix(1.10341,0,0,1.02758,-25.0969,-10.7772)">
		<path class="st0" d="M451.5,251.7L451.5,251.7c0.1,0.1,0.1,0.2,0.1,0.2c0.1,0.6,0.2,1.2,0.2,1.8c0.7,5.9,1.3,11.8,1.7,17.8
			c0.2,3.5,0.4,7.1,0.6,10.6c0.3,5.3,0.6,10.6,1.2,15.8c0,0.4,0.1,0.8,0.1,1.2c0,0.4,0,0.8,0,1.2c0,0.1,0,0.1,0,0.2
			c-0.5,0.9-0.1,0-0.9,0.6c0.1,0.7-0.4,1.4-1,1.5c-0.7,0.1-1.3-0.4-1.4-1.1c-0.9-0.2-0.4,0.4-1.1-0.3c-0.2-0.3-0.2-0.7-0.3-1
			c-0.8-4.4-0.9-9-1-13.5c-0.1-4.1-0.2-8.1-0.1-12.2c0.1-4.1,0.3-8.1,0.4-12.1c0.1-3.1,0.2-6.2,0.2-9.3c0-0.3-0.2-0.7,0-0.9
			c0-0.1,0.1-0.1,0.1-0.2c0.3-0.5-0.4,0.2,0.4,0c0-0.1,0.1-0.2,0.2-0.2c0.1,0,0.2,0.1,0.2,0.2C451.3,251.8,451.4,251.8,451.5,251.7z
			"/>
		<path class="st0" d="M454.3,271.8c0.1,0,0.3,0,0.8-0.1c0-0.1,0.1-0.2,0.2-0.2c0.1,0,0.2,0.1,0.2,0.2c0.5,0.1,0.7,0.1,0.8,0
			l0.2,0.1c0.1,0,0.1,0,0.1,0.1c0.1,0.2,0.1,0.4,0.1,0.6c0.4,2.5,0.7,4.9,0.9,7.4c0.3,3.3,0.6,6.5,0.7,9.8c0,0.6,0,1.2-0.1,1.7
			c0,0.1,0,0.2,0,0.2c-0.2,0.4-0.3,0.3-0.6,0.6c0.1,0.8-0.5,1.4-1.2,1.5c-0.7,0.1-1.3-0.5-1.4-1.3c-0.3-0.3-0.4-0.1-0.6-0.5
			c0-0.1-0.1-0.1-0.1-0.2c-0.1-0.6-0.2-1.1-0.3-1.7c-0.4-3.3-0.4-6.6-0.4-9.9c0-2.5,0.1-5,0.2-7.4c0-0.2,0-0.4,0.1-0.6
			c0-0.1,0,0,0.1-0.1L454.3,271.8z"/>
		<path class="st0" d="M459.3,273.1c-0.2,0-0.4-0.1-0.6-0.1c-0.6-0.2-0.8-0.6-0.3-1c0.5-0.4,1.2-0.6,1.8-0.7c0.2,0,0.7-0.1,0.9,0.1
			l0,0c1.3,0.5,3.5,2.1,0.6,1.9c-0.5-0.5-0.9-0.9-1.1-1.2c-0.3,0.2-0.7,0.6-1.2,0.9l0.1,0c0.3,0,0.6,0.1,0.9,0.1
			c0,0,0.1-0.2,0.2-0.2c0.1,0,0.1,0.2,0.2,0.2c0.3,0.1,0.6,0.1,0.9,0.1l0.1,0l0,0c0,0,0,0.1,0,0.1c0.1,0.4,0.1,0.8,0.1,1.2
			c0.1,0.9,0.1,1.9,0.1,2.8c0.1,2.2,0.4,4.4,0.3,6.6c0,0.5-0.1,1-0.2,1.5c-0.2,0.5-0.3,0.6-0.6,1c0,0.6-0.4,1.1-0.9,1.1
			c-0.5,0-1-0.4-1-0.9c-0.3-0.4-0.5-0.5-0.7-0.9c-0.2-0.5-0.3-0.9-0.4-1.5c-0.3-1.9-0.1-3.8,0-5.8c0.1-1.7,0.2-3.4,0.6-4.9
			C459.3,273.5,459.2,273.3,459.3,273.1l0.1,0L459.3,273.1z"/>
		<path class="st0" d="M458.4,255c-0.2,0.3-0.2,0.4-0.4,0.7c-0.4,0.5-0.7,0.4-1,1c-0.1,0.2-0.1,0.5-0.2,0.7
			c-0.3,1.9-0.4,3.8-0.5,5.8c0,0.5-0.1,0.9-0.1,1.4c0,0.5,0.1,0.9,0.2,1.4c0.2,0.8,0.4,1.5,0.8,2.2c0.2,0.3,0.3,0.3,0.5,0.5
			c0,0.4,0.4,0.7,0.7,0.7c0.4,0,0.7-0.4,0.7-0.8c0.2-0.2,0.2-0.2,0.4-0.4c0.4-0.7,0.5-1.4,0.7-2.2c0.1-0.5,0.2-0.9,0.2-1.4
			c0.1-1.8-0.1-3.5-0.2-5.3c0-0.8,0.1-1.6-0.2-2.3c-0.2-0.6-0.5-0.6-0.9-1.2c-0.2-0.3-0.3-0.5-0.4-0.8c0-0.1-0.1-0.2-0.2-0.2
			C458.5,254.8,458.5,254.8,458.4,255z"/>
		<path class="st0" d="M463.2,254.8C463.1,254.7,463.2,254.7,463.2,254.8l0.2,0c0,0,0,0,0,0l0,0c0.5,0.1,1.5,0.4,0.5,0.3l-0.4-0.1
			l-0.1,0c0-0.1-0.1-0.1-0.1-0.1l0,0l-0.1,0C463.3,254.8,463.3,254.8,463.2,254.8l0.1,0.1l0.2,0.1c0,0,0,0.1,0,0.1
			c0.2,0,0.3,0.1,0.4,0.1l0,0c0.6,0.2,0.2-0.3,0.6,0.3c0.2,0.3,0,0.7,0.1,1.1c0.1,1.6,0.2,3.2,0.3,4.8c0.1,1.6,0.2,3.2,0.2,4.8
			c0,0.5,0,1-0.1,1.5c-0.1,0.4-0.3,0.6-0.5,1c0,0.6-0.4,1.2-1,1.3c-0.6,0-1.1-0.5-1.2-1.1c-0.3-0.4-0.5-0.5-0.6-0.9
			c-0.2-0.5-0.2-1-0.3-1.5c-0.2-1.9-0.2-3.9,0-5.8c0.1-1.7,0.3-3.4,0.7-5c0-0.1,0-0.3,0.1-0.3c0.1-0.1,0,0,0.1,0l0.2,0
			c0.1,0,0.3,0,0.8,0C463.2,254.9,463.2,254.8,463.2,254.8L463.2,254.8z"/>
		<path class="st0" d="M457.6,238.3c-1.2,0.5-0.1-0.1-1.2,0.5c-0.1,0-0.1,0-0.1,0.1c-0.1,0.2-0.1,0.5-0.1,0.7
			c-0.1,0.8-0.1,1.6-0.1,2.4c0,1.8,0,3.6,0.1,5.4c0,0.9,0,1.8,0.1,2.6c0.1,0.2,0.2,0.4,0.3,0.6c0,1,0.8,1.8,1.7,1.8
			c0.9,0,1.7-0.8,1.7-1.8c0.1-0.2,0.2-0.4,0.2-0.7c0.2-0.9,0-1.8,0-2.7c-0.1-1.8-0.2-3.6-0.4-5.4c-0.1-0.8-0.2-1.5-0.3-2.3
			c0-0.2,0-0.5-0.1-0.6c0-0.1,0,0-0.1-0.1c-1.1-0.6-0.1,0-1.2-0.5c0-0.1-0.1-0.2-0.2-0.2C457.7,238.1,457.6,238.2,457.6,238.3z"/>
		<path class="st0" d="M464.4,238.7c-0.4,0.2-0.2,0.1-0.6,0.2c-1,0.3-0.1-0.5-0.9,0.2c-0.1,0.1-0.1,0.3-0.1,0.4
			c-0.1,0.4-0.2,0.8-0.3,1.3c-0.1,1-0.2,1.9-0.2,2.9c0,1.5-0.1,3.1,0.1,4.6c0,0.3,0.1,0.5,0.2,0.8c0.2,0.5,0.3,0.8,0.6,1.2
			c0.3,0.4,0.4,0.5,0.7,0.9c0,0.3,0.3,0.6,0.6,0.6c0.3,0,0.6-0.3,0.6-0.6c0.3-0.3,0.4-0.3,0.6-0.7c0.3-0.5,0.5-1,0.7-1.6
			c0.1-0.2,0.1-0.4,0.1-0.6c0-0.3,0-0.6,0-0.9c-0.1-2.1-0.2-4.1-0.2-6.1c0-0.5-0.1-1-0.1-1.5c0-0.1,0-0.2,0-0.3
			c-0.8-1.1-0.2-0.1-1.3-0.8c0-0.1-0.1-0.2-0.2-0.2C464.5,238.6,464.4,238.6,464.4,238.7z"/>
		<path class="st0" d="M459.4,218.4c0,0.1,0.2,0.2,0.7,0.3c0-0.1,0.1-0.2,0.2-0.1c0.1,0,0.2,0.1,0.1,0.2c1,0.6,0.5-0.3,0.6,0
			c0,0.1,0.1,0.2,0.2,0.5c0.2,0.3,0,0.6,0,1c-0.2,2.5-0.1,5-0.1,7.6c0,0.4,0,0.7-0.1,1.1c-0.1,0.6-0.2,1.1-0.4,1.6
			c0,0.1,0,0.2-0.1,0.3c-0.2,0.3-0.2,0.2-0.4,0.4c0,0.5-0.3,0.9-0.8,0.9c-0.5,0-0.8-0.4-0.9-0.8c-0.2-0.2-0.3-0.1-0.5-0.3
			c-0.1-0.1-0.1-0.2-0.1-0.2c-0.2-0.8-0.5-1.6-0.6-2.4c-0.1-1.5,0.1-3.1,0.3-4.7c0.1-1.1,0.3-2.2,0.6-3.3c0.1-0.5,0.3-0.9,0.5-1.4
			c0-0.1,0-0.2,0.1-0.3C460.2,217.9,459.4,218.1,459.4,218.4z"/>
		<path class="st0" d="M466.3,221c-1.3,0.3-0.3-0.7-1.3,0.3c-0.9,1-0.5,2.7-0.7,4.1c-0.2,1.4-0.4,2.8-0.3,4.2c0,0.3,0.1,0.6,0.1,0.8
			c0.2,0.7,0.4,1.3,0.7,1.9c0,0.7,0.5,1.2,1.1,1.2c0.6,0,1.1-0.6,1.1-1.2c0.3-0.8,0.6-1.3,0.8-2.1c0.1-0.3,0.1-0.6,0.1-0.9
			c0.1-2.4,0-4.7,0-7c0-0.2,0.1-0.5,0-0.7c-0.7-1.2,0,0-1.2-0.6c0-0.1-0.1-0.2-0.2-0.2C466.4,220.8,466.3,220.8,466.3,221z"/>
		<path class="st0" d="M457.3,191.1c-0.2,0.4-0.4,0.6-0.6,1c-0.2,0.3-0.4,0.3-0.6,0.7c-0.1,0.1,0,0.3-0.1,0.5
			c-0.3,2-0.5,4.2-0.4,6.5c0,0.9,0.1,1.8,0.3,2.8c0.2,1.9,0.6,3.8,1.1,5.6c0.2,0.8,0.5,1.6,0.8,2.3c0.5,1,0.9,2,1.6,2.7
			c0.1,0.1,0.2,0.1,0.3,0.2c0.2,0.5,0.8,0.7,1.3,0.4c0.5-0.3,0.7-0.9,0.4-1.4c0-0.1,0.1-0.2,0-0.4c-0.1-0.9-0.4-1.8-0.6-2.8
			c-0.2-0.7-0.4-1.4-0.6-2.1c-0.4-1.6-0.8-3.3-1.1-5.1c-0.5-2.9-0.9-5.8-0.8-8.5c0-0.1,0-0.3,0-0.4c-0.1-0.4-0.3-0.4-0.4-0.7
			c-0.2-0.4-0.2-0.7-0.3-1.1c0-0.1,0-0.2-0.1-0.2C457.4,190.9,457.3,190.9,457.3,191.1z"/>
		<path class="st0" d="M460.1,192c-0.4,0.6-0.7,0.7-0.9,1.5c0,0.1,0,0.2,0,0.4c0,1,0,1.9,0.1,2.8c0.2,1.4,0.5,2.8,0.8,4.2
			c0.3,1,0.5,2,0.9,3c0.3,0.6,0.5,1.3,0.9,1.8c0.4,0.6,0.8,1.1,1.3,1.6c0.4,0.4,0.7,0.6,1.1,0.9c0.2,0.4,0.6,0.6,1,0.4
			c0.4-0.2,0.5-0.7,0.4-1.1c0-0.6,0-1.1,0-1.7c-0.1-0.6-0.1-1.2-0.3-1.8c-0.1-0.6-0.3-1.1-0.5-1.6c-0.8-2.2-1.8-4.4-2.4-6.7
			c-0.2-0.6-0.3-1.1-0.5-1.7c-0.1-0.3-0.1-0.6-0.3-0.9c-0.4-0.7-0.7-0.7-1.2-1.3c0-0.1-0.1-0.2-0.2-0.2
			C460.2,191.8,460.1,191.9,460.1,192z"/>
		<path class="st0" d="M464.8,216.1c-0.9,1.4,0-0.2-0.8,1.3c-0.1,0.1-0.1,0-0.1,0.1c0,0.1,0,0.2,0.1,0.2c0.2,0.4,0.4,0.7,0.7,1
			c0.3,0.3,0.5,0.8,0.9,0.9c0.5,0.2,0.4,0,1-0.1c0.4,0.4,0.9,0.4,1.3,0c0.3-0.4,0.3-1,0-1.4c0.1-0.5,0.3-0.4,0.2-1
			c-0.1-0.4-0.4-0.7-0.6-1c-0.2-0.3-0.5-0.6-0.7-0.9c-0.1-0.1-0.1-0.1-0.2-0.2c-0.1,0,0,0-0.2,0c-1.5,0.6,0.1-0.1-1.3,0.6
			c-0.1-0.1-0.2-0.1-0.3,0C464.7,215.9,464.7,216,464.8,216.1z"/>
		<path class="st0" d="M460.5,171.2c-0.6,0.3-0.7,0.2-1.1,0.7c-0.1,0.1-0.1,0.3-0.1,0.4c-0.4,1.7-0.4,3.5-0.3,5.3
			c0.1,1.3,0.2,2.7,0.6,4c0.1,0.3,0.2,0.5,0.3,0.7c0.3,0.6,0.7,1,1.1,1.6c0.1,0.3,0.5,0.5,0.8,0.4c0.3-0.1,0.5-0.5,0.4-0.8
			c0-0.8,0.2-1.5,0.1-2.3c-0.1-1.1-0.4-2.2-0.5-3.4c-0.2-1.7-0.2-3.5-0.1-5.2c0-0.1,0-0.2,0-0.4c-0.2-0.6-0.4-0.5-0.8-1
			c0-0.1,0-0.2-0.1-0.2C460.6,171,460.5,171.1,460.5,171.2z"/>
		<path class="st0" d="M465.8,183.7c-1.2,0.5-0.5-0.3-1.4,0.7c-0.2,0.2-0.1,0.5-0.2,0.8c-0.1,0.4,0,0.8,0,1.2c0,1.5,0.3,3,0.7,4.5
			c0.1,0.5,0.3,1.1,0.5,1.6c0.1,0.3,0.3,0.6,0.5,0.9c0.9,1.2,1.8,1.9,2.7,3c0.1,0.4,0.5,0.6,0.8,0.4c0.3-0.1,0.5-0.5,0.4-0.9
			c0.1-1.5,0.1-2.6,0.1-4c0-0.3,0-0.5-0.1-0.8c0-0.2-0.1-0.5-0.2-0.7c-0.5-1.4-1.1-2.8-1.5-4.2c-0.1-0.4-0.2-0.8-0.3-1.3
			c-0.1-0.2-0.1-0.4-0.2-0.5c-0.8-0.9-0.4-0.1-1.5-0.7c0-0.1-0.1-0.2-0.2-0.2C465.9,183.5,465.8,183.6,465.8,183.7z"/>
		<path class="st0" d="M714.2,176.2c-0.3,0.3-0.3,0.4-0.6,0.7c-0.3,0.3-0.4,0-0.6,0.4c-0.1,0.1,0,0.2,0,0.3
			c-0.2,1.3-0.3,2.5-0.5,3.8c-0.4,2.9-1,5.7-2,8.4c-0.4,1.2-0.9,2.4-1.4,3.5c-0.8,1.7-1.7,3.3-2.7,5c-0.5,0.8-1.1,1.6-1.5,2.5
			c-0.2,0.5-0.2,0.8-0.4,1.3c-0.3,0.3-0.3,0.8,0,1.1c0.3,0.3,0.8,0.3,1,0c0.5-0.2,0.8-0.3,1.3-0.6c0.9-0.6,1.5-1.4,2.1-2.2
			c1.3-1.7,2.4-3.5,3.3-5.3c0.6-1.3,1.1-2.6,1.5-3.9c1-3,1.6-6.1,1.9-9.3c0.1-1.3,0.2-2.7,0.1-4c0-0.1,0-0.2,0-0.3
			c-0.2-0.4-0.3-0.2-0.6-0.5c-0.3-0.3-0.3-0.4-0.6-0.7c0-0.1-0.1-0.2-0.2-0.2C714.3,176,714.2,176.1,714.2,176.2z"/>
		<path class="st0" d="M707.9,186.2c-1.9-0.1,0.1-1.1-1.5-0.1c-0.3,0.2-0.3,0.6-0.4,0.9c-0.5,1.1-0.9,2.1-1.4,3.2
			c-0.8,1.6-1.6,3-2.5,4.6c-0.5,0.9-1,1.7-1.4,2.7c0,0.1-0.1,0.1-0.1,0.2c-0.1,0.3,0,0.4,0,0.7c-0.4,0.5-0.3,1.3,0.2,1.7
			c0.5,0.4,1.2,0.3,1.5-0.2c0.3-0.1,0.5,0,0.8-0.2c0.7-0.4,1.2-1.2,1.7-1.9c1.5-2,2.7-4.2,3.7-6.5c0.3-0.6,0.5-1.3,0.7-2
			c0.2-0.7,0.7-1.4,0.5-2.1c-0.7-1.9,0.3,0.2-1.3-0.9c0-0.1,0-0.2-0.1-0.3C708.1,186,708,186.1,707.9,186.2z"/>
		<path class="st0" d="M710,170.9c-1.4,0.3-0.4-0.8-1.4,0.3c-0.1,0.1-0.1,0.3-0.1,0.5c-0.1,0.7-0.2,1.5-0.3,2.2
			c-0.1,1.1-0.3,2.2-0.4,3.3c-0.1,1-0.3,2-0.2,3c0,0.3,0.1,0.5,0.1,0.8c-0.1,0.3,0.1,0.7,0.4,0.8c0.3,0.1,0.7-0.1,0.8-0.4
			c0.2-0.2,0.3-0.3,0.5-0.6c0.5-0.8,0.8-1.7,1-2.5c0.5-1.6,0.9-3.3,1.1-5c0.1-0.5,0.2-1,0.1-1.5c0-0.1,0-0.1-0.1-0.2
			c-1-1,0.1,0-1.2-0.6c0-0.1-0.1-0.2-0.2-0.2C710.1,170.8,710,170.8,710,170.9z"/>
		<path class="st0" d="M700.7,188.6c-1.4-0.1,0-0.8-1.3-0.1c-0.3,0.1-0.4,0.5-0.5,0.8c-0.2,0.4-0.4,0.8-0.5,1.2
			c-0.2,0.4-0.3,0.9-0.4,1.3c-0.3,1-0.4,1.9-0.7,2.9c-0.2,0.3-0.1,0.7,0.2,0.8c0.3,0.2,0.6,0.1,0.8-0.2c0.8-0.9,1.6-1.5,2.4-2.5
			c0.5-0.6,0.9-1.3,1.2-2c0.1-0.3,0.2-0.7,0.3-1c0,0,0-0.1,0-0.1c-0.7-1.6,0.3,0.2-1-0.8c0-0.1,0-0.2-0.1-0.3
			C700.8,188.5,700.7,188.5,700.7,188.6z"/>
		<path class="st0" d="M701.7,204.8L701.7,204.8c0.1,0.2,0.1,0.2,0,0.3c0,0.1-0.1,0.2-0.2,0.2c-0.4,0.7-0.8,1.3-1.4,1.9
			c-0.5,0.6-1.1,1-1.7,1.6c-0.4,0.5-1,0.5-1.5,0.1c-0.4-0.4-0.5-1.1-0.1-1.6c0.4-0.7,0.7-1.4,1.1-2c0.4-0.6,0.9-1.2,1.3-1.8
			c0.1-0.1,0.1-0.2,0.2-0.2c0.1-0.1,0.1-0.1,0.2,0l0.1,0l0.1,0c0.2,0.2,0.5,0.4,0.8,0.6c0,0,0.2-0.1,0.3,0c0.1,0.1,0,0.3,0,0.3
			C701.2,204.3,701.4,204.5,701.7,204.8L701.7,204.8z M699.7,203.1c-0.2-0.1-0.3-0.3-0.5-0.4c-0.1-0.1-0.1-0.1-0.2-0.2
			c0-0.1-0.1-0.1-0.1-0.2c-0.2-0.4,0.5-0.3,0.7-0.3c0.1,0,0.2,0,0.2,0.1c0.1,0,0.2,0.1,0.3,0.1c0.1,0,0.2,0.1,0.3,0.1
			c0.1,0,0.2,0.1,0.3,0.1l0.2,0.1c0-0.3,0.3-0.1,0.7,0.3c0.5,0.3,0.7,0.5,0.5,0.6c0.9,1.3,1.8,3-0.4,1.3l-0.3-0.6
			c-0.1-0.3-0.1-0.3-0.2-0.5l-0.3-0.2c-0.3,0-0.3,0-0.5-0.1L699.7,203.1z"/>
		<path class="st0" d="M704.3,207.4L704.3,207.4c0.3,0.2,0.6,0.4,0.8,0.6c0,0,0.2-0.1,0.3-0.1c0.1,0.1,0,0.3,0.1,0.3
			c0.1,0.1,0.5,0.4,0.6,0.5l0.2,0.1l0,0.1c0,0.1,0,0.1,0,0.1c-0.1,0.6-0.4,1-0.7,1.6c-0.8,1.8-1.6,3.6-2.3,5.4
			c-0.7,1.8-1.2,3.7-1.7,5.6c-0.1,0.5-0.2,1-0.4,1.5c-0.4,1.2-0.9,2.2-1.3,3.4c-0.1,0.5-0.5,0.9-0.9,0.8s-0.8-0.5-0.8-1
			c-0.1-1.4-0.3-2.7-0.2-4.1c0.2-2,0.8-4,1.5-5.9c0.8-2.3,1.7-4.5,3-6.6c0.3-0.5,0.6-1,1-1.5c0.2-0.2,0.3-0.6,0.6-0.7L704.3,207.4z"
			/>
		<path class="st0" d="M708.3,210.3c-0.3,0.1-0.3,0.1-0.6,0.2c-0.9,0.3-0.5-0.4-1.2,0.2c-0.2,0.1-0.2,0.4-0.3,0.6
			c-0.8,2.1-1.5,4.3-2,6.6c-0.2,1-0.4,2-0.5,3c-0.1,1-0.2,2.1-0.1,3.1c0,0.5,0,1.1,0.1,1.6c0.1,0.5,0.3,0.7,0.6,1.1
			c0,0.6,0.4,1.2,1,1.2c0.6,0,1.1-0.5,1.1-1.1c0.3-0.3,0.5-0.4,0.7-0.8c0.5-1,0.6-2.2,0.8-3.4c0.2-1,0.4-2,0.6-3
			c0.5-2.4,1-4.8,1.4-7.1c0-0.2,0.2-0.4,0.1-0.7c-0.3-1-0.3-0.2-0.9-0.9c-0.2-0.3-0.2-0.3-0.3-0.5c0-0.1,0-0.2-0.1-0.3
			C708.4,210.1,708.3,210.2,708.3,210.3z"/>
		<path class="st0" d="M703.4,231.1c-0.6,0.7-1,0.9-1.5,1.6c-0.1,0.1-0.1,0.3-0.2,0.4c-0.5,1.8-0.6,3.7-0.6,5.6c0,1-0.1,2.1,0.2,3.1
			c0.1,0.3,0.3,0.5,0.4,0.8c0,0.5,0.4,0.9,0.9,0.9c0.5,0,0.8-0.4,0.8-0.9c0.2-0.3,0.3-0.4,0.4-0.7c0.3-0.9,0.3-1.9,0.4-2.8
			c0.2-1.8,0.4-3.6,0.4-5.4c0-0.2,0-0.3,0-0.5c-0.3-0.9-0.6-1.2-1-2c0-0.1-0.1-0.2-0.2-0.2C703.5,231,703.4,231,703.4,231.1z"/>
		<path class="st0" d="M709.1,233.8c-0.4,0.5-0.7,0.7-0.9,1.3c-0.2,0.4-0.3,0.9-0.4,1.4c-0.4,1.7-0.7,3.4-0.8,5.1c0,0.2,0,0.3,0,0.5
			c0.1,0.3,0.2,0.5,0.3,0.9c-0.1,0.4,0.1,0.7,0.5,0.8c0.3,0.1,0.7-0.1,0.8-0.5c0.2-0.3,0.4-0.4,0.6-0.7c0.1-0.2,0.1-0.4,0.2-0.5
			c0.3-1.1,0.4-2.2,0.5-3.3c0.1-0.8,0.2-1.5,0.2-2.3c0-0.3,0-0.7,0-1c-0.1-0.6-0.3-0.9-0.5-1.5c0-0.1-0.1-0.2-0.2-0.2
			C709.2,233.6,709.1,233.7,709.1,233.8z"/>
		<path class="st0" d="M696.8,231.1c-0.5,0.9-0.9,1.6-1.3,2.5c-0.1,0.3-0.2,0.7-0.3,1c-0.1,0.5-0.2,1-0.2,1.6
			c-0.1,1.3-0.2,2.6-0.2,4c0,0.4,0,0.8,0.1,1.2c0.1,1,0.3,1.8,0.4,2.8c0,0.5,0.3,0.9,0.8,1c0.5,0,0.9-0.3,0.9-0.8
			c0.3-1.3,0.7-2.5,1-3.9c0.2-1.3,0.2-2.6,0.3-3.9c0-0.5,0-1.1,0-1.6c0-0.4-0.1-0.7-0.1-1.1c-0.2-1-0.5-1.7-0.8-2.7
			c0-0.1-0.1-0.2-0.2-0.2C696.9,230.9,696.9,231,696.8,231.1z"/>
		<path class="st0" d="M699.3,248.6c-1.4,0.2-0.1-0.1-1.5,0.3c-0.2,0.1-0.1-0.1-0.3,0.1c-0.1,0.1-0.1,0.1-0.1,0.2
			c-0.3,0.7-0.3,1.5-0.5,2.2c-0.2,1.1-0.3,2.1-0.4,3.2c0,0.7,0,1.4,0,2.1c0,0.5,0,1.1,0.2,1.6c0.2,0.4,0.3,0.4,0.6,0.7
			c0,0.7,0.6,1.3,1.2,1.3c0.7,0,1.2-0.6,1.3-1.3c0.3-0.3,0.4-0.2,0.6-0.5c0.3-0.6,0.3-1.4,0.4-2.1c0.1-0.8,0.2-1.7,0.3-2.5
			c0.1-1.3,0.3-2.5,0.4-3.7c0-0.1,0-0.2,0-0.3c0-0.1-0.1-0.1-0.1-0.2c-1.2-1-0.1,0-1.4-0.9c0-0.2-0.1-0.4-0.3-0.4
			C699.5,248.2,699.3,248.4,699.3,248.6z"/>
		<path class="st0" d="M705.2,251.6c-1.4,0.2,0-0.8-1.1,0.2c0,0,0,0.1-0.1,0.2c-0.2,0.6-0.3,1.2-0.4,1.8c-0.2,0.9-0.2,1.8-0.3,2.7
			c-0.2,1.9-0.5,3.8-0.6,5.7c-0.1,0.8-0.2,1.6-0.1,2.4c0.1,1.2,0.4,2.3,0.6,3.5c0,0.6,0.4,1.1,0.9,1.1c0.5,0,1-0.4,1.1-1
			c0.3-0.9,0.7-1.8,0.9-2.8c0.1-0.4,0.2-0.8,0.2-1.2c0.3-3.1,0.3-6.2,0.3-9.3c0-1,0.5-2.1,0-3c-0.7-1.1,0.2,0.1-1-0.5
			c0-0.1-0.1-0.2-0.2-0.2C705.3,251.4,705.2,251.5,705.2,251.6z"/>
		<path class="st0" d="M696.2,265.2c-0.6,0.5-0.7,0.2-1,0.9c-0.2,0.4-0.1,0.9-0.1,1.3c0,2.3-0.2,4.7,0.1,7c0,0.2,0.1,0.5,0.2,0.7
			c0.2,0.4,0.4,0.6,0.6,1c0,0.4,0.4,0.8,0.8,0.8c0.4,0,0.7-0.4,0.7-0.9c0.2-0.4,0.4-0.6,0.5-1.1c0.1-0.2,0.1-0.4,0.1-0.7
			c0.1-2.3-0.1-4.6-0.3-6.9c0-0.4,0.1-0.9-0.2-1.3c-0.4-0.7-0.5-0.4-1.1-0.8c0-0.1-0.1-0.2-0.2-0.2
			C696.3,265,696.2,265.1,696.2,265.2z"/>
		<path class="st0" d="M699.9,279.8c-1.1,0.3,0-0.1-1,0.3c-0.2,0.1-0.1,0-0.2,0.1c0,0,0,0.1,0,0.1c-0.1,0.5-0.2,0.9-0.3,1.4
			c-0.2,2.1-0.4,4.3-0.2,6.5c0.1,0.6,0.3,1.1,0.4,1.6c0,0.7,0.5,1.2,1.1,1.2c0.6,0,1.1-0.5,1.1-1.2c0.1-0.6,0.3-1.2,0.4-1.8
			c0.2-1.6,0.2-3.3,0.2-4.9c0-0.7,0-1.4,0-2.1c0-0.2,0.1-0.4,0-0.5c-0.7-1.1-0.1,0-1.2-0.6c0-0.1-0.1-0.2-0.2-0.2
			C700,279.6,699.9,279.7,699.9,279.8z"/>
		<path class="st0" d="M600.8,350.2L600.8,350.2c0-0.1,0-0.2,0-0.3c0.3-0.8,0.5-1.5,0.7-2.3c1.4-5,1.2-9.6,1.1-14.4
			c0-1.4,0-2.7,0-4.1c0.1-2.1,0.2-4.1,0.5-6.3c0-0.8,0.6-1.4,1.3-1.4c0.7,0,1.3,0.6,1.3,1.4c0.3,2.9,0.9,5.6,1.2,8.4
			c0.1,1.2,0.2,2.3,0.2,3.5c0.1,1.8,0,3.6-0.1,5.3c-0.3,3.5-0.9,7-2.6,10.6c-0.2,0.3-0.2,0.8-0.5,0.9l-0.1,0l-0.1,0
			c-0.4-0.2-0.8-0.5-1.2-0.6c0,0-0.1,0.2-0.2,0.1c-0.1,0-0.1-0.3-0.1-0.3c-0.2-0.1-0.8-0.5-1.1-0.6L600.8,350.2z"/>
		<path class="st0" d="M512.4,275.5l0.1,0c0.2,0,0.3,0.1,0.4,0.2c0.5,0.3,1,0.6,1.5,0.8c0.8,0.4,1.5,0.6,2.3,0.7c0.6,0,1.3,0,2-0.1
			c1.1-0.2,2.2-0.3,3.3-0.7c0.5-0.3,1.1-0.1,1.3,0.4c0.3,0.5,0.1,1.2-0.4,1.4c-1.1,1-2.2,1.7-3.4,2.3c-1.4,0.6-2.9,0.7-4.3,0.5
			c-0.9-0.1-1.8-0.4-2.6-1c-0.7-0.5-1.4-1.1-2-2c-0.1-0.1-0.2-0.2-0.2-0.4l0-0.2c0.2-0.1,0.4-0.4,0.8-0.8c-0.1-0.1-0.1-0.2,0-0.3
			c0.1-0.1,0.2-0.1,0.3,0C512,276,512.3,275.7,512.4,275.5z"/>
		<path class="st0" d="M629.3,270.6c0.1,0,0.3,0.1,0.6,0.2c0.1,0,0.2,0.2,0.3,0.3c0.8,1,1.6,1.7,2.6,2c0.7,0.3,1.4,0.5,2.1,0.6
			c1.5,0.1,3.1-0.2,4.8-0.9c0.4-0.2,0.9-0.1,1.1,0.3c0.2,0.4,0.1,1-0.3,1.2c-1.8,1.5-3.8,2.5-5.7,2.8c-1,0.2-2,0.1-3-0.2
			c-1.8-0.5-3.7-1.7-4.6-4c0-0.1-0.1-0.2-0.1-0.3c0.6-1.9-0.1-0.6,0.1-0.5c0.1,0.1,0.4,0,0.9-0.6c-0.1-0.1,0-0.2,0.1-0.3
			c0.1-0.1,0.2,0,0.3,0.1C630.4,270.7,628.3,270.3,629.3,270.6z"/>
		<path class="st0" d="M492.6,535.6c-0.7,0.3-1,0.2-1.5,0.8c-0.3,0.3-0.3,0.9-0.5,1.3c-0.9,2.5-1.5,4.9-1.8,7.3
			c-0.7,6.1,0.3,11.9,2.5,17.4c3.4,8.4,9.6,16.2,17,22.2c2.4,2,5,3.8,7.7,5.4c0.3,0.2,0.7,0.4,1,0.6c0.4,0.2,0.7,0.2,1.2,0.3
			c0.3,0.2,0.8,0.1,1-0.2c0.2-0.4,0.1-0.8-0.2-1c-0.3-0.3-0.5-0.7-0.8-1c-0.3-0.3-0.6-0.5-0.9-0.8c-2.3-1.9-4.7-3.9-7-5.9
			c-6.8-6.1-12.9-13-16.1-20.9c-2-4.9-2.9-10.1-2.4-15.7c0.2-2.2,0.6-4.5,1.3-6.8c0.1-0.4,0.4-0.8,0.4-1.2c0-0.8-0.3-0.9-0.5-1.7
			c0-0.1,0-0.2-0.1-0.3C492.8,535.4,492.7,535.5,492.6,535.6z"/>
		<path class="st0" d="M485.4,570.2c-0.3,0.2-0.2,0.1-0.4,0.4c-0.1,0.2-0.1,0.4-0.1,0.6c-0.3,3,0.9,5.6,2.1,7.9
			c0.7,1.3,1.6,2.5,2.8,3.6c1,0.9,2.2,1.7,3.5,2.5c0.6,0.4,1.4,0.2,1.8-0.5c0.4-0.7,0.2-1.6-0.4-2c-1.1-0.8-2-1.7-2.8-2.5
			c-0.9-0.9-1.7-1.8-2.3-2.8c-1.2-1.8-1.5-4-2.2-6.5c-0.1-0.2-0.1-0.3-0.2-0.5c-0.2-0.3-0.2-0.1-0.5-0.3c0-0.3-0.3-0.6-0.6-0.6
			C485.6,569.6,485.4,569.9,485.4,570.2z"/>
		<path class="st0" d="M660.5,556.9c0,0.4,0,0.8,0,1.2c0,0.4-0.1,0.8-0.2,1.2c-0.2,0.6-0.4,0.9-0.6,1.5c0,0.1-0.1,0.2-0.1,0.3
			c-0.1,0.8,0,1.6-0.1,2.4c-0.4,3.6-1.7,7.1-3.6,10.4c-1.5,2.7-3.3,5.2-5.3,7.7c-2,2.5-4.2,4.8-6.3,7c-1.2,1.2-2.3,2.3-3.4,3.5
			c-0.8,0.9-1.4,1.7-2.1,2.5c-0.4,0.4-0.5,1-0.2,1.5c0.3,0.5,1,0.6,1.4,0.2c0.9-0.5,1.9-1,2.9-1.6c1.3-0.9,2.6-2,3.9-3.1
			c2.4-2.1,4.7-4.5,6.9-7.1c2.2-2.6,4.2-5.4,5.8-8.3c2.1-4,3.6-8.2,3.7-12.4c0-1,0.1-2-0.1-3c0-0.1-0.1-0.2-0.1-0.3
			c-0.3-0.6-0.6-0.9-1-1.5c-0.2-0.4-0.4-0.7-0.6-1.1c-0.2-0.3-0.4-0.7-0.6-1c0-0.1-0.1-0.2-0.2-0.1
			C660.5,556.7,660.4,556.8,660.5,556.9z"/>
		<path class="st0" d="M666,581.4C665.8,580.7,666.2,581.4,666,581.4l0.1,0.2c0,0.2-0.1,0.3-0.2,0.5c-0.7,1.8-1.8,3.3-2.8,4.9
			c-0.9,1.3-1.8,2.5-2.8,3.7c-1,1.1-2.1,2.1-3.2,3.2c-0.4,0.4-1.1,0.5-1.5,0c-0.4-0.4-0.4-1.1,0-1.6c1.1-1.4,2.2-2.9,3.3-4.3
			c1.7-2.1,3.3-4.1,4.7-6.3c0.2-0.4,0.3-1,0.7-1.1c0.8-0.3,0.3-0.3,0.2-0.1c0,0.1,0.1,0.2,0.5,0.4c0.1-0.2,0.3-0.2,0.4-0.1
			c0.1,0.1,0.2,0.3,0.1,0.4C665.7,581.4,665.9,581.5,666,581.4L666,581.4z"/>
		<path class="st1" d="M303.9,736.5c2.1-11.8,7.8-55.7,20.4-71.9c12.6-16.2,25.2-42.3,40.4-52.7c15.2-10.4,58-37.5,69.8-41.8
			c6.5-1.6,1.7-5,1.9-8.6c0.2-3.7,0.2-5.7,8.4-10.8c8.2-5.1,20.3-13.8,27.5-18.1c7.3-4.3,34.9-16.9,36.2-8.6
			c1.3,8.4-9.9,9.7-8.7,16.8c1.2,7.1,11.9,28,19.2,36.2c7.3,8.2,31.8,28.3,35.3,40c3.5,11.7,11.9,48.9,12.7,59.4s2.8,14.6,6.1,6.7
			c3.3-7.9,7.9-14.9,9.3-23.6c1.4-8.7,4.7-31.6,5.5-32.8c0.7-1.2,4.7-14.8,11.5-19.1c6.8-4.3,22.2-17.8,25.3-20s17.3-16.8,18.5-19.9
			s9.8-17.8,8.2-21s-4.4-2.9-7.1-4.5s-4.6-14-3.4-15c1.2-1,5.1-1.2,11.4-0.1c6.3,1,21.7,9.6,24.9,11.7c3.2,2.1,19.8,14.2,21.5,15.2
			s14.1,7.9,15.6,9.5s8.1,4.9,5.7,8c-2.4,3.2-7.1,6.7,0.6,11.1s41.1,19.7,47,21.7c5.9,2,39.8,31.7,43.5,37.4
			c3.7,5.7,28.1,39.6,27.8,81.1c1.1,13.8,3.1,20.4-1.7,21.6S305.3,744.5,304,744C302.6,743.5,303.9,736.5,303.9,736.5z"/>
		<g transform="matrix(0.999953,0.00968074,-0.00968074,0.999953,7.12294,-4.14659)">
			<path class="st2" d="M450.7,274.3c-2.8-14.5,0.9-67.2,1.1-86.4c0.3-22.4,11-55.1,30.7-82.6c19.7-27.4,48.3-49.6,84.6-50.6
				c91.6-2.6,141.2,60.3,139.4,130.2c-1.2,47.1-8,94.5-8.3,97.3c-0.2,1.6,1,3.1,2.5,3.2c1.5,0.2,2.9-1,3-2.7
				c0.2-2.8,7.1-50.4,8.3-97.7C714,112.1,662.6,46,567,48.7c-38.1,1.1-68.2,24.2-88.8,52.9c-20.5,28.7-31.6,62.9-31.8,86.2
				c-0.2,19.5-3.8,72.9-1,87.6c0.3,1.6,1.8,2.6,3.3,2.3C450.1,277.5,451,275.9,450.7,274.3z"/>
			<path class="st2" d="M444.9,333.8c5.6,22.3,8.4,44.2,17.4,65.6c16.2,38.5,52.7,67.2,92.9,76.3c1.5,0.3,3-0.7,3.3-2.3
				c0.3-1.6-0.6-3.2-2.1-3.5c-38.5-8.7-73.5-36.1-89-72.9c-8.9-21.1-11.6-42.8-17.1-64.7c-0.4-1.6-1.9-2.5-3.4-2.1
				C445.3,330.6,444.5,332.2,444.9,333.8z"/>
			<path class="st2" d="M702.9,330.7c-8,61.4-29.7,100.2-71.8,124.3c-16.2,9.3-40.6,20.4-69.5,16.1c-1.5-0.2-2.9,0.9-3.1,2.5
				c-0.2,1.6,0.8,3.1,2.4,3.4c30.2,4.5,55.8-7,72.8-16.7c43.7-24.9,66.4-65,74.7-128.7c0.2-1.6-0.8-3.1-2.4-3.4
				C704.5,327.9,703.1,329,702.9,330.7z"/>
			<path class="st2" d="M451.1,275.5c-4-8.3-12.2-15.1-20.8-17.4c-9-2.3-18.4,0.1-24,10.3c-6.2,11.2-5.7,26.3-0.7,39.9
				c5,13.5,14.4,25.4,25.6,30.7c5.8,2.7,10.6,0.9,14.2-2.8c3.2-3.3,5.4-8.2,6.6-12.4c3.2-11.8-0.7-23.9-5.7-34.5
				c-3.1-6.6-8.7-13.5-16.6-13.9c-7.5-0.3-12.3,6.6-14.2,12.9c-3.6,12.1,0.3,26.3,10.4,34c5.7,4.3,9.9,3.5,12.4,1.2
				c1.5-1.5,2.6-3.7,2.8-6.5c0.3-3.4-0.6-7.7-2.9-11.4c-0.8-1.4-2.6-1.7-3.8-0.8c-1.3,0.9-1.6,2.8-0.8,4.1c1.7,2.7,2.3,5.8,1.9,8.2
				c-0.2,1.1-0.5,2-1.4,2.3c-1.2,0.4-2.9-0.3-5-1.9c-8.1-6.2-11.2-17.6-8.3-27.3c1.2-4.1,3.9-9,8.7-8.8c5.8,0.3,9.7,5.7,11.9,10.6
				c4.4,9.3,8.1,19.8,5.3,30.2c-0.9,3.3-2.6,7.2-5.1,9.8c-2.1,2.1-4.8,3.3-8.1,1.7c-10-4.7-18.2-15.5-22.7-27.5
				c-4.4-11.8-5.1-24.9,0.3-34.7c4.2-7.6,11.3-9.3,18-7.6c7.1,1.8,13.9,7.4,17.2,14.3c0.7,1.5,2.4,2,3.7,1.3
				C451.3,278.7,451.8,277,451.1,275.5z"/>
			<path class="st2" d="M703.2,287.2c2.2-6.9,8.8-15.6,16.4-20.3c7-4.3,14.9-5.3,20.7,3c4.4,6.2,5.1,13.8,3.8,21.3
				c-2.1,12-9.2,24.1-16.2,31.9c-2,2.2-5.7,6.6-9.7,9.4c-2.1,1.4-4.1,2.6-6,2.1c-1.9-0.5-2.9-2.4-3.6-4.4c-0.9-2.6-1.2-5.6-1.3-7.7
				c-0.6-11,4.1-24.3,9.4-33.9c1.8-3.2,4.3-7.4,8.3-7.9c1.6-0.2,2.5,0.8,3.1,2c0.8,1.9,1,4.3,0.9,6.1c-0.1,3.8-1.1,8.5-3.1,12.3
				c-1.8,3.4-4.5,6.3-8.5,6.7c-1.5,0.2-2.6,1.7-2.4,3.3c0.2,1.6,1.5,2.8,3.1,2.6c5.9-0.7,10-4.6,12.7-9.7c2.4-4.7,3.6-10.4,3.8-15
				c0.1-2.6-0.2-6.1-1.4-8.9c-1.5-3.4-4.2-5.9-8.6-5.4c-5.8,0.7-9.9,6.1-12.5,10.8c-5.8,10.5-10.8,25.2-10.1,37.3
				c0.2,3.2,0.7,7.9,2.5,11.5c1.4,2.9,3.5,5.2,6.5,6c3.2,0.9,6.9-0.4,10.4-2.9c4.4-3.1,8.5-7.8,10.6-10.2
				c7.6-8.5,15.4-21.8,17.6-34.9c1.6-9.2,0.5-18.4-4.9-26c-3.2-4.5-6.8-7-10.7-8.1c-5.6-1.6-11.7,0-17.2,3.5
				c-8.8,5.5-16.3,15.6-18.8,23.5c-0.5,1.5,0.3,3.2,1.7,3.8C701.2,289.6,702.7,288.8,703.2,287.2z"/>
			<path class="st2" d="M497.7,443.3c9.1,32.3,23.9,77.9,63,83c36.4,4.7,62-24.4,79-52.5c3.5-5.8,13.3-29.3,12.8-30.8
				c-0.1-0.3-4.5,1.5-4.5,1.5c-4.6,2.1-8.9,4.9-13.2,7.6c-11.1,6.9-41,15.9-54.1,17C537.8,472.9,497.7,443.3,497.7,443.3z"/>
			<path class="st2" d="M496.2,446.8c4.9,29.2,10.6,60.3,6.7,90c-0.2,1.6,0.8,3.1,2.4,3.3c1.5,0.2,2.9-0.9,3.1-2.5
				c3.9-30.3-1.8-62.1-6.8-91.8c-0.3-1.6-1.7-2.7-3.2-2.4C496.9,443.6,495.9,445.2,496.2,446.8z"/>
			<path class="st2" d="M647.5,445.6c-2.7,23.1-8.2,45.7-10.3,68.9c-0.4,4.6-1.2,10-1.1,15.2c0.1,5.8,1.3,11.3,4.8,15.8
				c1,1.2,2.7,1.4,3.9,0.4c1.2-1.1,1.3-2.9,0.3-4.2c-2.7-3.4-3.5-7.7-3.5-12.1c-0.1-5,0.7-10,1.1-14.5c2.1-23.1,7.6-45.7,10.3-68.7
				c0.2-1.6-0.9-3.1-2.4-3.3C649,442.8,647.7,443.9,647.5,445.6z"/>
			<path class="st2" d="M570.5,680c0.3-0.6,0.6-1.3,0.8-2c2.1-5.3,3.5-11.6,4.9-15.5c3.1-9.2,4.1-20.6,6.4-31.2
				c2.5-11.5,6.5-22,15.5-28.3c13.5-9.5,39.8-33.6,47.6-49.6c1-2.1,1.7-4,1.9-5.8c0.1-1.2,0-2.2-0.5-3.1c-0.5-0.8-1.4-1.3-2.6-1.7
				c-1.4-0.5-2.2-2.2-1.7-3.8c0.5-1.6,2-2.4,3.5-1.9c3.4,1.2,5.3,3.3,6.3,5.8c1.2,3.4,0.6,7.9-1.9,13.1c-8.1,16.8-35.4,42-49.4,51.9
				c-7.8,5.5-11,14.7-13.2,24.7c-2.3,10.8-3.4,22.5-6.6,31.9c-1.3,4-2.8,10.4-5,15.8c-1.7,4.1-3.8,7.7-6.5,9.7
				c-0.9,0.7-1.7,0.7-2.3,0.6c-0.7-0.1-1.3-0.5-1.8-1.2c-0.3-0.4-0.6-1-0.6-1.9c0-0.6,0.1-1.8,0.1-2.4c-0.1-1.8-0.2-3.7-0.4-5.5
				c-0.5-5.5-1.2-10.9-2.1-16.3c-2.8-16-6.5-32.2-12.9-47.3c-4.1-9.5-13.6-16-20.8-23c-9.1-9-17.4-18.3-24.8-28.7
				c-9-12.7-11.4-30.5,0.6-42.1c1.1-1.1,2.9-1,3.9,0.2c1,1.2,0.9,3.1-0.2,4.2c-9.7,9.4-7.2,23.8,0.1,34.1
				c7.2,10.2,15.3,19.2,24.2,27.9c7.7,7.6,17.7,14.7,22.1,24.9c6.6,15.5,10.4,32.1,13.3,48.6c1,5.6,1.7,11.2,2.2,16.9
				C570.5,679.4,570.5,679.7,570.5,680z"/>
			<path class="st2" d="M436.6,558c0.2,0.6,0.7,1.9,0.8,2.2c2.7,4.8,6.7,8.3,9,13.4c8.9,20.6,15.3,43.7,28,62.4c0.1,0.1,0.2,0,0.3,0
				c0.4,0,0.9-0.1,1.4-0.2c1.8-0.5,3.6-1.5,4.7-2c9.4-4.1,18.7-8.3,28.6-10.9c4.4-1.2,8.9-2.4,13.4-3c6.2-0.8,13.1-0.8,18.9,2.1
				c9,4.6,14.8,15.1,20.6,22.9c1,1.3,0.8,3.1-0.4,4.2c-1.2,1-2.9,0.8-3.9-0.5c-5.3-7.2-10.4-17-18.7-21.3
				c-4.8-2.5-10.6-2.3-15.8-1.6c-4.3,0.6-8.5,1.7-12.7,2.9c-9.7,2.6-18.8,6.6-27.9,10.7c-1.6,0.7-4.4,2.2-6.8,2.6
				c-2.6,0.4-4.8-0.3-6.2-2.4c-12.9-19-19.5-42.5-28.5-63.4c-2.1-5-6.1-8.3-8.7-12.9c-0.5-0.9-1.6-3.2-1.8-5c-0.2-1.6,0.3-3,1.1-3.9
				c3.6-3.7,10.4-6.4,14.8-9c7.1-4.2,13.5-9.5,20.4-14.1c11.1-7.5,26.2-17.2,40.5-13.6c1.5,0.4,2.4,2,2.1,3.6
				c-0.3,1.6-1.8,2.6-3.3,2.2c-6.3-1.6-12.7-0.1-18.7,2.5c-6.4,2.8-12.5,6.8-17.6,10.3c-6.9,4.7-13.5,10.1-20.7,14.3
				C445.8,552.8,440,554.9,436.6,558z"/>
			<path class="st2" d="M669.4,632.8c0.1-0.1,0.6-0.5,1-0.8c0.8-0.8,1.5-1.8,2.3-3c2.7-4,5.3-9.1,6.4-10.6
				c10.8-14.9,28.3-30.8,35.1-48.1c1.5-3.7-0.9-6-3.8-7.9c-4.2-2.8-9.8-4.9-13.3-7.2c-8.1-5.4-15.1-11.1-22.3-15.9
				c-10.3-7-20.8-12.2-36-11.7c-1.5,0-2.8-1.2-2.8-2.9c0-1.6,1.2-3,2.7-3c26.9-0.8,40.5,14.8,61.3,28.5c4.3,2.8,11.7,5.4,16,9.2
				c3.8,3.4,5.6,7.6,3.3,13.3c-7,17.6-24.8,34.1-35.8,49.4c-1.3,1.8-4.7,8.4-7.8,12.4c-1.9,2.4-3.9,3.9-5.3,4.2
				c-3,0.5-6.2,0-9.4-1.1c-4.2-1.5-8.3-3.9-11.8-5.6c-8.4-4.3-17.4-8.8-26.6-11.3c-8.1-2.2-15.3,1.3-21.3,6.9
				c-6.4,5.9-11.4,14.1-14.4,20.7c-0.7,1.5-2.3,2.1-3.7,1.3c-1.4-0.7-1.9-2.5-1.2-4c4-8.7,11.2-19.8,20.2-26.2
				c6.4-4.5,13.8-6.7,21.8-4.5c9.4,2.6,18.8,7.3,27.5,11.7c2.7,1.4,5.9,3.2,9.2,4.6C663.6,632.4,666.6,633.2,669.4,632.8z"/>
			<path class="st2" d="M438.2,565.2c-47.2,17.1-92.8,51.1-115.8,96.6c-11.4,22.6-18,51.4-20.8,76.4c-0.2,1.6,0.9,3.1,2.4,3.3
				c1.5,0.2,2.9-1,3.1-2.6c2.7-24.2,9.1-52.3,20.2-74.3c22.4-44.2,66.8-77.2,112.7-93.8c1.4-0.5,2.2-2.2,1.7-3.8
				C441.2,565.5,439.7,564.7,438.2,565.2z"/>
			<g transform="matrix(1,0,0,0.780222,0,43.6903)">
				<path class="st2" d="M716.3,690.6c24.8,15.1,48,26.1,69.5,46.3c41.4,38.9,53,97.6,51.3,152.4c-0.1,2.1,1.1,3.9,2.6,4
					c1.5,0.1,2.8-1.5,2.9-3.6c1.8-57.2-10.6-118.4-53.7-159c-21.8-20.5-45.2-31.7-70.4-47c-1.4-0.8-3,0-3.6,1.9
					C714.3,687.5,714.9,689.8,716.3,690.6z"/>
			</g>
			<path class="st2" d="M554.5,247.5c-2.4,7.3-4.6,14.6-6.3,22.2c-1.2,5.4-2.3,10.8-3.3,16.3c-2.6,15.2-4.9,30.4-3,45.8
				c0.8,6.2,1.3,13.4,5.9,18.1c5.4,5.5,14.4,6.9,21.6,6.8c4.9,0,9.5-0.5,14.1-2.2c1.4-0.6,2.2-2.3,1.7-3.8c-0.5-1.5-2.1-2.3-3.5-1.8
				c-4,1.5-8,1.8-12.3,1.9c-6,0.1-13.4-0.7-17.8-5.1c-1.7-1.7-2.5-3.9-3.1-6.3c-0.6-2.8-0.9-5.7-1.2-8.4c-1.8-14.8,0.5-29.4,3-43.9
				c0.9-5.4,2.1-10.7,3.2-16c1.6-7.4,3.7-14.4,6.1-21.5c0.5-1.5-0.2-3.2-1.7-3.8C556.6,245.2,555,246,554.5,247.5z"/>
			<path class="st2" d="M539.7,378.7c19.3,5.5,44.3,1.7,62.3-6.5c1.4-0.6,2.1-2.4,1.5-3.9c-0.6-1.5-2.2-2.2-3.6-1.6
				c-17,7.7-40.6,11.4-58.7,6.2c-1.5-0.4-3,0.5-3.4,2.1C537.3,376.6,538.2,378.2,539.7,378.7z"/>
			<path class="st2" d="M544.3,401.1c5.1,3.6,11.3,5.1,17.8,5.3c9.2,0.2,19.1-2.4,26.7-5c1.4-0.5,2.2-2.2,1.8-3.7
				c-0.5-1.6-2-2.4-3.5-1.9c-7.1,2.5-16.3,4.9-24.9,4.7c-5.4-0.1-10.6-1.3-14.8-4.3c-1.3-0.9-3-0.5-3.8,0.8
				C542.7,398.3,543.1,400.2,544.3,401.1z"/>
			<path class="st2" d="M514.5,246c0.6,0,1.2,0.1,1.8,0.4c1.1,0.5,1.9,1.4,2.4,2.6c0.5,1,0.7,2.3,0.9,3.2c0.7,4,0,8-1.2,11.8
				c-0.4,1.2-1.3,3.7-2.7,5c-1.1,1-2.4,1.5-3.9,1.1c-1.2-0.3-2.2-1.1-3-2.3c-0.7-1-1.1-2.4-1.4-3.3c-1.5-4.7-1.7-10.6,0.9-15
				c1.7-2.9,4.1-3.8,6-3.5C514.3,246,514.4,246,514.5,246z"/>
			<path class="st2" d="M630.3,244.1c0.1-0.1,0.1-0.1,0.2-0.1c1.2-0.7,2.5-0.9,3.7-0.4c0.9,0.3,1.8,1.1,2.4,2.1
				c0.9,1.4,1.4,3.6,1.5,4.7c0.5,4.6,0,9.4-2.4,13.4c-0.6,0.9-1.6,2.2-2.7,3c-1.2,0.8-2.5,1.2-3.8,1c-1.2-0.2-2.2-1-3-2.1
				c-1.1-1.5-1.7-3.9-2-5.1c-0.6-2.8-0.4-7.1,1-10.5c1-2.6,2.7-4.7,4.9-5.7C630.1,244.2,630.2,244.1,630.3,244.1z"/>
			<path class="st2" d="M622.1,228.6c6.4-6.4,17.4-7,24.6-2c1.3,0.9,3,0.5,3.8-0.9c0.8-1.4,0.5-3.2-0.8-4.1
				c-9.1-6.3-23.2-5.4-31.3,2.7c-1.1,1.1-1.2,3-0.1,4.2C619.3,229.6,621,229.7,622.1,228.6z"/>
			<path class="st2" d="M526.6,226.2c-8.3-6.1-21.6-3.4-28.1,4.1c-1,1.2-1,3.1,0.2,4.2c1.1,1.1,2.9,1,3.9-0.2
				c4.8-5.6,14.7-7.7,20.9-3.2c1.3,0.9,3,0.6,3.8-0.8C528.2,229,527.9,227.1,526.6,226.2z"/>
			<path class="st2" d="M550.2,346.4c-19.9,6.2-38.2,15.7-59.2,17.8c-4.3,0.4-10.1,0.6-15.2-0.5c-3.1-0.7-6-1.7-8-3.6
				c-2.6-2.5-1.9-6-0.1-8.6c2.1-2.9,5.7-5,9.3-3.7c0.5,0.2,0.4,0.7,0.2,1.2c-0.3,0.7-0.9,1.4-1.7,1.2c-1.5-0.3-2.9,0.7-3.2,2.3
				c-0.3,1.6,0.7,3.2,2.2,3.5c4.6,1,8-2.9,8.4-6.9c0.3-2.9-0.9-5.8-4.1-7c-5.8-2.1-11.9,0.9-15.4,5.7c-3.7,5.1-4.3,11.9,0.8,16.7
				c2.7,2.5,6.4,4.1,10.6,5c5.7,1.2,12.1,1.1,16.8,0.6c21.4-2.1,40-11.7,60.3-18c1.5-0.5,2.3-2.1,1.9-3.7
				C553.2,346.8,551.6,345.9,550.2,346.4z"/>
			<path class="st2" d="M462.8,348.4c-4.4,6.9-5.3,14.3-3.4,20.7c1.9,6.4,6.5,11.8,13.3,14.8c5,2.2,11,3.4,16.4,3.6
				c14.7,0.5,28.9-6.3,42.9-9.9c18.7-4.8,39-6.8,58.2-7.6c10.4-0.4,21.9-1,32.1,1c10.5,2,20.6,6.4,30.8,9.6
				c5.1,1.6,11.9,3.6,18.4,3.8c4.7,0.1,9.2-0.7,12.9-3c8.5-5.3,11.6-15.3,9-21.7c-1.8-4.5-6.4-7.9-14.4-6.9c-6,0.8-11,9-4.6,13.7
				c2.6,1.9,5.9,1.8,8.9,1.3c1.5-0.2,2.5-1.8,2.3-3.4c-0.2-1.6-1.6-2.7-3.1-2.5c-1.6,0.3-3.5,0.7-4.9-0.3c-0.3-0.2-0.5-0.4-0.5-0.6
				c-0.1-0.4,0.2-0.7,0.5-1c0.5-0.7,1.4-1.2,2.2-1.3c4.7-0.6,7.6,0.7,8.7,3.4c0.6,1.6,0.6,3.5,0.1,5.4c-0.9,3.3-3.3,6.6-6.8,8.9
				c-2.8,1.8-6.4,2.3-10,2.2c-6-0.2-12.3-2-17-3.5c-10.4-3.3-20.7-7.7-31.4-9.7c-10.7-2.1-22.5-1.5-33.3-1.1
				c-19.6,0.8-40.3,2.9-59.3,7.7c-13.6,3.4-27.2,10.2-41.5,9.7c-4.8-0.2-10-1.2-14.4-3.1c-5.1-2.3-8.7-6.3-10.1-11.1
				c-1.4-4.8-0.6-10.4,2.7-15.6c0.9-1.4,0.5-3.2-0.7-4.1C465.3,346.7,463.6,347.1,462.8,348.4z"/>
			<path class="st2" d="M461.4,361.1c-0.6,1.9,0,4.2,0.6,6c1.3,3.8,3.6,6,6.5,7.6c2.4,1.3,5.2,2.1,8.1,3c2.5,0.8,5.4,2,8,1.5
				c1.5-0.3,2.5-1.8,2.3-3.4c-0.2-1.6-1.7-2.7-3.2-2.5c-1.8,0.3-3.8-0.8-5.5-1.3c-2.1-0.7-4.2-1.3-6-2.1c-2.2-1-4.1-2.2-5-4.9
				c-0.1-0.4-0.3-0.9-0.4-1.4c-0.1-0.3-0.2-0.5-0.1-0.7c0.5-1.5-0.3-3.2-1.7-3.8C463.5,358.7,461.9,359.5,461.4,361.1z"/>
			<path class="st2" d="M466.6,370.3c5.5,1.7,10.5,4.3,16.3,5c7.4,0.9,15.9-1.6,23-3.8c1.5-0.4,2.3-2.1,1.9-3.7
				c-0.4-1.6-1.9-2.5-3.4-2c-6.4,2-14.1,4.4-20.9,3.6c-5.5-0.6-10.2-3.1-15.3-4.7c-1.5-0.5-3,0.4-3.4,2
				C464.3,368.2,465.1,369.9,466.6,370.3z"/>
			<path class="st2" d="M473.6,373.2c0.2,0.2,0.5,0.3,0.6,0.4c2.9,1.4,7,3.1,10.3,2.9c4.7-0.3,9.3-1.5,13.8-2.7
				c5.7-1.6,12.1-3.5,16.4-8c1.1-1.1,2.8-1.1,3.9,0.1c1.1,1.2,1,3.1,0,4.2c-4.9,5.1-12.2,7.7-18.9,9.5c-4.8,1.3-9.8,2.6-14.8,2.9
				c-4.1,0.3-9.3-1.7-12.9-3.4c-1.2-0.6-3.2-2.1-4-3.5c-0.6-1.1-0.7-2.2-0.4-3.2c0.2-0.9,0.8-1.9,2.1-2.7c1.3-0.8,3-0.3,3.8,1.1
				C473.8,371.6,473.9,372.5,473.6,373.2z"/>
			<path class="st2" d="M481.8,380.1c8.3,0.4,17.2-3.3,24.7-6.3c13.7-5.4,27.1-12.4,41.3-16.6c3.1-0.9,6-0.2,9.1,0.3
				c4.5,0.7,9.4,1.4,14,0.9c1.5-0.2,2.6-1.6,2.5-3.2c-0.2-1.6-1.5-2.8-3-2.7c-4.2,0.4-8.5-0.3-12.6-0.9c-3.9-0.6-7.5-1.3-11.4-0.2
				c-14.3,4.2-27.9,11.3-41.8,16.7c-6.9,2.7-15,6.3-22.6,5.9c-1.5-0.1-2.8,1.2-2.9,2.8C479,378.7,480.2,380.1,481.8,380.1z"/>
			<path class="st2" d="M522.8,365.1c0.2-0.8,0.6-1.5,1.3-1.9c5.1-3.2,11.3-5.2,17-7c4-1.2,7.9-1.8,12.1-1.9c2.1,0,4.3,0.1,6.5,0.3
				c0.9-0.1,1.9-0.1,2.8-0.1c1.6,0,3.3,0.1,4.9,0.3c0.4,0.1,0.9,0.1,1.3,0.2c0.4,0,1.3,0.2,1.4,0.3c0.9,0.3,1.4,0.9,1.6,1.5
				c1.3,0,2.7,0.1,4,0.3c1.6,0.2,3.8,1.1,4.7,2.6c0.6,0.9,0.8,1.9,0.2,3c-0.1,0.2-0.4,1.1-1.7,1.5c-0.5,0.2-3.4,1-3.6,1
				c-2.5,0.5-5,1-7.5,1.4c-6.3,1-12.7,2-19,3.2c-10.5,1.9-20.6,5.2-30.9,8c-6.5,1.8-13.1,3.2-19.6,4.6c-2.1,0.4-4.3,0.5-6.4,1
				c-1.5,0.3-3-0.7-3.3-2.3c-0.3-1.6,0.6-3.2,2.1-3.5c2.2-0.5,4.4-0.6,6.6-1c3.3-0.7,6.7-1.4,10-2.2c-0.1-0.3-0.2-0.5-0.2-0.7
				c-0.1-0.7,0-1.4,0.4-2.1c0.2-0.3,1.7-1.4,1.7-1.4s-0.2,0.1-0.3,0.1c0.5-0.3,0.7-0.4,1.3-0.6c1.5-0.7,3-1.3,4.6-1.9
				C517.6,366.9,520.2,366,522.8,365.1z"/>
			<path class="st2" d="M569.1,359.4c-0.5-0.4-0.7-1-0.8-1.3c-0.3-0.7-0.4-1.8,0.4-2.9c0.1-0.2,0.3-0.4,0.6-0.6
				c0.3-0.2,1.2-0.7,1.6-0.9c1.6-0.9,3.3-1.6,5-2.2c4-1.3,8.2-2.1,12.2-3c7.2-1.7,14.5-3.4,21.9-3.2c7,0.2,14,2.5,20.5,5
				c3.8,1.4,7.6,3.4,11,5.7c1.1,0.8,2.3,1.5,3.4,2.3c0.2,0.1,1,0.5,1.2,0.6c0.6,0.4,0.9,0.9,1.1,1.3c0.1,0.2,0.2,0.5,0.2,0.7
				c2.3,1.1,4.7,2.1,7.1,3c7,2.8,14.1,6.4,21.6,7.5c1.5,0.2,3.3,0.5,5,0.3c1.3-0.1,2.6-0.4,3.5-1.2c1.2-1,2.9-0.8,3.9,0.4
				c1,1.3,0.8,3.1-0.4,4.2c-0.7,0.6-1.5,1.1-2.3,1.5c0,0.4,0,2.4-2,3c-0.1,0-1.1,0.3-1.4,0.4c-1,0.3-2.1,0.4-3.1,0.5
				c-3,0.2-5.9-0.1-8.7-0.9l-0.1,0c-0.4-0.1-0.9-0.2-1.3-0.3c-2.6-0.6-5.1-1.4-7.7-2.2c-4.8-1.3-9.6-2.7-14.4-4.3
				c-12-3.8-24.5-6.9-37.2-7.3c-6.2-0.2-12.5-0.2-18.7,0.1c-5.5,0.3-11.1,1.3-16.6,0.9c-1.2-0.1-1.8-0.6-2.2-1.2
				c-1.1,0.1-2.2,0.1-3.3,0.1c-2.4,0-2.7-2.1-2.8-2.5c-0.1-0.7-0.1-2,1.1-2.9C567.6,360,568.6,359.6,569.1,359.4z M637.7,364
				c2.2,0.6,4.3,1.2,6.4,1.8l-0.9-0.4l-1.3-0.6c-0.7-0.1-1.5-0.4-2.1-0.5C639.2,364.3,638.4,364.2,637.7,364z"/>
			<path class="st2" d="M640.8,369.1c1.7-0.7,3.6,0,5.3,0.5c3.2,1,6.3,2.1,9.4,3.3c1.4,0.5,3-0.3,3.5-1.8c0.5-1.5-0.3-3.2-1.7-3.8
				c-3.2-1.2-6.4-2.3-9.6-3.4c-2.8-0.9-5.9-1.5-8.7-0.4c-1.4,0.6-2.2,2.3-1.6,3.8C637.8,368.9,639.3,369.6,640.8,369.1z"/>
			<path class="st2" d="M580.6,355.3c8.1-4,19.6-8.8,28.9-8.4c15.8,0.7,30.3,11.8,44.1,18.3c2.2,1.1,4.5,2.1,6.8,3
				c4.6,1.9,12.2,5.8,19.1,6.7c5.4,0.7,10.4-0.4,13.6-4.7c1-1.3,0.8-3.1-0.4-4.2c-1.2-1-2.9-0.8-3.9,0.4c-2,2.7-5.3,3-8.7,2.6
				c-6.4-0.8-13.5-4.6-17.8-6.3c-2.2-0.9-4.4-1.9-6.5-2.9c-14.4-6.8-29.7-18.1-46.1-18.8c-10-0.4-22.5,4.6-31.4,8.9
				c-1.4,0.7-2,2.4-1.4,3.9C577.6,355.3,579.2,356,580.6,355.3z"/>
		</g>
	</g>
	<g transform="matrix(1.07011,0,0,1.10621,-3.66587,-21.6103)">
		<path class="st3" d="M513,310.2c-0.1,0.4-0.2,0.8-0.4,1.2c-1.7,4.5-5.5,7.6-11.5,6.4c-6.4-1.3-9.6-7.9-8.7-14.8
			c0.8-6.5,4.9-12.4,10.3-13.1c5.5-0.7,9.5,2.5,11.3,7.3C515.5,301.2,515.2,306.4,513,310.2z"/>
	</g>
	<g transform="matrix(1.07011,0,0,1.10621,-3.66587,-21.6103)">
		<path class="st3" d="M649.2,287.1c2.6-1,5.3-1,7.7,0.2c2.5,1.2,5.4,4.1,5.9,10.2c0.1,1.1,0,2.1-0.1,3.2c-0.1,0.9-0.4,1.9-0.7,2.8
			c-0.5,1.3-1.1,2.6-2,3.8c-0.2,0.3-0.5,0.7-0.8,1c-1.4,3.7-4.2,6.5-8.4,7c-2.5,0.2-4.8-0.3-6.7-1.4c-5-2-7.6-8.1-6.5-14.5
			c0.4-2.6,1.3-5.1,2.6-7C642.6,288.7,645.8,286.7,649.2,287.1z"/>
	</g>
</g>
<g>
	<g transform="matrix(1.07011,0,0,1.10621,-14.8957,-47.0653)">
		<g transform="matrix(1,0,0,0.95693,0,18.1888)">
			<path class="st4" d="M1345.3,794.4l316.7,2.3c0,0-18.8-49.1-24.6-70.1c-4.2-15.1-8.4-57,4.4-85.1c1.4-3.1-14-9.7-14.7-9.2
				c-6,3.7-45.9,43.9-113,43.1c-69.2-0.8-104-35.7-115.2-43.1c-0.9-0.6-15.7,6.9-15.2,9.2c4.4,18.4-7.3,82.5-12,97.9
				C1365.6,759.3,1355,776.2,1345.3,794.4z"/>
			<path class="st0" d="M1414.8,388.7c0.5,53.3,24.1,112.7,62.8,149.5c15.7,15,38,31.3,61.1,28.4c19.8-2.5,36.8-20.8,48.7-35.3
				c28.6-35,51.2-71.1,60.1-116.3c0.3-1.6-0.7-3.1-2.2-3.4c-1.5-0.3-3,0.7-3.3,2.3c-8.7,44.2-30.9,79.4-58.9,113.7
				c-11.1,13.5-26.6,31-45,33.3c-21.4,2.7-41.9-13-56.5-26.9c-37.6-35.7-60.5-93.6-61-145.3c0-1.6-1.3-2.9-2.9-2.9
				C1416,385.8,1414.8,387.1,1414.8,388.7z"/>
			<path class="st0" d="M1526.4,372.5c-0.7,4.5-2,8.9-3,13.3c-2.7,12.2-13.8,26.1-14.3,38.7c-0.2,4.1-0.2,8.9,1,13
				c1.4,4.7,4.3,8.5,10,9.6c2.5,0.5,5,0.5,7.5,0.5c3.3,0,6.6-0.3,9.8-1.3c1.3-0.4,2.1-1.8,1.7-3.1c-0.4-1.3-1.8-2.1-3.1-1.7
				c-2.7,0.8-5.5,1.1-8.4,1.1c-2.2,0-4.4,0.1-6.6-0.4c-3.6-0.7-5.4-3.2-6.3-6.1c-1-3.6-0.9-7.8-0.8-11.4
				c0.5-12.2,11.5-25.9,14.2-37.8c1-4.6,2.4-9,3.1-13.7c0.2-1.4-0.7-2.7-2.1-2.9C1527.9,370.2,1526.6,371.2,1526.4,372.5z"/>
			<path class="st0" d="M1481.2,371.2c0.9-0.6,1.7-0.9,2.4-0.9c0.4,0,0.9,0,1.4,0.1c0.4,0.1,0.7,0.1,1.1,0.3
				c1.2,0.4,2.2,1.3,2.8,2.6c0.6,1.1,0.8,2.5,0.9,3.5c0.3,2.4-0.1,9.3-2.4,12.6c-1.6,2.2-3.8,3.3-6.7,2.4c-0.9-0.3-1.7-1-2.4-2
				c-0.2-0.4-0.4-0.8-0.6-1.2c-0.8-1-1.4-2.4-1.6-3.9c-0.4-2.7,0.1-6.2,1.3-8.9C1478.5,373.6,1479.7,372.1,1481.2,371.2z"/>
			<path class="st0" d="M1585.5,369.5l0.2-0.1c1.4-0.9,2.9-1.2,4.4-0.8c0.6,0.2,1.2,0.6,1.8,1.2c0.1,0.1,0.2,0.2,0.4,0.2
				c1.4,1.1,2.3,3.1,2.4,5.5c0.1,4.1-1.8,9.6-3,11.3c-0.7,1.1-2.4,2.8-4.1,3.5c-1.2,0.5-2.5,0.6-3.6,0.1c-0.8-0.3-1.5-0.9-2.1-1.8
				c-0.4-0.5-0.6-1.2-0.9-1.8c-0.8-1.1-1.3-2.6-1.5-4.2c-0.5-3.6,0.6-8,1.8-9.8c0.2-0.3,1.5-1.8,2.7-2.7
				C1584.4,370,1585,369.7,1585.5,369.5z"/>
			<path class="st0" d="M1621.1,331.3c0.5,0.2,0.9,0.5,1.1,0.8c0.4,0.5,0.3,1.1-0.4,1.6c-0.7,0.5-1.9,0.8-3.4,0.8
				c-1.5,0-3.6-0.3-4.4-0.4c-4.4-0.7-7.6-1.5-12.5-1.3c-5.5,0.3-10.4,1-15.6,1.7c-1.2,0.2-3.9,0.6-5.7,0.4c-1.6-0.1-2.9-0.5-3.5-1.3
				c-0.4-0.4-0.4-0.9-0.1-1.3c0.4-0.6,1.5-1.2,2.3-1.5c2.6-1.1,5.6-1.8,9.1-2.3c8.2-1.2,16.7-0.8,24.8,0.5c2.5,0.4,5.3,0.9,7.4,1.6
				C1620.6,330.8,1621,331,1621.1,331.3z"/>
			<path class="st0" d="M1467.6,330.4c3.5-0.9,7.6-1.5,11.3-1.7c10.9-0.6,22.3,1,30.6,4.6c0.6,0.2,1.1,0.4,1.5,0.6
				c0.2,0.1,0.5,0.3,0.7,0.4c0.5,0.2,0.9,0.5,1.3,0.7c0.9,0.5,1,1.3,0.2,1.8c-0.1,0.1-0.1,0.2-0.2,0.3c-0.5,0.6-1.4,1-2.7,1.1
				c-1.4,0.2-3.8-0.1-5.1-0.3c-2.6-0.4-5.1-1-7.5-1.6c-2.1-0.5-4.1-0.9-6.4-1c-7-0.4-13.8,0.5-20.7,0.7c-1.5,0.1-3.9,0.1-5.9-0.2
				c-2-0.3-3.6-0.9-4.3-1.9c-0.4-0.6-0.3-1.2,0.6-1.8c0.6-0.4,2-0.8,2.4-1C1464.8,331,1466.2,330.7,1467.6,330.4z"/>
			<path class="st0" d="M1492.9,481.9c2.9,0.9,5.9,1.6,8.9,2.2c3.7,0.8,7.4,0.5,11.1,0.7c9.3,0.5,18.2,0.3,27.4-1.5
				c5-1,9.7-2.7,14.4-4.7c2.9-1.3,5.9-2.4,7.2-5.3c0.4-0.8,0.9-1.3,1.5-1.6c0.8-0.4,1.8-0.5,2.8-0.1c0.7,0.3,1.5,0.9,2.1,1.5
				c0.7,0.7,1.1,1.5,1.2,1.8c0.5,1.5-0.2,3.1-1.7,3.7c-0.8,0.3-1.7,0.2-2.3-0.2c-2.1,2.5-5.2,4.1-8.5,5.5c-5,2.1-10.1,3.9-15.5,5
				c-9.7,2-19,2.1-28.8,1.6c-4-0.2-8,0-12-0.8c-4.5-0.9-9-2-13.2-3.8c-0.7-0.3-1.3-0.8-1.6-1.6c-0.2-0.4-0.3-1-0.2-1.8
				c0.1-0.4,0.4-1.2,1-2c0.8-1.2,2.2-2.8,2.4-2.9c1.2-1.1,3-0.9,4,0.3C1494,479,1494,480.7,1492.9,481.9l0.1-0.1L1492.9,481.9z"/>
			<path class="st0" d="M1508.3,503.9c9,6.8,22.6,5.6,32.5,1.1c1.4-0.6,2.1-2.3,1.4-3.8c-0.6-1.5-2.3-2.1-3.8-1.5
				c-8.2,3.7-19.4,5.1-26.8-0.5c-1.3-0.9-3-0.7-4,0.6C1506.8,501.2,1507.1,503,1508.3,503.9z"/>
			<path class="st5" d="M1552.6,209.4c-44.7,8.8-77.1,39.4-93.3,81.6c-8.1,21.1-10.7,45.3-22.5,64.9c-6.7,11.2-17.4,20.5-26.8,30.6
				c-10,10.6-18.5,22-20.4,36.7c-2,15.9,4.3,29.8,10.7,43.8c5.9,13,11.9,26,9.9,41c-2.6,19-16.1,35.2-26.3,52.1
				c-10.9,18-18.3,36.7-7.7,59.3c0.7,1.4,2.4,2.1,3.8,1.4c1.4-0.7,2-2.4,1.4-3.8c-9.6-20.6-2.5-37.5,7.4-53.8
				c10.6-17.5,24.4-34.6,27.1-54.3c2.2-16.1-4-30.2-10.4-44.2c-5.9-13-12-25.9-10.2-40.6c1.7-13.4,9.7-23.7,18.8-33.5
				c9.7-10.3,20.6-20,27.5-31.5c11.9-19.9,14.6-44.3,22.9-65.8c15.5-40.2,46.4-69.5,89.1-78c1.5-0.3,2.5-1.8,2.2-3.4
				C1555.7,210.1,1554.2,209.1,1552.6,209.4z"/>
			<path class="st0" d="M1390.6,422.9c0.7,3.3,1.5,6.6,2.7,9.8c0.9,2.7,2.1,5.3,3.3,7.9c2.3,4.9,8.4,13.7,15.4,18.5
				c5.4,3.7,11.2,5.1,16.6,2c1.4-0.8,1.9-2.5,1.1-3.9c-0.8-1.4-2.5-1.9-3.9-1.1c-3.4,2-7.1,0.6-10.6-1.8c-6.2-4.3-11.5-12-13.5-16.3
				c-1.1-2.4-2.2-4.8-3.1-7.3c-1.1-3-1.8-6.1-2.5-9.2c-0.3-1.5-1.9-2.5-3.4-2.2C1391.2,419.9,1390.2,421.4,1390.6,422.9z"/>
			<path class="st0" d="M1421.8,408.3c-2.7-4.3-6.8-6-10.7-5.6c-3.8,0.4-7.6,2.8-9.6,7c-2.7,5.6-3,16.2,0.1,24.4
				c2.2,6,6.1,10.6,11.6,11.9c2,0.5,3.9,0,5.5-1c2.1-1.3,3.7-3.6,4.4-5.7c1.2-3.6,0.8-11.7-1.9-16.9c-2.3-4.4-5.9-6.8-10.8-5
				c-1.5,0.5-2.2,2.2-1.7,3.7c0.5,1.5,2.2,2.3,3.6,1.7c1.8-0.7,3,0.6,3.9,2.3c2,3.8,2.5,9.7,1.6,12.3c-0.3,0.9-0.9,1.8-1.7,2.4
				c-0.5,0.4-1,0.7-1.7,0.6c-3.7-0.9-6.1-4.3-7.5-8.3c-2.5-6.7-2.5-15.4-0.3-19.9c1.1-2.2,3-3.6,5.1-3.8c2-0.2,4,0.8,5.3,2.9
				c0.8,1.3,2.6,1.7,3.9,0.9C1422.2,411.5,1422.6,409.7,1421.8,408.3z"/>
			<path class="st0" d="M1632.3,460.8c7.3,3.6,13.5,1.6,18.3-3c6.5-6.2,10.3-17.6,10.6-25.1c0.1-1.6-1.2-2.9-2.7-3
				c-1.6-0.1-2.9,1.2-3,2.8c-0.2,5.3-2.5,12.9-6.4,18.3c-3.4,4.7-8.3,7.8-14.4,4.8c-1.4-0.7-3.1-0.1-3.8,1.3
				C1630.3,458.3,1630.9,460.1,1632.3,460.8z"/>
			<path class="st0" d="M1639,439.9c3.1,2.7,6.6,2.6,9.8,1.1c2.7-1.3,5.1-3.8,6.4-6.2c0.7-1.4,0.2-3.1-1.2-3.9
				c-1.4-0.7-3.1-0.2-3.8,1.2c-0.8,1.5-2.2,3-3.8,3.8c-1.2,0.6-2.5,0.7-3.6-0.3c-1.2-1-3-0.9-4,0.3
				C1637.7,437,1637.8,438.9,1639,439.9z"/>
			<path class="st1" d="M1572.5,131.8c-10.6-5.9-23.6-8.2-35.6-8.6c-10-0.4-19.8,1.6-29.3,4.3c-40.3,11.3-64.8,44.8-82.1,80.8
				c-7.7,16.1-14.4,33.9-25.4,48.2c-23.9,31.2-62.3,54.9-74.8,93.9c-6.4,19.9-3.5,39.9-5.8,60.3c-1.8,15.5-7.3,30.1-15.3,43.4
				c-16.1,26.8-32,33.5-29,67.7c1.3,15.2-1.4,49.2-17.5,67.9c-10.6,12.3,58.7,43.9,109.7,35.6c44.1-7.2,98.2-7.8,102.3-69.9
				c1.8-26.9-11.7-44.9-24.6-66.7c-5.1-8.6-8.5-19.7-15.1-27.2c-2.4-2.8-4.2-18.7-7.6-20.3c-7.4,14.2-20.2-1.4-22.9-11.5
				c-2.5-9.2-1.1-16.5,3.3-24.3c9.3-16.3,21.8-31,32.6-46.3c18.6-26.2,19.6-60.7,35.8-88.6c10.7-18.6,28.4-30.7,46-42.1
				c7.8-5.1,16-9.5,24.3-13.8c2.4-1.3,7.2-5.2,10-5.1c11.2,0.4,27.9,15.3,35.5,23c18.9,19,25.9,48.8,37.5,72.5
				c7.1,14.4,18,29.4,20.1,45.7c1.9,15.6-3.6,30.6-2,45.9c1,9.6,3.8,27.7,10.2,34.8c9.7,10.7,2.8,6.9,0,14.9
				c-5.8,16.8-19.1,11.3-19.1,11.3c-16.5,35.5-38.3,57.8-44.3,64.3c-1.9,2-2,62.2,5.6,76.3c6.1,11.4,18,21.7,29.5,27.2
				c38.3,18.2,82,10.9,114.8,13.9c34.8,3.1,31.5-16.1,33.3-27.2c3.5-21.8-9.6-35,0-77.9c5.4-24.4,11.2-45.1,0-80
				c-10.2-31.8-37.2-47.8-47.1-79.9c-7.4-23.8-8.1-47.6-11.9-72c-5.5-36.1-14.4-71.8-32-104c-17.8-32.7-61.2-86.9-105-67.3"/>
			<path class="st0" d="M1460.7,519.7c3,19.7,8.1,44.4-0.3,63.6c-7.9,18-26.6,26.7-42.6,36.1c-35.2,20.7-76.8,33.8-107.5,61.6
				c-23.9,21.6-31.6,60.6-33.5,91.1c-0.1,1.6,1.1,3,2.7,3.1c1.6,0.1,2.9-1.1,3-2.7c1.8-29.2,8.8-66.5,31.6-87.2
				c30.4-27.5,71.7-40.4,106.5-60.9c17-10,36.5-19.6,44.9-38.7c8.8-20.1,3.9-46.1,0.7-66.8c-0.2-1.6-1.7-2.7-3.2-2.4
				C1461.6,516.7,1460.5,518.1,1460.7,519.7z"/>
			<path class="st0" d="M1586.8,525.9c-0.5,14.9-2.2,30.7-1.5,46c0.8,15.8,4.2,31,14,44.3c8.2,11.1,20,18.5,32.7,24.4
				c12.3,5.8,25.4,10.2,36.7,15.8c21.1,10.4,45.9,23.7,60.2,42.8c14.6,19.4,18.4,44.6,20.2,68.2c0.1,1.6,1.5,2.8,3.1,2.6
				c1.6-0.1,2.7-1.5,2.6-3.1c-1.9-24.7-6.1-50.9-21.3-71.2c-14.9-19.8-40.4-33.7-62.3-44.5c-11.3-5.6-24.5-10.1-36.8-15.9
				c-11.8-5.6-22.9-12.3-30.5-22.6c-9.1-12.4-12.2-26.5-12.9-41.2c-0.8-15.1,1-30.8,1.5-45.5c0.1-1.6-1.2-2.9-2.8-3
				C1588.2,523.1,1586.9,524.3,1586.8,525.9z"/>
			<path class="st5" d="M1554.2,214c4.6,4.4,10.1,7.4,15.6,10.6c5.1,2.9,10.1,5.8,14.2,10.1c8.8,9.4,13.9,19.8,18.2,30.6
				c4.5,11.2,8.2,22.7,14.2,33.9c7.9,14.7,18.8,25.9,22.4,42.9c2.2,10.3,0.8,20.8-0.4,31.3c-1.2,11.2-2.2,22.3,1.1,33.1
				c4.3,14.5,13.6,25.9,21.9,37.7c7.9,11.1,15,22.6,15.7,37.9c0.6,13.7-4.9,25.3-10.6,36.7c-6.1,12.2-12.4,24.3-13,38.1
				c-0.3,7.2,1.9,14,4.9,20.6c2.8,6.1,6.4,12,8.9,18c5.4,12.5,6.4,25.6,2.8,38.6c-0.4,1.5,0.5,3.1,2,3.6c1.5,0.4,3.1-0.5,3.5-2
				c4-14.3,2.9-28.8-3-42.5c-2.6-6-6.1-12-9-18.1c-2.6-5.7-4.7-11.6-4.4-17.9c0.5-13,6.6-24.3,12.4-35.8
				c6.1-12.3,11.8-24.8,11.2-39.5c-0.7-16.5-8.2-29-16.7-40.9c-8-11.3-16.9-22.1-21.1-36c-3-10-2-20.4-0.8-30.7
				c1.2-11.1,2.6-22.2,0.3-33.1c-3.8-17.6-14.9-29.2-23-44.4c-5.9-11-9.5-22.4-14-33.4c-4.6-11.4-10-22.4-19.4-32.4
				c-4.5-4.7-9.9-8-15.5-11.2c-5.1-2.9-10.3-5.7-14.5-9.7c-1.1-1.1-2.9-1-4,0.1C1553,211,1553,212.9,1554.2,214z"/>
			<path class="st5" d="M1398.8,413.8c-0.5,0.3-0.7,0.2-1,0.7c-0.3,0.4-0.3,0.9-0.5,1.3c-2.5,6.8-5.2,13.5-7.1,20.4
				c-1.4,5.2-2.3,10.6-2.2,16.2c0.1,4.6,0.6,9.1,1.3,13.4c1.1,6.5,2.5,12.9,3.1,19.5c0.4,4.4,0.5,9-0.3,13.7
				c-0.8,5.1-2.3,9.7-4.3,14.1c-4.9,10.8-12,20.1-16.3,31.6c-2,5.4-2.9,10.9-2.9,16.5c0,5.5,0.8,11,2.5,16.5c1,3.4,2.3,6.6,3.8,9.8
				c1.5,3.2,3.2,6.2,5,9.2c0.1,0.2,0.4,0.3,0.6,0.1c0.2-0.1,0.3-0.4,0.1-0.6c-1.8-3-3.4-6-4.8-9.2c-1.4-3.1-2.6-6.4-3.5-9.7
				c-1.5-5.3-2.2-10.7-2-16.1c0.2-5.3,1.2-10.6,3.2-15.7c4.6-11.4,12.1-20.4,17.2-31c2.2-4.6,4-9.4,5-14.9c0.9-5,0.9-9.9,0.6-14.6
				c-0.5-6.7-1.9-13.2-3.1-19.8c-0.7-4.2-1.4-8.5-1.6-12.9c-0.2-4,0.1-7.8,0.8-11.5c1.4-8.2,4.2-16,6.7-24c0.2-0.5,0.4-1.1,0.5-1.6
				c0-0.1,0-0.1,0-0.2c-0.1-0.5-0.2-0.6-0.4-1.1c0-0.1,0-0.2-0.1-0.2C1398.9,413.6,1398.8,413.7,1398.8,413.8z"/>
			<path class="st5" d="M1652.7,437.8c-0.3,0.9-0.6,0-0.3,1c0.1,0.2,0.4,0.3,0.6,0.5c1.4,1.3,2.5,2.9,3.5,4.6
				c0.6,1.1,1.2,2.3,1.7,3.5c1.4,3.5,2.3,7.3,2.8,10.7c1.1,7.1,0.5,13.9-1.1,20.6c-1.6,6.7-4.3,13.3-7.3,19.7
				c-2.4,5-5.1,9.9-7.2,15.1c-1.4,3.6-2.5,7.3-2.9,11.2c-0.5,4.2,0.3,8.2,1.6,12c1.4,4.2,3.6,8.2,5.6,12.3c1.9,3.9,3.6,7.8,4.3,12
				c0.8,4.6,0.4,8.4-0.6,11.9c-1.7,5.7-5,10.7-7.9,17.1c-0.1,0.2,0,0.5,0.2,0.7c0.2,0.1,0.5,0,0.7-0.2c3.4-6.3,7.1-11.1,9.2-16.8
				c1.4-3.8,2.1-8,1.5-13.1c-0.6-4.6-2.3-8.9-4.2-13.1c-1.8-4-3.9-7.9-5.3-12c-1.1-3.3-1.8-6.7-1.4-10.4c0.4-3.5,1.4-6.9,2.7-10.2
				c2-5.1,4.7-10,7.1-14.9c3.8-8,7-16.3,8.4-24.8c1-5.8,1.1-11.7,0.1-17.7c-0.8-4.4-2.1-9.4-4.5-13.6c-1.5-2.6-3.4-4.9-5.7-6.6
				c-0.2-0.1-0.3-0.3-0.5-0.3c-0.9,0-0.1,0-0.9,0.5c-0.1-0.1-0.2,0-0.3,0C1652.6,437.6,1652.6,437.7,1652.7,437.8z"/>
			<path class="st5" d="M1549.5,228.3c0.4-0.2,0.6-0.1,0.8-0.5c0.6-0.7,0.5-1.8,0.8-2.6c1.1-4,2.1-8,2.9-12.1
				c1.2-6.1,2.2-12.2,2.9-18.4c1.3-12,1.7-24.1,1.6-36.1c0-5.2-0.2-10.3-0.4-15.5c0-0.1-0.1-0.2-0.2-0.2c-0.1,0-0.2,0.1-0.2,0.2
				c0,5.7-0.2,11.4-0.4,17.2c-0.3,8.5-0.9,17.1-1.7,25.6c-0.6,6.4-1.5,12.7-2.5,19.1c-1,6.3-2.2,12.6-3.6,18.9
				c-0.3,1.1-0.5,2.2-0.8,3.3c0,0.1,0,0.1,0,0.2c0.1,0.5,0.2,0.4,0.5,0.8c0,0.1,0,0.2,0.1,0.2
				C1549.3,228.4,1549.4,228.4,1549.5,228.3z"/>
			<path class="st5" d="M1559.3,180.6c-0.7,0.2-1.4,0.2-2.1,0.5c-1.4,0.6-2.6,1.6-3.9,2.4c-7,3.9-14.4,6.5-21.8,8.8
				c-11.4,3.5-23.1,6.2-34.2,10.8c-8.7,3.6-17,8.3-24.4,15.4c-8,7.7-13.1,16.2-16.8,25.1c-8.6,21.2-8.8,45.1-19.4,66.6
				c-3.3,6.8-7,13.5-11.2,19.8c-4.2,6.2-8.8,12.1-14.3,17.4c-9.1,8.9-19.3,17.1-28,26.6c-5.9,6.4-11.1,13.5-14.7,21.6
				c-3.8,8.6-5.5,17.6-6.1,26.9c-1.3,20.7,2.7,42.5-2,62.9c-2.3,9.8-6.4,18.6-11,27.2c-7.2,13.4-15.4,25.9-19.7,40.1
				c-2.1,7-3.3,14.3-2.9,22.3c0.2,3.1,0.6,6.3,1.3,9.6c0.1,0.3,0.4,0.5,0.7,0.5c0.3-0.1,0.5-0.4,0.5-0.7c-0.6-3.3-0.9-6.4-0.9-9.4
				c-0.3-7.8,0.9-14.9,3.1-21.7c4.4-14,12.8-26.3,20-39.5c4.8-8.7,9-17.7,11.4-27.7c4.9-20.4,1.1-42.4,2.6-63.3
				c0.6-8.8,2.2-17.5,6-25.7c3.5-7.8,8.5-14.5,14.2-20.6c8.7-9.4,18.9-17.5,28-26.3c5.6-5.5,10.4-11.6,14.7-18
				c4.3-6.4,8-13.2,11.4-20.2c10.6-21.6,10.7-45.6,19.3-66.9c3.5-8.6,8.3-16.7,15.9-24.1c7.1-6.9,15.1-11.4,23.4-14.9
				c11-4.6,22.7-7.2,33.9-10.9c7.6-2.5,15-5.5,22-9.8c1.3-0.8,2.7-1.6,4-2.6c0.1-0.1,0.2-0.2,0.3-0.3c0.4-0.5,0.6-0.9,0.9-1.5
				c0.1-0.1,0.1-0.2,0-0.3C1559.5,180.5,1559.4,180.5,1559.3,180.6z"/>
			<path class="st5" d="M1556.4,181.2c0.6,0.5,0.8,1,1.5,1.4c0.8,0.4,1.7,0.5,2.5,0.8c11.6,3.7,24,10.3,35,18.7
				c12.3,9.5,22.7,21.2,27.5,33.8c5.9,15.5,6.7,33.2,11.3,49.2c1.2,4.2,2.7,8.2,4.5,12.1c7.4,15.7,21.2,27.4,30.5,42
				c2.2,3.5,4.2,7.2,5.7,11.2c6.2,16.5,3.3,34.4,6.2,51.5c0.7,4.4,1.8,8.7,3.5,13c5.3,13.6,15.6,24.6,21.7,37.6
				c2.5,5.3,4.3,11,4.7,17.3c0.3,4.4-0.2,8.6-1.2,12.7c-4.2,17.1-16.7,31.9-17.4,50c-0.5,16.2,5.6,30.7,6.7,46.1
				c0.4,6.3,0,12.7-2.1,19.5c0,0.2,0,0.3,0.2,0.4c0.1,0.1,0.3,0,0.4-0.2c2.4-6.8,3.1-13.4,2.9-19.8c-0.5-15.4-6.3-29.9-5.5-46
				c0.8-17.9,13.4-32.5,17.6-49.4c1.1-4.4,1.7-8.9,1.4-13.6c-0.4-6.7-2.2-12.8-4.9-18.5c-6-12.9-16.2-24-21.5-37.5
				c-1.6-4-2.6-8.1-3.3-12.3c-2.8-17.3,0.1-35.4-6.2-52.2c-1.6-4.2-3.6-8.2-6-11.9c-9.1-14.5-22.9-26.1-30.2-41.7
				c-1.8-3.7-3.1-7.6-4.3-11.6c-4.7-16.1-5.6-33.8-11.7-49.4c-5.1-13-15.9-25.2-28.8-34.9c-11.3-8.4-24.1-15-36-18.6
				c-0.9-0.3-1.7-0.7-2.6-0.7c-0.8,0-1.2,0.3-2,0.4c-0.1,0-0.2,0-0.2,0.1C1556.3,181,1556.3,181.1,1556.4,181.2z"/>
			<path class="st5" d="M1737.4,611.9c0.8-0.7,1.7-1.4,2.4-2.2c1.1-1.2,2-2.6,2.9-3.9c6.3-9.1,9.7-19.4,11.7-30.1
				c2.2-11.7,2.7-24,2.9-36.3c0.1-8.1,0.1-16.2,0.4-24.1c0.4-11.3,1.4-22.8,0.5-34.2c-0.6-7.7-2.1-15.2-5.1-22.4
				c-5.2-12.4-14.2-22.2-21.6-32.8c-1.9-2.6-3.6-5.3-5.2-8.1c-3.3-5.8-5.7-12.1-6.6-19.5c0-0.3-0.3-0.5-0.6-0.5
				c-0.3,0-0.5,0.3-0.5,0.6c0.5,7.6,2.8,14.2,5.9,20.3c1.5,2.9,3.2,5.8,5.1,8.5c7.1,10.6,16,20.2,21,32.5c2.8,7,4.2,14.2,4.8,21.6
				c0.9,11.2-0.1,22.7-0.5,33.8c-0.3,7.9-0.3,16-0.3,24.2c-0.1,12.1-0.3,24.2-2.3,35.9c-1.8,10.5-5.2,20.4-10.9,29.6
				c-0.8,1.3-1.8,2.6-2.6,4c-0.6,0.9-1,1.9-1.6,2.8c-0.1,0.1-0.1,0.2,0,0.3C1737.2,612,1737.3,612,1737.4,611.9z"/>
			<path class="st5" d="M1294.5,588c0.2-1,0.4-1.8,0.5-2.8c0-0.2,0-0.5,0-0.7c0-10,1.3-20.6,3.8-31c2.7-11.5,6.6-22.8,11.5-32.6
				c4.2-8.6,9.6-16,13.8-24.4c1.8-3.6,3.3-7.4,4.5-11.5c1.6-5.9,2.3-11.8,2.6-17.8c0.6-13.7-1.1-27.4,0.3-41.2
				c0.9-8.5,2.8-16.9,5.4-25.1c3.8-12.3,8.9-24.4,13.9-36.1c0.1-0.2,0-0.4-0.2-0.5c-0.2-0.1-0.4,0-0.5,0.2
				c-5.4,11.6-10.9,23.5-15,35.9c-2.7,8.3-4.8,16.7-5.8,25.4c-1.6,13.8,0,27.6-0.8,41.3c-0.3,5.7-1.1,11.5-2.7,17.1
				c-1.1,3.9-2.6,7.4-4.3,10.9c-4.1,8.3-9.6,15.8-13.7,24.4c-4.8,10.1-8.7,21.6-11.2,33.4c-2.3,10.6-3.4,21.4-3.1,31.5
				c0,0.2,0,0.5,0,0.7c0.1,1,0.5,1.8,0.8,2.8c0,0.1,0.1,0.2,0.2,0.2C1294.4,588.2,1294.5,588.1,1294.5,588z"/>
		</g>
		<path class="st6" d="M1464.5,511.9c0,0,22.7,102.6,68.1,98.6c45.3-4,58.6-89.8,58.6-89.8S1534.1,609,1464.5,511.9z"/>
	</g>
	<g transform="matrix(1.07011,0,0,1.10621,-3.66587,-21.6103)">
		<path class="st3" d="M1454.1,414.4c-6.6,1.7-13.6-1.9-17.4-7.9c-3.8-6-4.1-13.7,0.5-18.8c6.8-7.4,17.1-5.3,23.6,1.5
			c6.4,6.7,8.3,16.7,0.8,22.3C1459.2,413.3,1456.7,414.3,1454.1,414.4z"/>
	</g>
	<g transform="matrix(1.07011,0,0,1.10621,-3.66587,-21.6103)">
		<path class="st3" d="M1612,393.1c-0.3,0.9-0.7,1.7-1,2.5c-2.1,4.4-8.2,10.6-14.2,12.5c-5.7,1.8-11.3,0.9-15.1-5.5
			c-1.1-1.9-1.6-4.1-1.4-6.4c0.2-2.5,1.1-5,2.1-7c2.5-4.9,7.8-10.7,13.5-12.8c5-1.8,10.3-1.5,14.9,3.2c1.7,1.7,2.6,4.1,2.7,6.6
			C1613.4,388.5,1612.8,391.2,1612,393.1z"/>
	</g>
	<path class="st6" d="M1819.2,738.4c0-0.3,0-0.5,0-0.6c0.1-1.2,0.3-2.3,0.5-3.4c0.2-1.1,0.5-2.2,0.8-3.3c0.7-2.8,2.1-5.6,4-7.9
		c2-2.5,4.6-4.4,7.3-5.2c1.1-0.3,2.3-0.6,3.4-0.5c2.4,0.1,4.8,1.1,6.8,3.5c0.2,0.3,0.6,0.5,0.6,0.8v0.2c0,0.8,0.3-0.6-0.4,0.3
		c0.1,0.1,0.1,0.2,0,0.3c-0.1,0.1-0.2,0.1-0.3,0c-0.7,0.4,0.1,0.4-0.3,0.3c-0.1,0-0.1,0-0.3,0c-0.4,0-0.6-0.4-0.9-0.7
		c-2-1.4-4-1.7-5.8-1.4c-1.3,0.2-2.5,0.7-3.7,1.5c-1.3,0.9-2.4,2-3.4,3.3c-1.5,1.9-2.7,4.2-3.2,6.4c-0.3,1-0.5,2.1-0.7,3.1
		c-0.2,1-0.4,2-0.5,3.1c0,0.2,0,1.7-0.1,2.2c-0.2,1.1-0.9,1.6-1.2,1.7c-0.9,0.5-2.2,0.5-3.7,0.1c-1.8-0.5-4-1.7-5.1-2.1
		c-2-0.7-4.5-1.2-6.9-1c-2.2,0.1-4.4,0.7-5.9,2.1c-0.6,0.6-1.2,1.2-1.8,1.9c-0.5,0.6-0.9,1.3-1.3,2.1c-2.4,5.6-0.7,9.7,2.7,12.9
		c5.7,5.2,15.8,7.9,21.9,9.5c1.6,0.4,4.2,1.6,6.6,2.3c1.3,0.4,2.5,0.7,3.4,0.5c0.7-0.2,1.3-0.9,1.8-1.7c1.1-1.6,1.9-3.5,2.5-4.9
		c1.9-3.9,3.7-7.7,5.4-11.6c1-2.3,1.8-4.7,2.8-7c0.1-0.3,0.3-0.5,0.4-0.8c0.4-0.7,0.8-1.4,1.3-2.1c0.1-0.3,0.4-0.6,0.8-0.5
		c0.3,0.1,0.6,0.4,0.5,0.8c0.1,1.1,0.3,2,0.2,3.1c-0.2,2.3-1.1,4.5-1.8,6.7c-0.3,0.9-0.6,1.9-1,2.8c-1.4,3.6-3.2,7-4.8,10.5
		c-0.8,1.8-2,4.5-3.5,6.4c-0.9,1.1-2,1.9-3.3,2.3c-1.2,0.4-2.8,0.3-4.5-0.1c-2.7-0.6-5.9-2.1-7.8-2.6c-6.7-1.8-17.5-4.8-23.7-10.4
		c-4.7-4.3-7-9.9-3.7-17.5c0.5-1.1,1.1-2.1,1.8-3c0.7-0.9,1.5-1.7,2.3-2.4c1.8-1.7,4.2-2.6,6.7-3c3.5-0.5,7.3,0,10.3,1.1
		c0.8,0.3,2.2,1,3.6,1.6C1818.4,738.2,1818.8,738.3,1819.2,738.4z"/>
	<path class="st6" d="M1796.5,741.7c2.4-9.4,4.9-3.8,5.5,1.2c0.8,0.2,0.7,1.3,0.1,2.7c-0.1,1.5-0.5,2.5-1.3,2.3
		c-2.8,4.2-7.5,8-5.5-1.4c1-0.8,1.8-1.4,2.6-1.9C1797.5,743.7,1797,742.8,1796.5,741.7z M1795.4,746.4L1795.4,746.4
		c-0.2,0.1-0.3,0.1-0.4,0c-0.5,0-0.9-0.1-1.4-0.2c-0.7-0.1-1.3-0.4-2-0.6c-1.9-0.7-3.7-1.6-5.5-2.6c-2.6-1.4-5-3-7.6-4.5
		c-0.5-0.2-0.7-0.8-0.5-1.3c0.2-0.5,0.8-0.7,1.3-0.5c3.3,0.9,6.3,1.8,9.5,2.6c1.4,0.4,2.8,0.7,4.3,1.1c0.6,0.2,1.2,0.3,1.8,0.5
		c0.5,0.2,1,0.4,1.4,0.6c0,0,0.1,0,0.1,0l0,0.1l0,0.2c-0.2,0.7-0.4,1.3-0.4,2c0,0,0.2,0.1,0.2,0.2c0,0.1-0.2,0.1-0.2,0.2
		c-0.2,0.6-0.3,1.3-0.5,2L1795.4,746.4z"/>
	<path class="st6" d="M1776.3,732.5c0.1-0.2,0.3-0.4,0.6-0.4c0.1-0.1,0.2-0.2,0.4-0.2c0.5-0.2,1-0.1,1.5-0.1c1.2,0,1.9,0.2,2.3,0.4
		c0.1,0.1,0.3,0.2,0.4,0.2c0.1-0.1,0.2-0.1,0.3,0c0.1,0.1,0.1,0.2,0,0.3l0,0.1c0.2,0.4,0.2,0.9-0.2,1.5c0,0.1,0,0.3,0,0.5
		c0,0.2-0.1,0.3-0.1,0.4c-0.4,1.1-0.8,2.1-1.1,3.2c-0.1,0.4-0.2,1.6-0.5,2.4c-0.2,0.6-0.6,1-0.8,1.3c-0.5,0.4-1.4,0.7-2.4,0.2
		c-1.3-0.6-3.8-3.3-4.2-3.8c-0.3-0.4-1.2-1.1-1.8-1.8c-0.5-0.6-0.9-1.2-1-1.6c-0.1-0.2-0.4-1.7,1.1-2c0.1,0,0.2,0,0.4-0.1
		c0.7-0.1,2.4-0.2,2.7-0.2C1773.8,732.7,1775.1,732.6,1776.3,732.5z M1772.4,734C1772.4,734,1772.4,734,1772.4,734
		c0-0.1,0-0.2,0-0.2C1772.3,733.9,1772.3,734,1772.4,734z"/>
	<path class="st6" d="M1768,735.6L1768,735.6c-0.2,0.3-0.7-0.5-0.8-0.7c-0.2-0.3-0.2-0.6-0.2-0.9c0-0.3,0.1-0.7,0.4-1
		c0.3-0.4,0.8-0.7,1.4-0.8c0.8-0.2,1.8-0.3,2.4-0.3l7.2-0.1c0.4,0,1.6-0.3,2.3-0.4c0.5,0,0.9,0.1,1.2,0.2c0.4,0.2,0.7,0.5,0.9,1
		c0.3,0.7,0.2,1.9,0.1,2.3c-0.1,0.9-0.4,1.7-0.7,2.6c-0.4,1.1-0.9,2.3-1.4,3.4c-0.1,0.3-0.5,1.6-0.8,2.1c-0.3,0.6-0.8,0.8-1,0.8
		c-0.5,0.1-1.1,0.1-1.6-0.2c-0.6-0.3-1.3-0.9-1.7-1.2c-0.7-0.7-1.4-1.4-2-2.2c-1.5-1.4-3.4-2.4-5-3.8L1768,735.6z M1778.1,741.2
		c-0.3,0.1-0.6,0.2-0.4,0.4C1777.9,741.7,1778,741.5,1778.1,741.2z M1780.3,734.5c-0.6,0.1-1.5,0-1.8,0l-7.2,0.3l-0.4,0
		c0.3,0.3,0.6,0.6,0.9,0.9c0-0.1,0.1-0.1,0.2-0.2c0.4-0.3,0.9-0.2,1.1,0.1c0.8,0.8,1.7,1.5,2.5,2.4c0.7,0.8,1.3,1.6,2.1,2.3
		c0.1,0.1,0.3,0.2,0.5,0.3c0.1-0.4,0.1-0.7,0.2-0.8c0.5-1.1,1-2.1,1.4-3.2C1780,735.9,1780.2,735.2,1780.3,734.5
		C1780.3,734.5,1780.3,734.5,1780.3,734.5z M1769.7,733.5c-0.1-0.3-0.2-0.5-0.3-0.3C1769.3,733.3,1769.5,733.4,1769.7,733.5z"/>
	<path class="st6" d="M1842,734.4l0.2,0.1c0,0,0,0.1,0.1,0.1c0.4,0.8,0.5,1.7,0.7,2.5c0.3,2.1,0,4.4-0.3,6.4c-0.3,1.5-0.6,3-1.1,4.5
		c-0.7,2.2-1.6,4.3-2.7,6.4c-0.9,1.7-1.9,3.4-3.1,4.9c-1.2,1.5-2.6,2.8-4.1,4c-0.2,0.2-0.5,0.3-0.8,0.1c-0.2-0.2-0.3-0.5-0.1-0.8
		c0.9-1.6,1.6-3.3,2.4-5c0.8-1.6,1.6-3.2,2.3-4.9c0.8-2,1.5-4,2.2-6c0.4-1.4,0.9-2.7,1.2-4.1c0.3-1.1,0.7-2.3,0.9-3.6
		c0.2-1.2,0.4-2.3,0.3-3.4c0-0.2-0.1-0.4,0-0.6l0.1-0.3c0.6-1.2-0.8,0.6,0.8-0.2c0-0.1,0-0.2,0.1-0.3c0.1,0,0.2,0,0.3,0.1
		C1843.1,734.4,1840.7,733.8,1842,734.4z"/>
	<path class="st6" d="M1834.7,743.2c-0.6-0.1-0.1-0.3-0.6-0.1c-0.1,0-0.1,0.1-0.1,0.1c-0.7,0.9-1.2,1.9-1.7,2.9
		c-0.8,1.5-1.5,3.1-2.2,4.7c-0.1,0.3-0.3,0.6-0.4,1c-0.3,0.8-0.4,1.6-0.7,2.4c-0.1,0.2-0.1,0.5,0.2,0.6c0.2,0.1,0.5,0.1,0.6-0.2
		c0.7-0.8,1.4-1.5,2-2.4c0.9-1.3,1.5-2.6,2.1-4c0.6-1.4,1.1-2.8,1.6-4.2c0-0.1,0.1-0.2,0.1-0.2c-0.1-0.6,0,0-0.5-0.5
		c0-0.1,0-0.2-0.1-0.3C1834.9,743,1834.8,743.1,1834.7,743.2z"/>
</g>
</svg>
