<?xml version="1.0" encoding="utf-8"?>
<!-- Generator: Adobe Illustrator 24.1.0, SVG Export Plug-In . SVG Version: 6.00 Build 0)  -->
<svg version="1.1" id="Layer_1" xmlns="http://www.w3.org/2000/svg" xmlns:xlink="http://www.w3.org/1999/xlink" x="0px" y="0px"
	 viewBox="0 0 1200 800" style="enable-background:new 0 0 1200 800;" xml:space="preserve">
<style type="text/css">
	.st0{fill-rule:evenodd;clip-rule:evenodd;fill:#1C1C1C;}
	.st1{fill-rule:evenodd;clip-rule:evenodd;fill:#1B1B1B;}
	.st2{fill-rule:evenodd;clip-rule:evenodd;fill:#8AC8CD;}
	.st3{fill-rule:evenodd;clip-rule:evenodd;fill:#FFFFFF;}
	.st4{fill-rule:evenodd;clip-rule:evenodd;fill:#F69C9E;}
</style>
<g>
	<g transform="matrix(1.07011,0,0,1.10621,-37.0064,-28.6869)">
		<g transform="matrix(0.999018,-0.0442976,0.0442976,0.999018,-2.31714,0.177479)">
			<path class="st0" d="M561.3,314.1c-2.6,4.4-4.7,9-6.8,13.7c-1.7,4-3.1,8.1-4.5,12.2c-3.2,9.2-8.6,24.5-7.2,36.2
				c1,8.6,5.6,15.4,16.6,17.2c3,0.5,6,0.8,9.1,0.5c4.6-0.6,8.7-2.3,12.9-4.3c1.2-0.6,1.8-2,1.1-3.3c-0.6-1.2-2.1-1.7-3.4-1.1
				c-3.7,1.7-7.3,3.4-11.4,3.9c-2.6,0.3-5.1,0-7.6-0.4c-4.1-0.7-7.1-2.2-9-4.5c-3.1-3.5-3.8-8.5-3.5-14c0.5-10,4.7-21.3,7.2-28.6
				c1.4-4,2.6-8,4.3-11.9c2-4.5,4-8.9,6.5-13.1c0.7-1.2,0.3-2.7-0.9-3.3C563.5,312.5,561.9,312.9,561.3,314.1z"/>
			<path class="st0" d="M535.1,311.3c1.6,1.1,2.5,3.1,2.7,5.4c0.2,3-0.9,6.4-2,7.8c-0.6,0.8-1.4,1.8-2.4,2.4
				c-1.1,0.7-2.3,0.9-3.5,0.6c-1.2-0.3-2.1-1.1-2.8-2.2c-0.6-1-0.9-2.4-1-3.4c-0.3-2.3,0-5.5,1.3-7.9c1-2,2.6-3.4,4.8-4
				C533.4,309.7,534.6,310.3,535.1,311.3z"/>
			<path class="st0" d="M607.3,315.7c0.5-2.8,1.9-5.5,4.2-7.2c0.9-0.7,2.1-0.7,3-0.1c0.1,0,0.2,0.1,0.3,0.1c0.6,0.2,1.3,0.6,1.8,1.4
				c0.5,0.7,0.9,1.7,1.1,2.2c1.3,3.1,1.3,6.8,0,9.9c-0.4,0.9-1.1,2.1-2,2.9c-1,0.9-2.1,1.3-3.4,1.2c-0.8-0.1-1.5-0.4-2.1-0.8
				c-0.5-0.3-1-0.6-1.4-1c-0.6-0.7-1.1-1.6-1.4-2.4C606.7,319.9,606.8,317.7,607.3,315.7z"/>
			<path class="st0" d="M529.3,412c4.7,3.9,10.7,4.8,16.5,5.9c11.9,2.2,25.1,2.2,36.8-1.7c4.6-1.5,8.6-3.8,12.9-6.1
				c1.2-0.6,1.7-2.1,1-3.3c-0.7-1.2-2.2-1.6-3.4-1c-4,2.1-7.8,4.3-12.1,5.7c-10.8,3.6-23.1,3.6-34.2,1.5c-4.9-0.9-10.1-1.4-14.1-4.8
				c-1-0.9-2.6-0.8-3.5,0.2C528.2,409.6,528.3,411.1,529.3,412z"/>
			<path class="st0" d="M531.2,404.4c-1.6,0.9-3.1,2.6-4,4.7c-0.9,2-1.2,4.2-0.9,6.1c0.3,1.3,1.6,2.2,2.9,2c1.4-0.2,2.3-1.5,2-2.8
				c-0.2-1,0.1-2.2,0.6-3.2c0.5-1,1.1-2,1.9-2.4c1.2-0.7,1.6-2.1,0.9-3.3C533.9,404.1,532.4,403.7,531.2,404.4z"/>
			<path class="st0" d="M591.8,406.6c1.4,1.5,2.3,3,2.1,5.1c-0.1,1.3,0.9,2.5,2.3,2.6c1.4,0.1,2.6-0.9,2.7-2.3
				c0.3-3.5-1.1-6.2-3.5-8.7c-0.9-1-2.5-1.1-3.6-0.1C590.9,404.1,590.9,405.6,591.8,406.6z"/>
			<path class="st0" d="M561.5,429.7c0.9-0.3,1.7-0.4,2.4-0.6c1.6-0.3,3.3-0.4,4.9,0c0.4,0,0.7,0,1.1,0c1.4,0,2.5,1.1,2.5,2.5
				c0,0.2,0,0.5-0.1,0.7c0.1,0.3,0.2,0.6,0.3,0.9c0.7,2.8-0.2,7.1-0.1,9.2c0.1,1.8,0,3.6,0,5.4c0,4.6,1.2,11.4-0.1,16.1
				c-1.1,4-3.8,6.9-9.4,7.2c-1.6,0.1-3.2-0.1-4.7-0.7c-3-1.1-3.8-2.7-4.2-4.8c-0.1-0.9-0.1-1.9-0.3-3.2c-0.3-3.2-0.4-6.4-0.6-9.5
				c-0.2-2.6-0.4-5.1-0.5-7.7c-0.1-1.5-0.1-3.1-0.1-4.6c0-1,0.1-2,0.2-3.1c0.3-3.2,1.2-4.9,2.5-6c0.8-0.7,1.8-1.2,3.1-1.5
				C559.2,429.9,560.3,429.8,561.5,429.7z"/>
			<path class="st0" d="M492.3,272.8c-6.3,35.1-8.1,69.8-7.9,105.4c0.1,19-0.7,39.1,7.4,56.8c11.7,25.4,43.7,38,70.6,38.3
				c1.4,0,2.5-1.1,2.5-2.4c0-1.3-1.1-2.4-2.5-2.5c-25.1-0.2-55.2-11.6-66-35.4c-7.8-17.1-6.9-36.5-7-54.9
				c-0.2-35.3,1.6-69.7,7.8-104.5c0.2-1.3-0.7-2.6-2.1-2.8C493.8,270.6,492.5,271.5,492.3,272.8z"/>
			<path class="st0" d="M557.5,469.1c-0.5,0.6-1.2,1-2,1c-1.4,0-2.5-1.1-2.5-2.4c0-6.2-0.2-12.4-0.4-18.5c-0.1-4.3-0.4-8.5-0.4-12.8
				c0-2.2,0-5,1.4-7c1-1.5,2.4-2,3.9-2.1c0.8,0,1.7,0.1,2.6,0.2c3.3,0.2,6.7-0.1,10,0.4c0.8,0.1,2.6,0.3,3.9,0.9
				c1.1,0.5,1.9,1.3,2.2,2.2c0.9,2.3,1,5,0.7,7.8c-0.3,3.7-1.3,7.6-1.7,10.5c-0.5,5.1-1,10.2-1.5,15.3c-0.1,1.2-0.2,3.1-0.7,4.6
				c-0.5,1.5-1.3,2.8-2.6,3.5c-0.9,0.5-2.2,0.8-3.8,0.8c-2.5,0-5.8-0.7-7.2-1.1c-1.4-0.3-2.2-1.6-1.9-2.9
				C557.4,469.2,557.4,469.2,557.5,469.1z M571.5,432.9c-0.2-0.1-0.5-0.1-0.6-0.2c-0.6-0.1-1.2-0.2-1.6-0.2
				c-3.2-0.5-6.4-0.2-9.6-0.3c-0.5,0-1-0.1-1.5-0.1c-0.2,0-0.4,0-0.6,0c-0.3,0.5-0.4,1-0.4,1.6c-0.1,0.9-0.1,1.8-0.1,2.7
				c0,4.2,0.3,8.4,0.4,12.7c0.2,6.2,0.4,12.5,0.4,18.7c0,0.3,0,0.5-0.1,0.7c0.6-0.7,1.6-1.1,2.5-0.9c1.1,0.2,3.3,0.7,5.3,0.9
				c0.6,0,1.1,0.1,1.5,0c0.2,0,0.3,0,0.4-0.1c0.1-0.1,0.2-0.2,0.2-0.4c0.1-0.3,0.2-0.6,0.3-0.9c0.2-1.1,0.3-2.3,0.4-3.1
				c0.5-5.1,1-10.2,1.5-15.3c0.3-2.5,1-5.6,1.4-8.7C571.9,437.4,572.1,434.9,571.5,432.9z"/>
			<path class="st0" d="M558,431.7c2.4,1,4.9,1.7,7.5,1.9c1.4,0.1,2.6-0.9,2.7-2.2c0.1-1.3-0.9-2.5-2.3-2.6c-2.1-0.2-4-0.7-6-1.5
				c-1.3-0.5-2.8,0.1-3.3,1.3C556.1,429.8,556.7,431.2,558,431.7z"/>
			<path class="st0" d="M560.5,473.6c0.6,0.2,0.6,0.1,1.5,0.3c1.4,0.2,2.7-0.7,2.9-2c0.2-1.3-0.7-2.6-2.1-2.8
				c-0.7-0.1-0.7-0.1-1.1-0.2c-1.3-0.3-2.7,0.5-3.1,1.8C558.3,472,559.1,473.3,560.5,473.6z"/>
			<path class="st0" d="M556.8,472.1c8.2,2.2,17,2.3,25.4,1.8c25.2-1.4,53.4-10.1,69.7-30.4c12.4-15.4,17.5-33.8,20.3-52.9
				c0.8-5.2,2.1-10.4,2.4-15.7c0.1-1.3-1-2.5-2.4-2.6c-1.4-0.1-2.6,0.9-2.7,2.3c-0.3,5.2-1.6,10.1-2.4,15.2
				c-2.7,18.3-7.5,35.9-19.3,50.6c-15.5,19.2-42.3,27.2-66.1,28.5c-7.9,0.4-16.1,0.4-23.7-1.6c-1.3-0.4-2.7,0.4-3.1,1.7
				C554.7,470.4,555.5,471.8,556.8,472.1z"/>
			<path class="st0" d="M674.4,375.7c-0.5,0.6-1.3,0.9-2.2,0.8c-1.4-0.2-2.4-1.4-2.2-2.7c1-8.2,1.6-16.3,4.1-24.2
				c1.7-5.7,3.8-11.5,6.8-16.6c2.8-4.9,10.1-11.7,17.1-13.7c5.4-1.6,10.6-0.6,14.2,4.9c0.9,1.4,1.6,3,2.1,4.7
				c4.5,16.7-1.4,31.6-13.3,43.2c-2.5,2.5-5.8,6.2-9.5,8.4c-3,1.8-6.1,2.6-9.4,1.9C678.2,381.5,675.8,379,674.4,375.7z M680.3,347
				c0.4-0.5,0.7-1,1.1-1.5c3.2-4,7.3-7,12.2-8.1c3.9-0.8,6.6,0.2,8.4,2c2.4,2.4,3.1,6.8,2.1,11.3c-0.7,3.5-2.3,6.2-4.4,8.1
				c-2.2,1.9-5.2,3-9,2.9c-1.4,0-2.5-1.1-2.5-2.5c0-1.3,1.2-2.4,2.5-2.4c2.3,0,4.2-0.5,5.5-1.7c1.4-1.2,2.3-3.1,2.8-5.4
				c0.4-1.8,0.5-3.5,0.1-4.9c-0.2-1-0.7-1.9-1.5-2.4c-0.8-0.4-1.8-0.5-3.2-0.2c-3.8,0.8-6.9,3.2-9.3,6.3c-4,5-6.3,11.8-7.1,17.3
				c-0.3,2.4-0.3,5.2,0.6,7.6c0.7,2,2.1,3.7,4.4,4.2c2.5,0.6,4.9-0.7,7.1-2.3c2.7-2,5.2-4.7,7.1-6.6c10.6-10.4,16-23.7,12-38.6
				c-0.3-1.2-0.8-2.3-1.5-3.3c-2.2-3.3-5.3-3.8-8.5-2.9c-5.8,1.7-11.8,7.4-14.1,11.4C683.3,339,681.6,343,680.3,347z"/>
			<path class="st0" d="M486.7,343.9c1.9,4.1,3.5,9.3,3.7,14.3c0.1,3.8-0.7,7.5-2.7,10.5c-1,1.6-2.7,4.6-4.8,6.6
				c-1.9,1.9-4.1,2.9-6.4,2.6c-2.1-0.3-4.2-1.5-6.2-3.2c-2.5-2.1-4.6-5-6-6.9c-4.2-6-8-15.5-8.4-24.4c-0.3-6.3,1.2-12.2,5.2-16.6
				c2.3-2.6,4.9-3.9,7.4-4.3c3.7-0.7,7.6,0.6,11,3.1c5.2,3.8,9.2,10.3,10,15.6c0.2,1.3-0.8,2.6-2.1,2.8
				C487.1,343.9,486.9,343.9,486.7,343.9z M483.7,338.7c-1.4-3.5-4-7-7.2-9.3c-2.2-1.6-4.6-2.6-7.1-2.2c-1.6,0.3-3.1,1.2-4.5,2.7
				c-3.2,3.5-4.2,8.2-3.9,13.2c0.3,8,3.8,16.5,7.5,21.8c1.2,1.7,3,4.2,5.2,6c1.1,1,2.3,1.8,3.6,2c0.8,0.1,1.4-0.5,2-1.2
				c1.8-1.8,3.2-4.4,4.1-5.8c1.5-2.3,2-5,1.9-7.8c-0.1-4.6-1.7-9.5-3.6-13.1c-1.1-2.2-2.2-4.5-4.5-5.7c-1.7-0.9-3-1.2-4.1-0.7
				c-1.7,0.6-2.5,2.6-2.8,4.8c-0.3,2.2,0,4.7,0.9,6.8c0.8,1.9,2.2,3.5,4.2,4.2c1.3,0.5,2,1.8,1.5,3.1c-0.5,1.3-1.9,1.9-3.2,1.5
				c-6.4-2.2-9.3-9.9-8.4-16.3c0.6-4.1,2.7-7.5,6-8.7c2.2-0.8,5-0.8,8.3,1C481.3,336,482.6,337.3,483.7,338.7z"/>
			<path class="st0" d="M519.8,462.6c1.9,10.1,4.6,23.2,4.6,35.5c-0.1,7.9-1.3,15.4-4.8,21.6c-6.1,10.7-16.8,18-26.5,25
				c-1.1,0.8-1.3,2.3-0.5,3.4c0.8,1.1,2.4,1.3,3.5,0.5c10.3-7.4,21.5-15.3,27.9-26.5c3.9-6.9,5.4-15.2,5.4-23.9
				c0.1-12.6-2.7-26-4.6-36.4c-0.2-1.3-1.6-2.2-2.9-2C520.5,460,519.6,461.3,519.8,462.6z"/>
			<path class="st0" d="M621.1,461.4c-3.4,8.9-8,21.1-9.5,32.9c-1,8.2-0.6,16.2,2.5,22.9c5.3,11.4,21,23.6,31.2,30.4
				c1.1,0.8,2.7,0.5,3.5-0.6c0.8-1.1,0.5-2.6-0.6-3.4c-9.6-6.5-24.5-17.8-29.5-28.4c-2.8-5.9-3-13-2.1-20.3
				c1.5-11.4,5.9-23.1,9.3-31.7c0.5-1.3-0.2-2.7-1.5-3.1C623.1,459.5,621.6,460.1,621.1,461.4z"/>
			<path class="st0" d="M553.8,294.7c-0.5,1.2-1.9,1.8-3.2,1.4c-7.6-2.6-14-4.7-22.2-3.5c-2.6,0.4-5.2,0.9-7.8,1.6
				c-0.1,0-4.2,1.4-5.1,1.5c-1.9,0.2-2.6-1-2.8-1.5c-0.8-1.8-0.4-4.1,0.7-6.2c1.3-2.4,3.5-4.8,4.7-6c7.4-7.4,20-12.3,30.5-9.4
				c6.9,1.9,8.2,8.3,7.4,14.5c-0.2,1.4-0.4,2.9-0.7,4.4c-0.1,0.5-0.3,1-0.4,1.5c-0.1,0.2-0.2,0.8-0.3,1c-0.1,0.3-0.3,0.5-0.4,0.6
				C554,294.5,553.9,294.6,553.8,294.7z M518.7,288.8c-0.2,0.3-0.5,0.7-0.6,1l0.8-0.3C518.8,289.4,518.7,289.1,518.7,288.8z
				 M547.8,286.1L547.8,286.1L547.8,286.1c-0.2-0.1-0.5-0.1-0.7-0.1L547.8,286.1z"/>
			<g transform="matrix(-1,0,0,1,542.207,0)">
				<path class="st0" d="M-56.4,294.7c0.1-0.1,0.2-0.2,0.3-0.3c0.1-0.1,0.2-0.3,0.4-0.6c0.1-0.2,0.2-0.7,0.3-1
					c0.2-0.5,0.3-1,0.4-1.5c0.3-1.4,0.5-2.9,0.7-4.4c0.8-6.1-0.4-12.6-7.4-14.4c-10.5-2.8-23.1,2.1-30.5,9.4
					c-1.2,1.2-3.5,3.6-4.7,6.1c-1.1,2.2-1.5,4.4-0.7,6.2c0.2,0.5,0.9,1.7,2.8,1.5c0.9-0.1,5.1-1.5,5.1-1.5c2.5-0.8,5.1-1.3,7.8-1.6
					c8.2-1.2,14.7,0.9,22.2,3.5C-58.3,296.5-56.9,295.9-56.4,294.7z M-91.5,288.8c0,0.3,0.1,0.5,0.2,0.8l-0.8,0.3
					C-91.9,289.5-91.7,289.2-91.5,288.8z M-63.1,286c0.3,0,0.5,0.1,0.7,0.1l0,0.1l0,0L-63.1,286z"/>
			</g>
			<path class="st0" d="M496.6,275.1c5.4-27.3,30.4-45.2,55.1-54.4c28.9-10.7,67.9-17.7,94.5,2.5c6.8,5.2,12.8,12.2,17.5,19.3
				c9.9,14.8,14.7,32.5,13.1,50.3c-0.7,7.4-2.6,15.1-3.6,22.8c-1,8.1-1,16.2,2.4,24c0.5,1.2,2,1.8,3.3,1.3c1.3-0.5,1.9-1.9,1.3-3.2
				c-3.1-7-3-14.2-2.1-21.5c1-7.7,2.9-15.4,3.6-22.9c1.7-18.9-3.4-37.7-13.8-53.4c-5-7.5-11.4-15-18.6-20.5
				c-28-21.2-69.1-14.5-99.4-3.2c-26.2,9.7-52.5,29-58.2,58c-0.3,1.3,0.6,2.6,2,2.9C495,277.3,496.3,276.4,496.6,275.1z"/>
			<path class="st0" d="M664.5,171.4c-9.5-69.3-78.8-84.3-99.4-88c-8.3-1.5,0.8,13.1,0.2,12.7c-22.5-11.8-44.1-10.9-53.5-3.7
				c-7.6,5.8,7.1,11.6,6.1,12c-5.1,1.6-45.6,1-57.6,18.7c-7.2,10.6,19.6,8.7,19.2,9c-3.5,2.6-7.4,4.7-11,7.1
				c-14.2,9-26.2,18.7-36.3,32.3c-2.5,3.4-20.6,30.3-17.8,36.2c2.2,4.6,25-11.2,25.5-10.9c0.2,0.1-1.6,3-1.7,3.2
				c-1.7,2.7-3.6,5.1-5.3,7.7c-3.2,4.8-16.1,30.3-13.2,36.5c2,4.3,19.3-9.2,20-9.5c0.6-0.3,2.1-1.5,1.8-0.9
				c-11.3,23.1-12,34.1-6.6,34.1c3.4,0,9.3-2.8,16.3-15.2c0,0-5.8,25.8-2.6,27c4.4,1.7,14.2-9.7,16.3-11.8c0.1-0.1,3.6-3.9,3.7-3.8
				c3.9,2.6-5,14,0.3,15.7c4.6,1.5,10.8-2.4,14.7-4.6c2.4-1.3,5.6-2,7.6-4c5.1-5,6.4-13.1,10.8-18.5
				c38.9-47.1,105.3-56.7,153.1-27.8L664.5,171.4z"/>
			<path class="st0" d="M485.2,261.9c0.3-1.7,0.7-3.3,1.1-5c0.2-0.7,1.3-4.9,1.7-6.1c0.2-0.5,0.6-1.8,0.8-2.3c0.2-0.5,0.5-0.8,0.6-1
				c0.8-0.9,1.7-0.9,2.4-0.7c0.5,0.1,2,0.5,2.1,2.5c0,1.2,0,2.4,0,3.6c0-0.1,0.1-0.1,0.1-0.1c1-1.5,2.4-1.2,2.8-1.1
				c0.2,0.1,2.2,0.7,1.8,2.9c-3.6,18.5-9,36.6-9.7,55.5c-0.2,4.5-0.4,8.9-1.2,13.3c-0.1,0.7-0.1,2.3-0.5,3.3
				c-0.3,0.7-0.7,1.2-1.2,1.6c0,0.5,0,1,0,1.4c0,2.1-1.7,2.5-2.1,2.6c-0.6,0.1-1.6,0.1-2.5-0.9c-0.1-0.2-0.4-0.5-0.6-1
				c-0.2-0.4-0.4-1-0.6-1.6c-1.6-0.4-3.1-1.3-4.4-2.4c-1.1-0.9-2.1-2.1-3-3.3c-0.3,0.6-0.8,1-1.4,1.3c-1.3,0.5-2.8-0.2-3.2-1.4
				c-1.8-4.6-1.8-10.5-1.9-15.7c-2.7-10-3.8-20.1-3-30.6c0.3-3.4,0.6-6.7,0.9-10.1l0-0.3c0.1-2.6,0.1-6.7,1.1-9.6l0-0.2
				c0.1-0.7,0.2-2.7,0.3-3c0.5-1.7,1.9-1.8,2.4-1.8c0.2,0,2.4,0,2.6,2.4l0,0.2c0.6,0.1,1.1,0.3,1.4,0.6c0.8-1.9,2.4-1.7,2.9-1.7
				c0.6,0.1,1.4,0.4,1.9,1.4c0.1,0.2,0.3,0.7,0.3,1.3c0,0.8,0,2.5,0,3.2c0,0.2,0,0.5,0,0.9c0.1,0,0.2,0,0.2,0
				c0.5,0.1,1.9,0.3,2.2,2.1l0,0.1c0.3-0.7,0.7-1.3,1.1-1.7c0.9-0.9,1.8-0.9,2.2-0.8c0.9,0.1,1.7,0.5,2.2,1.6
				C485.1,261.3,485.2,261.6,485.2,261.9z"/>
			<path class="st0" d="M634.6,183.5c0,0,23.8-21.6,38.9-27.6c3.1-1.2,11.5-4.9,14.8-3c1.4,0.8-0.5,4.2-0.9,4.9
				c-2.6,4.7-6.7,8.6-10.2,12.7c-1,1.2-2,2.3-2.9,3.5c-0.5,0.6-2.1,1.8-1.4,1.7c7-1,13-5.4,20.5-5.8c0.4,0,6.5,0.1,6.5,0.2
				c-1.1,4.4-6.2,7.7-9.6,10.3c-0.1,0.1-3.5,2.3-3.4,2.6c0.1,0.5,5.4,0.8,5.7,0.8c2.7,0.2,13.6,0.2,15,3.7c1.2,2.9-6,5.9-7.7,6.6
				c-0.5,0.2-3,1-2.9,1.6c0.4,3.3,3.3,6.4,4.9,9.2c2.3,3.8,3.9,7.9,4.9,12.3c3.3,13.9,0.9,29.3,0.4,43.4
				c-0.6,14.5-2.3,29.1-4.5,43.4c-0.6,4.4-0.1,12.8-2.8,16.6c-2.1,3-7.1,4.8-10.3,6.7c-2.8,1.7-5.1,4-7.1,6.6
				c-0.7,0.8-1.3,1.7-1.9,2.6c0,0.1-0.7,1.2-0.7,1.1c-6.3-3.7-4.4-15.3-3.6-21.1c1.3-10.2,4.6-47.4,1.6-55.1
				c-4.9-12.9-12.5-25-21.8-35.3c-3.9-4.3-9-7.4-13-11.6C635.4,206.3,632.5,194.6,634.6,183.5z"/>
			<path class="st1" d="M520.8,460c0,0,58.3,23.6,104.3,0c0,0-24.4,51.9-57.6,51.5C530.7,511.1,520.8,460,520.8,460z"/>
			<path class="st2" d="M494.1,544.5c-27.9,8-56.5,23.7-79.6,41.3c-15.5,11.8-32.1,25.6-42.1,42.5c-10,16.8-13.3,36.1-16.9,55
				c-1.6,8.6-3,17.5-3.9,26.2c-0.1,1.1-1.3,7-0.6,7.6c3.5,3.3,14.7,1.3,18.9,1.6c17.2,1.1,34.5,2.3,51.7,3.5
				c68.1,4.6,136.3,4.4,204.5,7.5c30.1,1.3,60.2,0.5,90.4,1.4c8.4,0.2,16.8-0.2,25.2,0.4c3.1,0.2,37.2-0.4,37.2-0.4
				s4.3-97.4-32.2-129.5c-24.5-19.6-95.8-57.1-97.3-56c-24.8,18.2-58.7,21.4-86.7,22.6C523.9,569.9,494.1,544.5,494.1,544.5z"/>
		</g>
		<path class="st3" d="M528,551.3C528.1,551.3,528.1,551.3,528,551.3c0.1,0,0.2,0.1,0.2,0.1c1.1,0.8,2.3,1.5,3.5,2.2
			c11.7,6.9,25.8,9.5,40.5,9.4c11.7-0.1,23.7-2,35.2-4.8c5.9-1.4,11.7-3,17.2-4.8c4.7-1.6,9.2-3.3,13.4-4.9c1.1-0.5,2.2-0.9,3.3-1.3
			c0.3-0.2,0.7,0,0.9,0.3c0.2,0.3,0,0.7-0.3,0.9c-1,0.6-2.1,1.2-3.2,1.7c-4.1,2.1-8.5,4.1-13.2,5.9c-5.4,2.2-11.2,4.2-17.2,5.8
			c-11.6,3.2-24,5-36.1,5.1c-15.4,0.1-30.4-2.7-42.5-10.2c-1.3-0.8-2.5-1.6-3.6-2.5c-0.1,0-0.2-0.1-0.2-0.1l0,0c0,0,0,0,0.1-0.1
			l0.2-0.4c0.1-0.1,0.2-0.4,0.5-0.9c-0.1-0.1-0.1-0.2,0-0.2c0.1-0.1,0.2-0.1,0.2,0c0.7-0.7,0.9-0.8,0.8-0.8L528,551.3
			C528,551.3,528.1,551.3,528,551.3L528,551.3z"/>
		<path class="st3" d="M578.1,591.4c0.5,0.9,0,0.9,0.9,1.5c0.1,0.1,0.3,0.1,0.4,0.1c1.7,0.2,3.6,0.2,5.4,0.1
			c2.6-0.2,5.3-0.6,7.9-1.2c2.9-0.7,5.7-1.5,8.4-2.5c4.2-1.6,8.2-3.6,11.8-5.6c0.4-0.2,0.5-0.6,0.3-1c-0.2-0.4-0.6-0.5-1-0.3
			c-4.1,1.7-8.7,3.2-13.5,4.5c-3.7,1-7.4,1.8-11.1,2.2c-1.5,0.2-3,0.3-4.5,0.4c-1,0.1-2,0.1-3,0.1c-0.3,0-0.7-0.1-1,0
			c-1,0.5-0.5,0.6-1.2,1.4c-0.1,0-0.2,0.1-0.2,0.1C578,591.3,578,591.4,578.1,591.4z"/>
	</g>
	<g transform="matrix(1.07011,0,0,1.10621,-17.7376,-21.6103)">
		<path class="st4" d="M513.3,329.3c-0.5,1.5-1.4,2.9-2.8,3.9c-1.3,0.9-2.9,1.5-4.8,1.4c-2-0.1-4.4-0.9-5.4-1.3
			c-3.1-1.1-6-3.7-7.3-6.7c-1.5-3.4-1.5-7.4,1.2-10.5c3.9-4.6,10.8-4,15.6,0C514.1,319.5,516.2,325.1,513.3,329.3z"/>
	</g>
	<g transform="matrix(1.07011,0,0,1.10621,-17.7376,-21.6103)">
		<path class="st4" d="M635.1,306.8c2.8,1.5,4.7,4.4,4.5,9c-0.2,5.2-5.9,10.7-11.9,12.2c-5.4,1.3-10.5-0.4-12.9-5.3
			c-2.6-5.7,0.6-12.3,6.4-15.6C625.9,304.4,631.4,304,635.1,306.8z M626,316.6l-0.1,0.1L626,316.6l0.5-0.1l-0.1-0.1l-0.1,0
			L626,316.6z"/>
	</g>
	<path class="st0" d="M518.2,545.4c-4.7,3.9-30.5,13.7-46.5,24c-16,10.3-83,46-94.1,110c-2.9,16.5-11.6,64-7.9,67.4
		c3.1,1.4,5.1,4.6,6.5-9.7s7.4-56.1,11.4-69.7c5.3-18.4,18.1-42.6,46.6-64.7c28.4-22,45.2-33.9,84.4-50.9
		C524.7,547,518.2,545.4,518.2,545.4z"/>
	<path class="st0" d="M518.2,545.4c-4.7,3.9-30.5,13.7-46.5,24c-16,10.3-83,46-94.1,110c-2.9,16.5-11.6,64-7.9,67.4
		c3.1,1.4,5.1,4.6,6.5-9.7s7.4-56.1,11.4-69.7c5.3-18.4,18.1-42.6,46.6-64.7c28.4-22,45.2-33.9,84.4-50.9
		C524.7,547,518.2,545.4,518.2,545.4z"/>
	<path class="st0" d="M678.5,540c4.7,3.9,37.5,17.5,54.6,25.9c22.2,10.9,84.2,29.5,90.4,108.4c1.9,19.4,6.4,39.8,3.5,67.2
		c-3.1,1.4-3.2,1.3-4.6-12.9c-1.4-14.2-3.2-55.3-7.1-68.9c-5.3-18.4-7-42.2-37.3-63.5c-39.5-27.8-61.7-29.4-100.3-50.7
		C671.5,540.4,678.5,540,678.5,540z"/>
</g>
</svg>
