<?xml version="1.0" encoding="utf-8"?>
<!-- Generator: Adobe Illustrator 24.1.0, SVG Export Plug-In . SVG Version: 6.00 Build 0)  -->
<svg version="1.1" id="Layer_1" xmlns="http://www.w3.org/2000/svg" xmlns:xlink="http://www.w3.org/1999/xlink" x="0px" y="0px"
	 viewBox="0 0 1200 800" style="enable-background:new 0 0 1200 800;" xml:space="preserve">
<style type="text/css">
	.st0{fill-rule:evenodd;clip-rule:evenodd;fill:#F0B71C;}
	.st1{fill-rule:evenodd;clip-rule:evenodd;fill:#1B1B1B;}
	.st2{fill-rule:evenodd;clip-rule:evenodd;fill:#FFFFFF;}
	.st3{fill-rule:evenodd;clip-rule:evenodd;fill:#D61F2B;}
	.st4{fill-rule:evenodd;clip-rule:evenodd;fill:#010101;}
	.st5{fill-rule:evenodd;clip-rule:evenodd;fill:#F69C9E;}
</style>
<g>
	<g transform="matrix(1.07011,0,0,1.10621,-14.8957,-47.0653)">
		<g transform="matrix(1,0,0,0.95693,0,18.1888)">
			<path class="st0" d="M401.7,732.3l316.7,2.3c0,0-18.8-49.1-24.6-70.1c-4.2-15.1-8.4-57,4.4-85.1c1.4-3.1-14-9.7-14.7-9.2
				c-6,3.7-45.9,43.9-113,43.1c-69.2-0.8-104-35.7-115.2-43.1c-0.9-0.6-15.7,6.9-15.2,9.2c4.4,18.4-7.3,82.5-12,97.9
				C422,697.2,411.4,714.1,401.7,732.3z"/>
			<path class="st1" d="M471.2,326.6c0.5,53.3,24.1,112.7,62.8,149.5c15.7,15,38,31.3,61.1,28.4c19.8-2.5,36.8-20.8,48.7-35.3
				c28.6-35,51.2-71.1,60.1-116.3c0.3-1.6-0.7-3.1-2.2-3.4c-1.5-0.3-3,0.7-3.3,2.3c-8.7,44.2-30.9,79.4-58.9,113.7
				c-11.1,13.5-26.6,31-45,33.3c-21.4,2.7-41.9-13-56.5-26.9c-37.6-35.7-60.5-93.6-61-145.3c0-1.6-1.3-2.9-2.9-2.9
				C472.4,323.7,471.2,325,471.2,326.6z"/>
			<path class="st1" d="M582.8,310.4c-0.7,4.5-2,8.9-3,13.3c-2.7,12.2-13.8,26.1-14.3,38.7c-0.2,4.1-0.2,8.9,1,13
				c1.4,4.7,4.3,8.5,10,9.6c2.5,0.5,5,0.5,7.5,0.5c3.3,0,6.6-0.3,9.8-1.3c1.3-0.4,2.1-1.8,1.7-3.1c-0.4-1.3-1.8-2.1-3.1-1.7
				c-2.7,0.8-5.5,1.1-8.4,1.1c-2.2,0-4.4,0.1-6.6-0.4c-3.6-0.7-5.4-3.2-6.3-6.1c-1-3.6-0.9-7.8-0.8-11.4
				c0.5-12.2,11.5-25.9,14.2-37.8c1-4.6,2.4-9,3.1-13.7c0.2-1.4-0.7-2.7-2.1-2.9C584.3,308.1,583,309,582.8,310.4z"/>
			<path class="st1" d="M537.6,309.1c0.9-0.6,1.7-0.9,2.4-0.9c0.4,0,0.9,0,1.4,0.1c0.4,0.1,0.7,0.1,1.1,0.3c1.2,0.4,2.2,1.3,2.8,2.6
				c0.6,1.1,0.8,2.5,0.9,3.5c0.3,2.4-0.1,9.3-2.4,12.6c-1.6,2.2-3.8,3.3-6.7,2.4c-0.9-0.3-1.7-1-2.4-2c-0.2-0.4-0.4-0.8-0.6-1.2
				c-0.8-1-1.4-2.4-1.6-3.9c-0.4-2.7,0.1-6.2,1.3-8.9C534.8,311.5,536.1,310,537.6,309.1z"/>
			<path class="st1" d="M641.9,307.4l0.2-0.1c1.4-0.9,2.9-1.2,4.4-0.8c0.6,0.2,1.2,0.6,1.8,1.2c0.1,0.1,0.2,0.2,0.4,0.2
				c1.4,1.1,2.3,3.1,2.4,5.5c0.1,4.1-1.8,9.6-3,11.3c-0.7,1.1-2.4,2.8-4.1,3.5c-1.2,0.5-2.5,0.6-3.6,0.1c-0.8-0.3-1.5-0.9-2.1-1.8
				c-0.4-0.5-0.6-1.2-0.9-1.8c-0.8-1.1-1.3-2.6-1.5-4.2c-0.5-3.6,0.6-8,1.8-9.8c0.2-0.3,1.5-1.8,2.7-2.7
				C640.8,307.9,641.4,307.6,641.9,307.4z"/>
			<path class="st1" d="M677.5,269.2c0.5,0.2,0.9,0.5,1.1,0.8c0.4,0.5,0.3,1.1-0.4,1.6c-0.7,0.5-1.9,0.8-3.4,0.8
				c-1.5,0-3.6-0.3-4.4-0.4c-4.4-0.7-7.6-1.5-12.5-1.3c-5.5,0.3-10.4,1-15.6,1.7c-1.2,0.2-3.9,0.6-5.7,0.4c-1.6-0.1-2.9-0.5-3.5-1.3
				c-0.4-0.4-0.4-0.9-0.1-1.3c0.4-0.6,1.5-1.2,2.3-1.5c2.6-1.1,5.6-1.8,9.1-2.3c8.2-1.2,16.7-0.8,24.8,0.5c2.5,0.4,5.3,0.9,7.4,1.6
				C677,268.6,677.4,268.9,677.5,269.2z"/>
			<path class="st1" d="M524,268.3c3.5-0.9,7.6-1.5,11.3-1.7c10.9-0.6,22.3,1,30.6,4.6c0.6,0.2,1.1,0.4,1.5,0.6
				c0.2,0.1,0.5,0.3,0.7,0.4c0.5,0.2,0.9,0.5,1.3,0.7c0.9,0.5,1,1.3,0.2,1.8c-0.1,0.1-0.1,0.2-0.2,0.3c-0.5,0.6-1.4,1-2.7,1.1
				c-1.4,0.2-3.8-0.1-5.1-0.3c-2.6-0.4-5.1-1-7.5-1.6c-2.1-0.5-4.1-0.9-6.4-1c-7-0.4-13.8,0.5-20.7,0.7c-1.5,0.1-3.9,0.1-5.9-0.2
				c-2-0.3-3.6-0.9-4.3-1.9c-0.4-0.6-0.3-1.2,0.6-1.8c0.6-0.4,2-0.8,2.4-1C521.2,268.9,522.6,268.6,524,268.3z"/>
			<path class="st1" d="M549.2,419.8c2.9,0.9,5.9,1.6,8.9,2.2c3.7,0.8,7.4,0.5,11.1,0.7c9.3,0.5,18.2,0.3,27.4-1.5
				c5-1,9.7-2.7,14.4-4.7c2.9-1.3,5.9-2.4,7.2-5.3c0.4-0.8,0.9-1.3,1.5-1.6c0.8-0.4,1.8-0.5,2.8-0.1c0.7,0.3,1.5,0.9,2.1,1.5
				c0.7,0.7,1.1,1.5,1.2,1.8c0.5,1.5-0.2,3.1-1.7,3.7c-0.8,0.3-1.7,0.2-2.3-0.2c-2.1,2.5-5.2,4.1-8.5,5.5c-5,2.1-10.1,3.9-15.5,5
				c-9.7,2-19,2.1-28.8,1.6c-4-0.2-8,0-12-0.8c-4.5-0.9-9-2-13.2-3.8c-0.7-0.3-1.3-0.8-1.6-1.6c-0.2-0.4-0.3-1-0.2-1.8
				c0.1-0.4,0.4-1.2,1-2c0.8-1.2,2.2-2.8,2.4-2.9c1.2-1.1,3-0.9,4,0.3C550.4,416.9,550.4,418.6,549.2,419.8l0.1-0.1L549.2,419.8z"/>
			<path class="st1" d="M564.7,441.8c9,6.8,22.6,5.6,32.5,1.1c1.4-0.6,2.1-2.3,1.4-3.8c-0.6-1.5-2.3-2.1-3.8-1.5
				c-8.2,3.7-19.4,5.1-26.8-0.5c-1.3-0.9-3-0.7-4,0.6C563.2,439.1,563.4,440.9,564.7,441.8z"/>
			<path class="st2" d="M609,147.3c-44.7,8.8-77.1,39.4-93.3,81.6c-8.1,21.1-10.7,45.3-22.5,64.9c-6.7,11.2-17.4,20.5-26.8,30.6
				c-10,10.6-18.5,22-20.4,36.7c-2,15.9,4.3,29.8,10.7,43.8c5.9,13,11.9,26,9.9,41c-2.6,19-16.1,35.2-26.3,52.1
				c-10.9,18-18.3,36.7-7.7,59.3c0.7,1.4,2.4,2.1,3.8,1.4c1.4-0.7,2-2.4,1.4-3.8c-9.6-20.6-2.5-37.5,7.4-53.8
				c10.6-17.5,24.4-34.6,27.1-54.3c2.2-16.1-4-30.2-10.4-44.2c-5.9-13-12-25.9-10.2-40.6c1.7-13.4,9.7-23.7,18.8-33.5
				c9.7-10.3,20.6-20,27.5-31.5c11.9-19.9,14.6-44.3,22.9-65.8c15.5-40.2,46.4-69.5,89.1-78c1.5-0.3,2.5-1.8,2.2-3.4
				C612,148,610.5,147,609,147.3z"/>
			<path class="st1" d="M447,360.8c0.7,3.3,1.5,6.6,2.7,9.8c0.9,2.7,2.1,5.3,3.3,7.9c2.3,4.9,8.4,13.7,15.4,18.5
				c5.4,3.7,11.2,5.1,16.6,2c1.4-0.8,1.9-2.5,1.1-3.9c-0.8-1.4-2.5-1.9-3.9-1.1c-3.4,2-7.1,0.6-10.6-1.8c-6.2-4.3-11.5-12-13.5-16.3
				c-1.1-2.4-2.2-4.8-3.1-7.3c-1.1-3-1.8-6.1-2.5-9.2c-0.3-1.5-1.9-2.5-3.4-2.2C447.6,357.7,446.6,359.3,447,360.8z"/>
			<path class="st1" d="M478.2,346.2c-2.7-4.3-6.8-6-10.7-5.6c-3.8,0.4-7.6,2.8-9.6,7c-2.7,5.6-3,16.2,0.1,24.4
				c2.2,6,6.1,10.6,11.6,11.9c2,0.5,3.9,0,5.5-1c2.1-1.3,3.7-3.6,4.4-5.7c1.2-3.6,0.8-11.7-1.9-16.9c-2.3-4.4-5.9-6.8-10.8-5
				c-1.5,0.5-2.2,2.2-1.7,3.7c0.5,1.5,2.2,2.3,3.6,1.7c1.8-0.7,3,0.6,3.9,2.3c2,3.8,2.5,9.7,1.6,12.3c-0.3,0.9-0.9,1.8-1.7,2.4
				c-0.5,0.4-1,0.7-1.7,0.6c-3.7-0.9-6.1-4.3-7.5-8.3c-2.5-6.7-2.5-15.4-0.3-19.9c1.1-2.2,3-3.6,5.1-3.8c2-0.2,4,0.8,5.3,2.9
				c0.8,1.3,2.6,1.7,3.9,0.9C478.6,349.3,479,347.6,478.2,346.2z"/>
			<path class="st1" d="M688.7,398.6c7.3,3.6,13.5,1.6,18.3-3c6.5-6.2,10.3-17.6,10.6-25.1c0.1-1.6-1.2-2.9-2.7-3
				c-1.6-0.1-2.9,1.2-3,2.8c-0.2,5.3-2.5,12.9-6.4,18.3c-3.4,4.7-8.3,7.8-14.4,4.8c-1.4-0.7-3.1-0.1-3.8,1.3
				C686.7,396.2,687.3,397.9,688.7,398.6z"/>
			<path class="st1" d="M695.4,377.8c3.1,2.7,6.6,2.6,9.8,1.1c2.7-1.3,5.1-3.8,6.4-6.2c0.7-1.4,0.2-3.1-1.2-3.9
				c-1.4-0.7-3.1-0.2-3.8,1.2c-0.8,1.5-2.2,3-3.8,3.8c-1.2,0.6-2.5,0.7-3.6-0.3c-1.2-1-3-0.9-4,0.3
				C694,374.9,694.2,376.7,695.4,377.8z"/>
			<path class="st3" d="M628.9,69.7c-10.6-5.9-23.6-8.2-35.6-8.6c-10-0.4-19.8,1.6-29.3,4.3c-40.3,11.3-64.8,44.8-82.1,80.8
				c-7.7,16.1-14.4,33.9-25.4,48.2c-23.9,31.2-62.3,54.9-74.8,93.9c-6.4,19.9-3.5,39.9-5.8,60.3c-1.8,15.5-7.3,30.1-15.3,43.4
				c-16.1,26.8-32,33.5-29,67.7c1.3,15.2-1.4,49.2-17.5,67.9c-10.6,12.3,58.7,43.9,109.7,35.6c44.1-7.2,98.2-7.8,102.3-69.9
				c1.8-26.9-11.7-44.9-24.6-66.7c-5.1-8.6-8.5-19.7-15.1-27.2c-2.4-2.8-4.2-18.7-7.6-20.3c-7.4,14.2-20.2-1.4-22.9-11.5
				c-2.5-9.2-1.1-16.5,3.3-24.3c9.3-16.3,21.8-31,32.6-46.3c18.6-26.2,19.6-60.7,35.8-88.6c10.7-18.6,28.4-30.7,46-42.1
				c7.8-5.1,16-9.5,24.3-13.8c2.4-1.3,7.2-5.2,10-5.1c11.2,0.4,27.9,15.3,35.5,23c18.9,19,25.9,48.8,37.5,72.5
				c7.1,14.4,18,29.4,20.1,45.7c1.9,15.6-3.6,30.6-2,45.9c1,9.6,3.8,27.7,10.2,34.8c9.7,10.7,2.8,6.9,0,14.9
				c-5.8,16.8-19.1,11.3-19.1,11.3c-16.5,35.5-38.3,57.8-44.3,64.3c-1.9,2-2,62.2,5.6,76.3c6.1,11.4,18,21.7,29.5,27.2
				c38.3,18.2,82,10.9,114.8,13.9c34.8,3.1,31.5-16.1,33.3-27.2c3.5-21.8-9.6-35,0-77.9c5.4-24.4,11.2-45.1,0-80
				c-10.2-31.8-37.2-47.8-47.1-79.9c-7.4-23.8-8.1-47.6-11.9-72c-5.5-36.1-14.4-71.8-32-104c-17.8-32.7-61.2-86.9-105-67.3"/>
			<path class="st1" d="M517.1,457.6c3,19.7,8.1,44.4-0.3,63.6c-7.9,18-26.6,26.7-42.6,36.1c-35.2,20.7-76.8,33.8-107.5,61.6
				c-23.9,21.6-31.6,60.6-33.5,91.1c-0.1,1.6,1.1,3,2.7,3.1c1.6,0.1,2.9-1.1,3-2.7c1.8-29.2,8.8-66.5,31.6-87.2
				c30.4-27.5,71.7-40.4,106.5-60.9c17-10,36.5-19.6,44.9-38.7c8.8-20.1,3.9-46.1,0.7-66.8c-0.2-1.6-1.7-2.7-3.2-2.4
				C517.9,454.6,516.9,456,517.1,457.6z"/>
			<path class="st1" d="M643.2,463.8c-0.5,14.9-2.2,30.7-1.5,46c0.8,15.8,4.2,31,14,44.3c8.2,11.1,20,18.5,32.7,24.4
				c12.3,5.8,25.4,10.2,36.7,15.8c21.1,10.4,45.9,23.7,60.2,42.8c14.6,19.4,18.4,44.6,20.2,68.2c0.1,1.6,1.5,2.8,3.1,2.6
				c1.6-0.1,2.7-1.5,2.6-3.1c-1.9-24.7-6.1-50.9-21.3-71.2c-14.9-19.8-40.4-33.7-62.3-44.5c-11.3-5.6-24.5-10.1-36.8-15.9
				c-11.8-5.6-22.9-12.3-30.5-22.6c-9.1-12.4-12.2-26.5-12.9-41.2c-0.8-15.1,1-30.8,1.5-45.5c0.1-1.6-1.2-2.9-2.8-3
				C644.6,460.9,643.3,462.2,643.2,463.8z"/>
			<path class="st2" d="M610.5,151.8c4.6,4.4,10.1,7.4,15.6,10.6c5.1,2.9,10.1,5.8,14.2,10.1c8.8,9.4,13.9,19.8,18.2,30.6
				c4.5,11.2,8.2,22.7,14.2,33.9c7.9,14.7,18.8,25.9,22.4,42.9c2.2,10.3,0.8,20.8-0.4,31.3c-1.2,11.2-2.2,22.3,1.1,33.1
				c4.3,14.5,13.6,25.9,21.9,37.7c7.9,11.1,15,22.6,15.7,37.9c0.6,13.7-4.9,25.3-10.6,36.7c-6.1,12.2-12.4,24.3-13,38.1
				c-0.3,7.2,1.9,14,4.9,20.6c2.8,6.1,6.4,12,8.9,18c5.4,12.5,6.4,25.6,2.8,38.6c-0.4,1.5,0.5,3.1,2,3.6s3.1-0.5,3.5-2
				c4-14.3,2.9-28.8-3-42.5c-2.6-6-6.1-12-9-18.1c-2.6-5.7-4.7-11.6-4.4-17.9c0.5-13,6.6-24.3,12.4-35.8
				c6.1-12.3,11.8-24.8,11.2-39.5c-0.7-16.5-8.2-29-16.7-40.9c-8-11.3-16.9-22.1-21.1-36c-3-10-2-20.4-0.8-30.7
				c1.2-11.1,2.6-22.2,0.3-33.1c-3.8-17.6-14.9-29.2-23-44.4c-5.9-11-9.5-22.4-14-33.4c-4.6-11.4-10-22.4-19.4-32.4
				c-4.5-4.7-9.9-8-15.5-11.2c-5.1-2.9-10.3-5.7-14.5-9.7c-1.1-1.1-2.9-1-4,0.1C609.3,148.9,609.4,150.7,610.5,151.8z"/>
			<path class="st2" d="M455.2,351.7c-0.5,0.3-0.7,0.2-1,0.7c-0.3,0.4-0.3,0.9-0.5,1.3c-2.5,6.8-5.2,13.5-7.1,20.4
				c-1.4,5.2-2.3,10.6-2.2,16.2c0.1,4.6,0.6,9.1,1.3,13.4c1.1,6.5,2.5,12.9,3.1,19.5c0.4,4.4,0.5,9-0.3,13.7
				c-0.8,5.1-2.3,9.7-4.3,14.1c-4.9,10.8-12,20.1-16.3,31.6c-2,5.4-2.9,10.9-2.9,16.5c0,5.5,0.8,11,2.5,16.5c1,3.4,2.3,6.6,3.8,9.8
				c1.5,3.2,3.2,6.2,5,9.2c0.1,0.2,0.4,0.3,0.6,0.1c0.2-0.1,0.3-0.4,0.1-0.6c-1.8-3-3.4-6-4.8-9.2c-1.4-3.1-2.6-6.4-3.5-9.7
				c-1.5-5.3-2.2-10.7-2-16.1c0.2-5.3,1.2-10.6,3.2-15.7c4.6-11.4,12.1-20.4,17.2-31c2.2-4.6,4-9.4,5-14.9c0.9-5,0.9-9.9,0.6-14.6
				c-0.5-6.7-1.9-13.2-3.1-19.8c-0.7-4.2-1.4-8.5-1.6-12.9c-0.2-4,0.1-7.8,0.8-11.5c1.4-8.2,4.2-16,6.7-24c0.2-0.5,0.4-1.1,0.5-1.6
				c0-0.1,0-0.1,0-0.2c-0.1-0.5-0.2-0.6-0.4-1.1c0-0.1,0-0.2-0.1-0.2C455.3,351.5,455.2,351.6,455.2,351.7z"/>
			<path class="st2" d="M709.1,375.7c-0.3,0.9-0.6,0-0.3,1c0.1,0.2,0.4,0.3,0.6,0.5c1.4,1.3,2.5,2.9,3.5,4.6
				c0.6,1.1,1.2,2.3,1.7,3.5c1.4,3.5,2.3,7.3,2.8,10.7c1.1,7.1,0.5,13.9-1.1,20.6c-1.6,6.7-4.3,13.3-7.3,19.7
				c-2.4,5-5.1,9.9-7.2,15.1c-1.4,3.6-2.5,7.3-2.9,11.2c-0.5,4.2,0.3,8.2,1.6,12c1.4,4.2,3.6,8.2,5.6,12.3c1.9,3.9,3.6,7.8,4.3,12
				c0.8,4.6,0.4,8.4-0.6,11.9c-1.7,5.7-5,10.7-7.9,17.1c-0.1,0.2,0,0.5,0.2,0.7c0.2,0.1,0.5,0,0.7-0.2c3.4-6.3,7.1-11.1,9.2-16.8
				c1.4-3.8,2.1-8,1.5-13.1c-0.6-4.6-2.3-8.9-4.2-13.1c-1.8-4-3.9-7.9-5.3-12c-1.1-3.3-1.8-6.7-1.4-10.4c0.4-3.5,1.4-6.9,2.7-10.2
				c2-5.1,4.7-10,7.1-14.9c3.8-8,7-16.3,8.4-24.8c1-5.8,1.1-11.7,0.1-17.7c-0.8-4.4-2.1-9.4-4.5-13.6c-1.5-2.6-3.4-4.9-5.7-6.6
				c-0.2-0.1-0.3-0.3-0.5-0.3c-0.9,0-0.1,0-0.9,0.5c-0.1-0.1-0.2,0-0.3,0C709,375.5,709,375.6,709.1,375.7z"/>
			<path class="st2" d="M605.8,166.1c0.4-0.2,0.6-0.1,0.8-0.5c0.6-0.7,0.5-1.8,0.8-2.6c1.1-4,2.1-8,2.9-12.1
				c1.2-6.1,2.2-12.2,2.9-18.4c1.3-12,1.7-24.1,1.6-36.1c0-5.2-0.2-10.3-0.4-15.5c0-0.1-0.1-0.2-0.2-0.2c-0.1,0-0.2,0.1-0.2,0.2
				c0,5.7-0.2,11.4-0.4,17.2c-0.3,8.5-0.9,17.1-1.7,25.6c-0.6,6.4-1.5,12.7-2.5,19.1c-1,6.3-2.2,12.6-3.6,18.9
				c-0.3,1.1-0.5,2.2-0.8,3.3c0,0.1,0,0.1,0,0.2c0.1,0.5,0.2,0.4,0.5,0.8c0,0.1,0,0.2,0.1,0.2C605.7,166.3,605.8,166.2,605.8,166.1z
				"/>
			<path class="st2" d="M615.7,118.5c-0.7,0.2-1.4,0.2-2.1,0.5c-1.4,0.6-2.6,1.6-3.9,2.4c-7,3.9-14.4,6.5-21.8,8.8
				c-11.4,3.5-23.1,6.2-34.2,10.8c-8.7,3.6-17,8.3-24.4,15.4c-8,7.7-13.1,16.2-16.8,25.1c-8.6,21.2-8.8,45.1-19.4,66.6
				c-3.3,6.8-7,13.5-11.2,19.8c-4.2,6.2-8.8,12.1-14.3,17.4c-9.1,8.9-19.3,17.1-28,26.6c-5.9,6.4-11.1,13.5-14.7,21.6
				c-3.8,8.6-5.5,17.6-6.1,26.9c-1.3,20.7,2.7,42.5-2,62.9c-2.3,9.8-6.4,18.6-11,27.2c-7.2,13.4-15.4,25.9-19.7,40.1
				c-2.1,7-3.3,14.3-2.9,22.3c0.2,3.1,0.6,6.3,1.3,9.6c0.1,0.3,0.4,0.5,0.7,0.5c0.3-0.1,0.5-0.4,0.5-0.7c-0.6-3.3-0.9-6.4-0.9-9.4
				c-0.3-7.8,0.9-14.9,3.1-21.7c4.4-14,12.8-26.3,20-39.5c4.8-8.7,9-17.7,11.4-27.7c4.9-20.4,1.1-42.4,2.6-63.3
				c0.6-8.8,2.2-17.5,6-25.7c3.5-7.8,8.5-14.5,14.2-20.6c8.7-9.4,18.9-17.5,28-26.3c5.6-5.5,10.4-11.6,14.7-18
				c4.3-6.4,8-13.2,11.4-20.2c10.6-21.6,10.7-45.6,19.3-66.9c3.5-8.6,8.3-16.7,15.9-24.1c7.1-6.9,15.1-11.4,23.4-14.9
				c11-4.6,22.7-7.2,33.9-10.9c7.6-2.5,15-5.5,22-9.8c1.3-0.8,2.7-1.6,4-2.6c0.1-0.1,0.2-0.2,0.3-0.3c0.4-0.5,0.6-0.9,0.9-1.5
				c0.1-0.1,0.1-0.2,0-0.3C615.9,118.4,615.7,118.4,615.7,118.5z"/>
			<path class="st2" d="M612.8,119c0.6,0.5,0.8,1,1.5,1.4c0.8,0.4,1.7,0.5,2.5,0.8c11.6,3.7,24,10.3,35,18.7
				c12.3,9.5,22.7,21.2,27.5,33.8c5.9,15.5,6.7,33.2,11.3,49.2c1.2,4.2,2.7,8.2,4.5,12.1c7.4,15.7,21.2,27.4,30.5,42
				c2.2,3.5,4.2,7.2,5.7,11.2c6.2,16.5,3.3,34.4,6.2,51.5c0.7,4.4,1.8,8.7,3.5,13c5.3,13.6,15.6,24.6,21.7,37.6
				c2.5,5.3,4.3,11,4.7,17.3c0.3,4.4-0.2,8.6-1.2,12.7c-4.2,17.1-16.7,31.9-17.4,50c-0.5,16.2,5.6,30.7,6.7,46.1
				c0.4,6.3,0,12.7-2.1,19.5c0,0.2,0,0.3,0.2,0.4c0.1,0.1,0.3,0,0.4-0.2c2.4-6.8,3.1-13.4,2.9-19.8c-0.5-15.4-6.3-29.9-5.5-46
				c0.8-17.9,13.4-32.5,17.6-49.4c1.1-4.4,1.7-8.9,1.4-13.6c-0.4-6.7-2.2-12.8-4.9-18.5c-6-12.9-16.2-24-21.5-37.5
				c-1.6-4-2.6-8.1-3.3-12.3c-2.8-17.3,0.1-35.4-6.2-52.2c-1.6-4.2-3.6-8.2-6-11.9c-9.1-14.5-22.9-26.1-30.2-41.7
				c-1.8-3.7-3.1-7.6-4.3-11.6c-4.7-16.1-5.6-33.8-11.7-49.4c-5.1-13-15.9-25.2-28.8-34.9c-11.3-8.4-24.1-15-36-18.6
				c-0.9-0.3-1.7-0.7-2.6-0.7c-0.8,0-1.2,0.3-2,0.4c-0.1,0-0.2,0-0.2,0.1C612.6,118.9,612.7,119,612.8,119z"/>
			<path class="st2" d="M793.8,549.7c0.8-0.7,1.7-1.4,2.4-2.2c1.1-1.2,2-2.6,2.9-3.9c6.3-9.1,9.7-19.4,11.7-30.1
				c2.2-11.7,2.7-24,2.9-36.3c0.1-8.1,0.1-16.2,0.4-24.1c0.4-11.3,1.4-22.8,0.5-34.2c-0.6-7.7-2.1-15.2-5.1-22.4
				c-5.2-12.4-14.2-22.2-21.6-32.8c-1.9-2.6-3.6-5.3-5.2-8.1c-3.3-5.8-5.7-12.1-6.6-19.5c0-0.3-0.3-0.5-0.6-0.5
				c-0.3,0-0.5,0.3-0.5,0.6c0.5,7.6,2.8,14.2,5.9,20.3c1.5,2.9,3.2,5.8,5.1,8.5c7.1,10.6,16,20.2,21,32.5c2.8,7,4.2,14.2,4.8,21.6
				c0.9,11.2-0.1,22.7-0.5,33.8c-0.3,7.9-0.3,16-0.3,24.2c-0.1,12.1-0.3,24.2-2.3,35.9c-1.8,10.5-5.2,20.4-10.9,29.6
				c-0.8,1.3-1.8,2.6-2.6,4c-0.6,0.9-1,1.9-1.6,2.8c-0.1,0.1-0.1,0.2,0,0.3C793.6,549.8,793.7,549.8,793.8,549.7z"/>
			<path class="st2" d="M350.8,525.9c0.2-1,0.4-1.8,0.5-2.8c0-0.2,0-0.5,0-0.7c0-10,1.3-20.6,3.8-31c2.7-11.5,6.6-22.8,11.5-32.6
				c4.2-8.6,9.6-16,13.8-24.4c1.8-3.6,3.3-7.4,4.5-11.5c1.6-5.9,2.3-11.8,2.6-17.8c0.6-13.7-1.1-27.4,0.3-41.2
				c0.9-8.5,2.8-16.9,5.4-25.1c3.8-12.3,8.9-24.4,13.9-36.1c0.1-0.2,0-0.4-0.2-0.5c-0.2-0.1-0.4,0-0.5,0.2
				c-5.4,11.6-10.9,23.5-15,35.9c-2.7,8.3-4.8,16.7-5.8,25.4c-1.6,13.8,0,27.6-0.8,41.3c-0.3,5.7-1.1,11.5-2.7,17.1
				c-1.1,3.9-2.6,7.4-4.3,10.9c-4.1,8.3-9.6,15.8-13.7,24.4c-4.8,10.1-8.7,21.6-11.2,33.4c-2.3,10.6-3.4,21.4-3.1,31.5
				c0,0.2,0,0.5,0,0.7c0.1,1,0.5,1.8,0.8,2.8c0,0.1,0.1,0.2,0.2,0.2C350.8,526.1,350.8,526,350.8,525.9z"/>
		</g>
		<path class="st4" d="M520.9,452.5c0,0,22.7,102.6,68.1,98.6c45.3-4,58.6-89.8,58.6-89.8S590.5,549.5,520.9,452.5z"/>
	</g>
	<g transform="matrix(1.07011,0,0,1.10621,-3.66587,-21.6103)">
		<path class="st5" d="M510.5,355c-6.6,1.7-13.6-1.9-17.4-7.9c-3.8-6-4.1-13.7,0.5-18.8c6.8-7.4,17.1-5.3,23.6,1.5
			c6.4,6.7,8.3,16.7,0.8,22.3C515.6,353.9,513.1,354.8,510.5,355z"/>
	</g>
	<g transform="matrix(1.07011,0,0,1.10621,-3.66587,-21.6103)">
		<path class="st5" d="M668.3,333.6c-0.3,0.9-0.7,1.7-1,2.5c-2.1,4.4-8.2,10.6-14.2,12.5c-5.7,1.8-11.3,0.9-15.1-5.5
			c-1.1-1.9-1.6-4.1-1.4-6.4c0.2-2.5,1.1-5,2.1-7c2.5-4.9,7.8-10.7,13.5-12.8c5-1.8,10.3-1.5,14.9,3.2c1.7,1.7,2.6,4.1,2.7,6.6
			C669.8,329.1,669.1,331.7,668.3,333.6z"/>
	</g>
	<path class="st4" d="M809.4,672.7c0-0.3,0-0.5,0-0.6c0.1-1.2,0.3-2.3,0.5-3.4c0.2-1.1,0.5-2.2,0.8-3.3c0.7-2.8,2.1-5.6,4-7.9
		c2-2.5,4.6-4.4,7.3-5.2c1.1-0.3,2.3-0.6,3.4-0.5c2.4,0.1,4.8,1.1,6.8,3.5c0.2,0.3,0.6,0.5,0.6,0.8v0.2c0,0.8,0.3-0.6-0.4,0.3
		c0.1,0.1,0.1,0.2,0,0.3c-0.1,0.1-0.2,0.1-0.3,0c-0.7,0.4,0.1,0.4-0.3,0.3c-0.1,0-0.1,0-0.3,0c-0.4,0-0.6-0.4-0.9-0.7
		c-2-1.4-4-1.7-5.8-1.4c-1.3,0.2-2.5,0.7-3.7,1.5c-1.3,0.9-2.4,2-3.4,3.3c-1.5,1.9-2.7,4.2-3.2,6.4c-0.3,1-0.5,2.1-0.7,3.1
		c-0.2,1-0.4,2-0.5,3.1c0,0.2,0,1.7-0.1,2.2c-0.2,1.1-0.9,1.6-1.2,1.7c-0.9,0.5-2.2,0.5-3.7,0.1c-1.8-0.5-4-1.7-5.1-2.1
		c-2-0.7-4.5-1.2-6.9-1c-2.2,0.1-4.4,0.7-5.9,2.1c-0.6,0.6-1.2,1.2-1.8,1.9c-0.5,0.6-0.9,1.3-1.3,2.1c-2.4,5.6-0.7,9.7,2.7,12.9
		c5.7,5.2,15.8,7.9,21.9,9.5c1.6,0.4,4.2,1.6,6.6,2.3c1.3,0.4,2.5,0.7,3.4,0.5c0.7-0.2,1.3-0.9,1.8-1.7c1.1-1.6,1.9-3.5,2.5-4.9
		c1.9-3.9,3.7-7.7,5.4-11.6c1-2.3,1.8-4.7,2.8-7c0.1-0.3,0.3-0.5,0.4-0.8c0.4-0.7,0.8-1.4,1.3-2.1c0.1-0.3,0.4-0.6,0.8-0.5
		c0.3,0.1,0.6,0.4,0.5,0.8c0.1,1.1,0.3,2,0.2,3.1c-0.2,2.3-1.1,4.5-1.8,6.7c-0.3,0.9-0.6,1.9-1,2.8c-1.4,3.6-3.2,7-4.8,10.5
		c-0.8,1.8-2,4.5-3.5,6.4c-0.9,1.1-2,1.9-3.3,2.3c-1.2,0.4-2.8,0.3-4.5-0.1c-2.7-0.6-5.9-2.1-7.8-2.6c-6.7-1.8-17.5-4.8-23.7-10.4
		c-4.7-4.3-7-9.9-3.7-17.5c0.5-1.1,1.1-2.1,1.8-3c0.7-0.9,1.5-1.7,2.3-2.4c1.8-1.7,4.2-2.6,6.7-3c3.5-0.5,7.3,0,10.3,1.1
		c0.8,0.3,2.2,1,3.6,1.6C808.6,672.4,809,672.6,809.4,672.7z"/>
	<path class="st4" d="M786.7,675.9c2.4-9.4,4.9-3.8,5.5,1.2c0.8,0.2,0.7,1.3,0.1,2.7c-0.1,1.5-0.5,2.5-1.3,2.3
		c-2.8,4.2-7.5,8-5.5-1.4c1-0.8,1.8-1.4,2.6-1.9C787.7,678,787.2,677,786.7,675.9z M785.6,680.6L785.6,680.6c-0.2,0.1-0.3,0.1-0.4,0
		c-0.5,0-0.9-0.1-1.4-0.2c-0.7-0.1-1.3-0.4-2-0.6c-1.9-0.7-3.7-1.6-5.5-2.6c-2.6-1.4-5-3-7.6-4.5c-0.5-0.2-0.7-0.8-0.5-1.3
		c0.2-0.5,0.8-0.7,1.3-0.5c3.3,0.9,6.3,1.8,9.5,2.6c1.4,0.4,2.8,0.7,4.3,1.1c0.6,0.2,1.2,0.3,1.8,0.5c0.5,0.2,1,0.4,1.4,0.6
		c0,0,0.1,0,0.1,0l0,0.1l0,0.2c-0.2,0.7-0.4,1.3-0.4,2c0,0,0.2,0.1,0.2,0.2c0,0.1-0.2,0.1-0.2,0.2c-0.2,0.6-0.3,1.3-0.5,2
		L785.6,680.6z"/>
	<path class="st4" d="M766.5,666.8c0.1-0.2,0.3-0.4,0.6-0.4c0.1-0.1,0.2-0.2,0.4-0.2c0.5-0.2,1-0.1,1.5-0.1c1.2,0,1.9,0.2,2.3,0.4
		c0.1,0.1,0.3,0.2,0.4,0.2c0.1-0.1,0.2-0.1,0.3,0c0.1,0.1,0.1,0.2,0,0.3l0,0.1c0.2,0.4,0.2,0.9-0.2,1.5c0,0.1,0,0.3,0,0.5
		c0,0.2-0.1,0.3-0.1,0.4c-0.4,1.1-0.8,2.1-1.1,3.2c-0.1,0.4-0.2,1.6-0.5,2.4c-0.2,0.6-0.6,1-0.8,1.3c-0.5,0.4-1.4,0.7-2.4,0.2
		c-1.3-0.6-3.8-3.3-4.2-3.8c-0.3-0.4-1.2-1.1-1.8-1.8c-0.5-0.6-0.9-1.2-1-1.6c-0.1-0.2-0.4-1.7,1.1-2c0.1,0,0.2,0,0.4-0.1
		c0.7-0.1,2.4-0.2,2.7-0.2C764,666.9,765.3,666.8,766.5,666.8z M762.6,668.3C762.6,668.2,762.6,668.2,762.6,668.3c0-0.1,0-0.2,0-0.2
		C762.6,668.1,762.6,668.2,762.6,668.3z"/>
	<path class="st4" d="M758.2,669.8L758.2,669.8c-0.2,0.3-0.7-0.5-0.8-0.7c-0.2-0.3-0.2-0.6-0.2-0.9c0-0.3,0.1-0.7,0.4-1
		c0.3-0.4,0.8-0.7,1.4-0.8c0.8-0.2,1.8-0.3,2.4-0.3l7.2-0.1c0.4,0,1.6-0.3,2.3-0.4c0.5,0,0.9,0.1,1.2,0.2c0.4,0.2,0.7,0.5,0.9,1
		c0.3,0.7,0.2,1.9,0.1,2.3c-0.1,0.9-0.4,1.7-0.7,2.6c-0.4,1.1-0.9,2.3-1.4,3.4c-0.1,0.3-0.5,1.6-0.8,2.1c-0.3,0.6-0.8,0.8-1,0.8
		c-0.5,0.1-1.1,0.1-1.6-0.2c-0.6-0.3-1.3-0.9-1.7-1.2c-0.7-0.7-1.4-1.4-2-2.2c-1.5-1.4-3.4-2.4-5-3.8L758.2,669.8z M768.3,675.4
		c-0.3,0.1-0.6,0.2-0.4,0.4C768.1,675.9,768.2,675.7,768.3,675.4z M770.6,668.7c-0.6,0.1-1.5,0-1.8,0l-7.2,0.3l-0.4,0
		c0.3,0.3,0.6,0.6,0.9,0.9c0-0.1,0.1-0.1,0.2-0.2c0.4-0.3,0.9-0.2,1.1,0.1c0.8,0.8,1.7,1.5,2.5,2.4c0.7,0.8,1.3,1.6,2.1,2.3
		c0.1,0.1,0.3,0.2,0.5,0.3c0.1-0.4,0.1-0.7,0.2-0.8c0.5-1.1,1-2.1,1.4-3.2C770.2,670.2,770.4,669.5,770.6,668.7
		C770.6,668.7,770.6,668.7,770.6,668.7z M759.9,667.7c-0.1-0.3-0.2-0.5-0.3-0.3C759.5,667.5,759.7,667.6,759.9,667.7z"/>
	<path class="st4" d="M832.2,668.6l0.2,0.1c0,0,0,0.1,0.1,0.1c0.4,0.8,0.5,1.7,0.7,2.5c0.3,2.1,0,4.4-0.3,6.4
		c-0.3,1.5-0.6,3-1.1,4.5c-0.7,2.2-1.6,4.3-2.7,6.4c-0.9,1.7-1.9,3.4-3.1,4.9c-1.2,1.5-2.6,2.8-4.1,4c-0.2,0.2-0.5,0.3-0.8,0.1
		c-0.2-0.2-0.3-0.5-0.1-0.8c0.9-1.6,1.6-3.3,2.4-5c0.8-1.6,1.6-3.2,2.3-4.9c0.8-2,1.5-4,2.2-6c0.4-1.4,0.9-2.7,1.2-4.1
		c0.3-1.1,0.7-2.3,0.9-3.6c0.2-1.2,0.4-2.3,0.3-3.4c0-0.2-0.1-0.4,0-0.6l0.1-0.3c0.6-1.2-0.8,0.6,0.8-0.2c0-0.1,0-0.2,0.1-0.3
		c0.1,0,0.2,0,0.3,0.1C833.3,668.6,830.9,668,832.2,668.6z"/>
	<path class="st4" d="M824.9,677.4c-0.6-0.1-0.1-0.3-0.6-0.1c-0.1,0-0.1,0.1-0.1,0.1c-0.7,0.9-1.2,1.9-1.7,2.9
		c-0.8,1.5-1.5,3.1-2.2,4.7c-0.1,0.3-0.3,0.6-0.4,1c-0.3,0.8-0.4,1.6-0.7,2.4c-0.1,0.2-0.1,0.5,0.2,0.6c0.2,0.1,0.5,0.1,0.6-0.2
		c0.7-0.8,1.4-1.5,2-2.4c0.9-1.3,1.5-2.6,2.1-4c0.6-1.4,1.1-2.8,1.6-4.2c0-0.1,0.1-0.2,0.1-0.2c-0.1-0.6,0,0-0.5-0.5
		c0-0.1,0-0.2-0.1-0.3C825.1,677.3,825,677.3,824.9,677.4z"/>
</g>
</svg>
