<?xml version="1.0" encoding="utf-8"?>
<!-- Generator: Adobe Illustrator 24.1.0, SVG Export Plug-In . SVG Version: 6.00 Build 0)  -->
<svg version="1.1" id="Layer_1" xmlns="http://www.w3.org/2000/svg" xmlns:xlink="http://www.w3.org/1999/xlink" x="0px" y="0px"
	 viewBox="0 0 1200 542" style="enable-background:new 0 0 1200 542;" xml:space="preserve">
<style type="text/css">
	.st0{fill:#8AC8CD;}
	.st1{fill:#0A748E;}
	.st2{fill:#C6E3E5;}
</style>
<path class="st0" d="M0.2,185.3c10.2-7.8,7-29.9,20-37.9c48.7-29.7,150.3-120.1,269.5-98c119.2,22.1,221.8,159.9,274.9,158.2
	c53.1-1.7,52.2-31.7,106.8-31c54.6,0.6,54.6,24.5,83.2,27.9c28.6,3.4,55.9-10.4,108-5.2c52.2,5.2,51.5,34.4,116.7,38.7
	c65.2,4.2,84.4-28.3,140.3-24.4c55.9,3.9,80.1,31.2,80.1,31.2v297.6H0.2L0.2,185.3z"/>
<path class="st1" d="M35,96.6C83.8,46.7,224.3-27,343.6,10.1c119.2,37.1,168,166.6,221.1,163.8c53.1-2.9,52.2-53.2,106.8-52.1
	c54.6,1.1,54.6,41.1,83.2,46.8c28.6,5.7,55.9-17.5,108-8.8c52.2,8.7,51.5,57.8,116.7,64.9c65.2,7.1,84.4-47.5,140.3-41
	c55.9,6.5,80.1,52.4,80.1,52.4V357c-121.1-63.8-178.2-38.4-218.8-26.8c-65.7,18.8-91.6-54.8-135.9-95.9
	c-60.1-55.8-147.3,33.4-231.7,26.5c-60.8-5-86.6-15.9-155.9-75.5c-84.6-72.7-89-164.8-264.2-117.6C70,100.9,0.2,184.8,0.2,184.8
	v-48.4C10.4,123.3,22,109.9,35,96.6z"/>
<path class="st2" d="M0.1,386.8c10.2-12.6,21.8-25.4,34.9-38.3c48.7-47.9,189.3-118.6,308.5-83c119.2,35.6,168,160,221.1,157.2
	c53.1-2.7,52.2-51.1,106.8-50c54.6,1,54.6,39.4,83.2,44.9c28.6,5.5,55.9-16.8,108-8.4c52.2,8.4,51.5,55.5,116.7,62.3
	c65.2,6.8,84.4-45.6,140.3-39.4c55.9,6.3,80.1,50.3,80.1,50.3v62.1H0.1V386.8z"/>
</svg>
